<svg width="512" height="512" viewBox="0 0 512 512" fill="none" xmlns="http://www.w3.org/2000/svg">
<g filter="url(#filter0_d_383_1349)">
<path d="M132 181.403C132 155.005 132 141.805 140.201 133.604C148.402 125.403 161.601 125.403 188 125.403H316.1C342.498 125.403 355.698 125.403 363.899 133.604C372.1 141.805 372.1 155.005 372.1 181.403V309.503C372.1 335.902 372.1 349.101 363.899 357.302C355.698 365.503 342.498 365.503 316.1 365.503H188C161.601 365.503 148.402 365.503 140.201 357.302C132 349.101 132 335.902 132 309.503V181.403Z" fill="#80BA29"/>
<circle cx="321.378" cy="149.555" r="11.4775" fill="white"/>
<circle cx="180.781" cy="149.555" r="11.4775" fill="white"/>
<g filter="url(#filter1_d_383_1349)">
<path d="M210.08 182.88V220.5C213.2 208.5 217.94 199.38 224.3 193.14C230.66 186.9 237.44 183.78 244.64 183.78C250.88 183.78 255.56 185.76 258.68 189.72C261.8 193.68 263.48 198.9 263.72 205.38V220.68C266.72 208.68 271.4 199.56 277.76 193.32C284.12 186.96 290.9 183.78 298.1 183.78C304.34 183.78 309.08 185.82 312.32 189.9C315.68 193.86 317.36 199.02 317.36 205.38V296.82C317.36 299.34 317.9 301.44 318.98 303.12C320.18 304.68 321.86 305.46 324.02 305.46C325.82 305.46 327.62 304.92 329.42 303.84C331.34 302.64 333.02 301.14 334.46 299.34L338.24 302.94C332.72 311.82 324.92 316.26 314.84 316.26C308.48 316.26 303.56 314.28 300.08 310.32C296.6 306.36 294.86 300.36 294.86 292.32V210.06C294.86 200.46 292.52 195.66 287.84 195.66C284.24 195.66 280.52 198.54 276.68 204.3C272.96 210.06 269.84 217.38 267.32 226.26C264.92 235.02 263.72 243.54 263.72 251.82V310.86L241.22 318.24V210.06C241.22 200.46 239 195.66 234.56 195.66C230.96 195.66 227.24 198.54 223.4 204.3C219.56 210.06 216.38 217.38 213.86 226.26C211.34 235.02 210.08 243.54 210.08 251.82V310.86L187.76 318.24V190.26L210.08 182.88Z" fill="white"/>
</g>
<path d="M327.818 126.317C327.818 106.607 319.615 87.7039 305.015 73.7668C290.414 59.8298 270.611 52 249.963 52C229.314 52 209.511 59.8297 194.911 73.7668C180.31 87.7038 172.107 106.607 172.107 126.316L187.293 126.316C187.293 110.451 193.896 95.2352 205.648 84.0166C217.401 72.7979 233.342 66.4954 249.963 66.4954C266.584 66.4954 282.524 72.7979 294.277 84.0166C306.03 95.2352 312.632 110.451 312.632 126.317H327.818Z" fill="#80BA29"/>
<path fill-rule="evenodd" clip-rule="evenodd" d="M143.904 230.514V315.608C143.904 334.464 143.904 343.892 149.762 349.75C155.62 355.608 165.048 355.608 183.904 355.608H279.757L161.14 348.551C157.157 348.314 155.165 348.196 153.883 346.934C152.601 345.673 152.451 343.683 152.151 339.704L143.904 230.514Z" fill="white"/>
<path d="M500.453 371.516L500.734 371.891L500.266 372.406C494.672 378.219 490.062 384.125 486.438 390.125C485.031 392.406 484.031 394.031 483.438 395L466 422.891V441.922L472.797 448.156H449.969L456.719 441.922V422.891L445.469 405.594L443.031 401.703C440.812 398.234 438.984 395.703 437.547 394.109C436.141 392.516 434.047 390.625 431.266 388.438L430.75 388.016H454.422L448.609 394.062L464.219 417.594L465.719 415.203L451.797 394.062L456.719 389.375L457.703 390.125L453.438 394.062L466.422 414.078L476.922 397.531C479.953 392.719 481.469 389.125 481.469 386.75C481.469 384.75 480.141 382.469 477.484 379.906C486.578 377.719 494.047 375.016 499.891 371.797L500.453 371.516ZM502.562 374.328V376.25L502.094 376.719C499.469 379.219 497.203 381.719 495.297 384.219C493.422 386.719 490.625 390.922 486.906 396.828L469.938 423.547V441.922L478.281 452H448.938L448.375 450.734H475.797L468.672 441.922V423.219L485.969 395.938L488.688 391.625C493.531 383.906 498.156 378.141 502.562 374.328Z" fill="#80BA29"/>
<path d="M23.776 383.536V403.6C25.44 397.2 27.968 392.336 31.36 389.008C34.752 385.68 38.368 384.016 42.208 384.016C45.536 384.016 48.032 385.072 49.696 387.184C51.36 389.296 52.256 392.08 52.384 395.536V403.696C53.984 397.296 56.48 392.432 59.872 389.104C63.264 385.712 66.88 384.016 70.72 384.016C74.048 384.016 76.576 385.104 78.304 387.28C80.096 389.392 80.992 392.144 80.992 395.536V444.304C80.992 445.648 81.28 446.768 81.856 447.664C82.496 448.496 83.392 448.912 84.544 448.912C85.504 448.912 86.464 448.624 87.424 448.048C88.448 447.408 89.344 446.608 90.112 445.648L92.128 447.568C89.184 452.304 85.024 454.672 79.648 454.672C76.256 454.672 73.632 453.616 71.776 451.504C69.92 449.392 68.992 446.192 68.992 441.904V398.032C68.992 392.912 67.744 390.352 65.248 390.352C63.328 390.352 61.344 391.888 59.296 394.96C57.312 398.032 55.648 401.936 54.304 406.672C53.024 411.344 52.384 415.888 52.384 420.304V451.792L40.384 455.728V398.032C40.384 392.912 39.2 390.352 36.832 390.352C34.912 390.352 32.928 391.888 30.88 394.96C28.832 398.032 27.136 401.936 25.792 406.672C24.448 411.344 23.776 415.888 23.776 420.304V451.792L11.872 455.728V387.472L23.776 383.536ZM147.174 389.008C140.326 389.904 134.086 392.304 128.454 396.208C122.822 400.112 118.406 405.04 115.206 410.992C112.006 416.944 110.406 423.28 110.406 430C110.406 435.952 111.366 440.56 113.286 443.824C115.206 447.088 117.83 448.72 121.158 448.72C124.23 448.72 127.174 446.288 129.99 441.424C132.87 436.496 135.174 430.032 136.902 422.032C138.63 414.032 139.494 405.712 139.494 397.072L151.59 393.136V444.304C151.59 445.648 151.91 446.768 152.55 447.664C153.19 448.496 154.022 448.912 155.046 448.912C156.006 448.912 156.966 448.624 157.926 448.048C158.95 447.472 159.814 446.672 160.518 445.648L162.534 447.568C159.654 452.304 155.526 454.672 150.15 454.672C146.758 454.672 144.134 453.616 142.278 451.504C140.422 449.328 139.494 446.128 139.494 441.904V428.848H138.822C136.966 437.552 134.182 444.08 130.47 448.432C126.758 452.784 122.214 454.96 116.838 454.96C111.014 454.96 106.406 452.976 103.014 449.008C99.6215 445.04 97.9255 439.568 97.9255 432.592C97.9255 424.4 100.134 416.752 104.55 409.648C109.03 402.48 115.014 396.72 122.502 392.368C130.054 387.952 138.278 385.584 147.174 385.264V389.008ZM203.674 384.112C210.074 384.112 215.226 385.872 219.13 389.392C223.098 392.848 225.082 397.648 225.082 403.792C225.082 408.016 223.93 412.016 221.626 415.792C219.386 419.504 216.314 422.736 212.41 425.488C208.57 428.24 204.314 430.288 199.642 431.632L209.722 444.208C211.258 446.064 213.05 446.992 215.098 446.992C217.658 446.992 220.698 445.232 224.218 441.712L226.234 443.536C223.93 446.8 221.338 449.552 218.458 451.792C215.578 454.032 212.602 455.152 209.53 455.152C207.418 455.152 205.466 454.608 203.674 453.52C201.946 452.432 199.994 450.48 197.818 447.664L186.586 433.168L187.162 430.48C191.514 429.904 195.642 428.528 199.546 426.352C203.514 424.112 206.714 421.232 209.146 417.712C211.642 414.128 212.89 410.096 212.89 405.616C212.89 400.944 211.546 397.232 208.858 394.48C206.234 391.728 202.234 390.352 196.858 390.352C192.378 390.352 187.77 391.408 183.034 393.52C178.362 395.632 174.106 398.384 170.266 401.776L167.77 399.088C172.57 394.672 178.042 391.088 184.186 388.336C190.33 385.52 196.826 384.112 203.674 384.112ZM185.626 451.792L174.01 455.824V401.392L185.626 397.552V451.792ZM283.983 384.304C281.743 387.504 278.799 390.16 275.151 392.272C271.503 394.384 267.823 395.44 264.111 395.44C262.895 396.976 261.999 398.448 261.423 399.856C260.911 401.264 260.655 402.896 260.655 404.752V435.76C260.655 440.368 259.631 444.24 257.583 447.376C255.599 450.512 252.495 453.392 248.271 456.016L246.255 453.712C247.919 451.6 248.751 448.496 248.751 444.4V410.32C248.751 407.632 249.583 405.04 251.247 402.544C252.975 399.984 255.087 397.616 257.583 395.44L244.815 395.344C242.639 395.344 240.655 395.824 238.863 396.784C237.071 397.744 235.375 399.216 233.775 401.2L231.663 399.184C234.671 395.216 237.743 392.08 240.879 389.776C244.079 387.472 247.695 386.32 251.727 386.32H265.935C269.007 386.32 272.111 386.064 275.247 385.552C278.383 384.976 280.751 383.984 282.351 382.576L283.983 384.304ZM351.183 378.64C354.127 380.752 356.303 383.216 357.711 386.032C359.119 388.784 359.823 391.728 359.823 394.864C359.823 399.536 358.607 404.56 356.175 409.936L336.111 457.552L323.151 422.608L309.519 457.552L284.463 389.68L295.983 385.36L313.647 434.224L320.751 415.984L312.399 393.232L323.919 388.912L340.623 435.088L348.591 416.272C350.575 411.28 351.567 407.184 351.567 403.984C351.567 397.904 348.655 392.496 342.831 387.76L351.183 378.64ZM415.561 389.008C408.713 389.904 402.473 392.304 396.841 396.208C391.209 400.112 386.793 405.04 383.593 410.992C380.393 416.944 378.793 423.28 378.793 430C378.793 435.952 379.753 440.56 381.673 443.824C383.593 447.088 386.217 448.72 389.545 448.72C392.617 448.72 395.561 446.288 398.377 441.424C401.257 436.496 403.561 430.032 405.289 422.032C407.017 414.032 407.881 405.712 407.881 397.072L419.977 393.136V444.304C419.977 445.648 420.297 446.768 420.937 447.664C421.577 448.496 422.409 448.912 423.433 448.912C424.393 448.912 425.353 448.624 426.313 448.048C427.337 447.472 428.201 446.672 428.905 445.648L430.921 447.568C428.041 452.304 423.913 454.672 418.537 454.672C415.145 454.672 412.521 453.616 410.665 451.504C408.809 449.328 407.881 446.128 407.881 441.904V428.848H407.209C405.353 437.552 402.569 444.08 398.857 448.432C395.145 452.784 390.601 454.96 385.225 454.96C379.401 454.96 374.793 452.976 371.401 449.008C368.009 445.04 366.313 439.568 366.313 432.592C366.313 424.4 368.521 416.752 372.937 409.648C377.417 402.48 383.401 396.72 390.889 392.368C398.441 387.952 406.665 385.584 415.561 385.264V389.008Z" fill="black"/>
</g>
<defs>
<filter id="filter0_d_383_1349" x="7.87195" y="48" width="498.691" height="413.552" filterUnits="userSpaceOnUse" color-interpolation-filters="sRGB">
<feFlood flood-opacity="0" result="BackgroundImageFix"/>
<feColorMatrix in="SourceAlpha" type="matrix" values="0 0 0 0 0 0 0 0 0 0 0 0 0 0 0 0 0 0 127 0" result="hardAlpha"/>
<feOffset/>
<feGaussianBlur stdDeviation="2"/>
<feComposite in2="hardAlpha" operator="out"/>
<feColorMatrix type="matrix" values="0 0 0 0 0 0 0 0 0 0 0 0 0 0 0 0 0 0 0.25 0"/>
<feBlend mode="normal" in2="BackgroundImageFix" result="effect1_dropShadow_383_1349"/>
<feBlend mode="normal" in="SourceGraphic" in2="effect1_dropShadow_383_1349" result="shape"/>
</filter>
<filter id="filter1_d_383_1349" x="182.578" y="182.178" width="155.662" height="136.763" filterUnits="userSpaceOnUse" color-interpolation-filters="sRGB">
<feFlood flood-opacity="0" result="BackgroundImageFix"/>
<feColorMatrix in="SourceAlpha" type="matrix" values="0 0 0 0 0 0 0 0 0 0 0 0 0 0 0 0 0 0 127 0" result="hardAlpha"/>
<feOffset dx="-4.48"/>
<feGaussianBlur stdDeviation="0.350828"/>
<feComposite in2="hardAlpha" operator="out"/>
<feColorMatrix type="matrix" values="0 0 0 0 0 0 0 0 0 0 0 0 0 0 0 0 0 0 0.31 0"/>
<feBlend mode="normal" in2="BackgroundImageFix" result="effect1_dropShadow_383_1349"/>
<feBlend mode="normal" in="SourceGraphic" in2="effect1_dropShadow_383_1349" result="shape"/>
</filter>
</defs>
</svg>
