<svg width="454" height="384" viewBox="0 0 454 384" fill="none" xmlns="http://www.w3.org/2000/svg">
<path opacity="0.5" d="M231.768 383.058C353.999 383.058 453.086 369.316 453.086 352.365C453.086 335.414 353.999 321.672 231.768 321.672C109.538 321.672 10.4502 335.414 10.4502 352.365C10.4502 369.316 109.538 383.058 231.768 383.058Z" fill="#F5F5F5"/>
<path d="M191.947 297.256C191.99 294.104 191.865 289.736 191.113 284.606C190.479 280.285 188.455 266.482 181.177 256.051C170.177 240.286 157.707 247.315 144.925 231.016C137.61 221.688 139.667 216.8 131.301 209.333C123.911 202.737 115.978 200.308 107.525 198.918C86.1353 195.4 51.2383 198.7 51.2383 198.7C54.1843 232.524 65.5543 246.509 75.3663 253.035C89.1363 262.193 99.7283 256.583 112.001 267.545C127.978 281.815 117.49 297.984 132.391 312.831C132.391 312.831 138.914 319.331 189.537 328.952L191.947 297.256Z" fill="#FEFFD9"/>
<path d="M189.537 328.952C189.537 328.952 150.43 262.394 135.533 249.35C120.636 236.306 51.2383 198.7 51.2383 198.7" stroke="#D6D6D6" stroke-width="0.4657" stroke-miterlimit="10" stroke-linecap="round" stroke-linejoin="round"/>
<path d="M101.457 227.084L57.7744 229.529" stroke="#D6D6D6" stroke-width="0.4657" stroke-miterlimit="10" stroke-linecap="round" stroke-linejoin="round"/>
<path d="M110.481 232.49L113.38 200.094" stroke="#D6D6D6" stroke-width="0.4657" stroke-miterlimit="10" stroke-linecap="round" stroke-linejoin="round"/>
<path d="M130.343 245.325L92.5352 259.294" stroke="#D6D6D6" stroke-width="0.4657" stroke-miterlimit="10" stroke-linecap="round" stroke-linejoin="round"/>
<path d="M146.339 261.928L151.204 237.367" stroke="#D6D6D6" stroke-width="0.4657" stroke-miterlimit="10" stroke-linecap="round" stroke-linejoin="round"/>
<path d="M158.54 279.33L121.914 286.02" stroke="#D6D6D6" stroke-width="0.4657" stroke-miterlimit="10" stroke-linecap="round" stroke-linejoin="round"/>
<path d="M168.095 294L181.879 257.092" stroke="#D6D6D6" stroke-width="0.4657" stroke-miterlimit="10" stroke-linecap="round" stroke-linejoin="round"/>
<path d="M176.788 307.869L134.424 314.114" stroke="#D6D6D6" stroke-width="0.4657" stroke-miterlimit="10" stroke-linecap="round" stroke-linejoin="round"/>
<path d="M168.695 302.468C167.53 299.539 165.745 295.55 163.089 291.097C160.852 287.346 153.706 275.365 142.993 268.508C126.802 258.144 117.966 269.406 99.925 259.229C89.6 253.405 89.633 248.102 79.048 244.399C69.698 241.128 61.438 241.916 53.097 243.862C31.986 248.786 1 265.173 1 265.173C16.65 295.303 32.502 303.881 44.063 306.161C60.288 309.36 67.932 300.129 83.463 305.568C103.681 312.648 100.169 331.598 119.613 339.623C119.613 339.623 128.125 343.136 178.582 332.678L168.695 302.468Z" fill="#FFFBE5"/>
<path d="M178.582 332.678C178.582 332.678 117.005 286.12 98.254 279.76C79.502 273.399 1 265.173 1 265.173" stroke="#D6D6D6" stroke-width="0.4657" stroke-miterlimit="10" stroke-linecap="round" stroke-linejoin="round"/>
<path d="M58.2553 272.209L18.8223 291.164" stroke="#D6D6D6" stroke-width="0.4657" stroke-miterlimit="10" stroke-linecap="round" stroke-linejoin="round"/>
<path d="M68.66 273.756L58.957 242.711" stroke="#D6D6D6" stroke-width="0.4657" stroke-miterlimit="10" stroke-linecap="round" stroke-linejoin="round"/>
<path d="M91.9203 278.025L62.3213 305.384" stroke="#D6D6D6" stroke-width="0.4657" stroke-miterlimit="10" stroke-linecap="round" stroke-linejoin="round"/>
<path d="M113.047 287.254L108.155 262.698" stroke="#D6D6D6" stroke-width="0.4657" stroke-miterlimit="10" stroke-linecap="round" stroke-linejoin="round"/>
<path d="M130.973 298.672L99.6836 318.852" stroke="#D6D6D6" stroke-width="0.4657" stroke-miterlimit="10" stroke-linecap="round" stroke-linejoin="round"/>
<path d="M145.408 308.576L144.039 269.202" stroke="#D6D6D6" stroke-width="0.4657" stroke-miterlimit="10" stroke-linecap="round" stroke-linejoin="round"/>
<path d="M158.743 318.069L121.982 340.032" stroke="#D6D6D6" stroke-width="0.4657" stroke-miterlimit="10" stroke-linecap="round" stroke-linejoin="round"/>
<path d="M311.175 333.185H177.838L190.679 245.014H298.334L311.175 333.185Z" fill="#8298A8"/>
<path d="M410.29 260.559H78.7227C70.2987 260.559 63.4697 253.73 63.4697 245.306V36.4239C63.4697 27.9999 70.2987 21.1709 78.7227 21.1709H410.29C418.714 21.1709 425.543 27.9999 425.543 36.4239V245.306C425.543 253.73 418.714 260.559 410.29 260.559Z" fill="#1985D8" fill-opacity="0.2"/>
<path d="M401.504 235.444H87.5089C79.0849 235.444 72.2559 228.615 72.2559 220.191V43.6309C72.2559 35.2069 79.0849 28.3779 87.5089 28.3779H401.505C409.929 28.3779 416.758 35.2069 416.758 43.6309V220.191C416.758 228.615 409.929 235.444 401.504 235.444Z" fill="#E8F5FF"/>
<path d="M339.436 339.605H149.576V330.433C149.576 323.341 155.325 317.592 162.417 317.592H326.595C333.687 317.592 339.436 323.341 339.436 330.433V339.605Z" fill="#8298A8"/>
<path d="M83.4883 235.444H399.157" stroke="#262626" stroke-miterlimit="10" stroke-linecap="round" stroke-linejoin="round"/>
<path d="M157.934 335.019V330.204C157.934 327.291 160.295 324.93 163.208 324.93H305.603" stroke="#262626" stroke-miterlimit="10" stroke-linecap="round" stroke-linejoin="round"/>
<path d="M290.469 267.605L295.513 306.128" stroke="#262626" stroke-miterlimit="10" stroke-linecap="round" stroke-linejoin="round"/>
<path d="M241.322 256.168C245.401 256.168 248.709 252.861 248.709 248.781C248.709 244.701 245.401 241.394 241.322 241.394C237.242 241.394 233.935 244.701 233.935 248.781C233.935 252.861 237.242 256.168 241.322 256.168Z" fill="white"/>
<path d="M346.418 42.4331H385.628C393.1 42.4331 399.157 48.4901 399.157 55.9621V137.433" stroke="white" stroke-miterlimit="10" stroke-linecap="round" stroke-linejoin="round"/>
<path d="M376.341 68.241C378.606 62.793 380.845 58.578 383.059 55.599C385.272 52.62 388.154 50.244 391.708 48.472C393.785 47.386 395.948 46.607 398.204 46.136C400.456 45.666 402.6 45.067 404.636 44.342C406.668 43.618 408.539 42.634 410.247 41.394C411.954 40.154 413.364 38.196 414.478 35.517C416.358 30.993 416.427 27.31 414.682 24.473C412.937 21.636 410.355 19.506 406.939 18.086C402.042 16.051 398.105 16.013 395.127 17.969C392.146 19.926 389.465 23.117 387.085 27.543L369.215 20.115C371.096 15.591 373.542 11.787 376.556 8.70701C379.568 5.62801 382.975 3.361 386.775 1.907C390.573 0.455004 394.677 -0.168992 399.087 0.039008C403.493 0.246008 408.007 1.31001 412.626 3.23001C422.6 7.37601 429.627 12.681 433.712 19.144C437.793 25.608 437.936 33.41 434.135 42.553C432.906 45.51 431.53 47.969 430.01 49.937C428.487 51.903 426.751 53.537 424.803 54.84C422.853 56.141 420.674 57.213 418.268 58.054C415.859 58.895 413.203 59.685 410.296 60.426C407.61 61.152 405.367 61.926 403.564 62.745C401.76 63.567 400.226 64.582 398.968 65.79C397.706 66.999 396.647 68.375 395.792 69.912C394.934 71.452 394.084 73.239 393.241 75.269L376.341 68.241ZM364.673 94.748L372.217 76.6L390.918 84.374L383.374 102.522L364.673 94.748Z" fill="#3897E9"/>
<g filter="url(#filter0_d_2184_136)">
<path d="M267.369 95.477V80.657C267.369 75.796 263.428 71.855 258.567 71.855H172.539C167.678 71.855 163.737 75.796 163.737 80.657V95.477V194.209C163.737 199.07 167.678 203.011 172.539 203.011H310.106C314.967 203.011 318.908 199.07 318.908 194.209V104.279C318.908 99.418 314.967 95.477 310.106 95.477H267.369Z" fill="#F5F5F5"/>
<path d="M258.654 116.177L241.322 133.509L223.991 116.178L213.532 126.636L230.863 143.968L213.532 161.3L223.991 171.758L241.322 154.427L258.654 171.758L269.113 161.3L251.781 143.968L269.113 126.636L258.654 116.177Z" fill="#D6D6D6"/>
</g>
<path d="M53.5316 338.75V327.339H32.5176V358.718L79.9656 359.479V353.774L53.5316 338.75Z" fill="#F7A99C"/>
<path d="M81.6461 359.479V356.774C81.6461 354.008 80.1291 351.466 77.6951 350.152L57.6841 339.352C51.6851 340.991 47.0491 340.761 43.8811 340.224C38.6201 339.331 33.5921 336.941 31.9001 338.94C31.4161 339.512 31.3581 340.262 31.3771 340.778V357.371C31.3771 358.535 32.3211 359.479 33.4851 359.479H81.6461Z" fill="#FFC001"/>
<path d="M81.646 357.672H31.376" stroke="#3897E9" stroke-width="0.733" stroke-miterlimit="10" stroke-linecap="round" stroke-linejoin="round"/>
<path d="M70.5699 346.534L67.7539 350.256" stroke="#3897E9" stroke-width="0.733" stroke-miterlimit="10" stroke-linecap="round" stroke-linejoin="round"/>
<path d="M68.5074 345.369L65.6914 349.091" stroke="#3897E9" stroke-width="0.733" stroke-miterlimit="10" stroke-linecap="round" stroke-linejoin="round"/>
<path d="M66.3521 344.29L63.5352 348.011" stroke="#3897E9" stroke-width="0.733" stroke-miterlimit="10" stroke-linecap="round" stroke-linejoin="round"/>
<path d="M63.178 342.317C59.768 343.618 54.14 345.286 47.035 345.248C40.18 345.211 34.739 343.6 31.377 342.317" stroke="#3897E9" stroke-width="0.733" stroke-miterlimit="10" stroke-linecap="round" stroke-linejoin="round"/>
<path d="M113.438 338.75V327.339H92.4238V358.718L139.872 359.479V353.774L113.438 338.75Z" fill="#F7A99C"/>
<path d="M141.551 359.479V356.774C141.551 354.008 140.034 351.466 137.6 350.152L117.589 339.352C111.59 340.991 106.954 340.761 103.786 340.224C98.5253 339.331 93.4973 336.941 91.8053 338.94C91.3213 339.512 91.2633 340.262 91.2823 340.778V357.371C91.2823 358.535 92.2263 359.479 93.3903 359.479H141.551Z" fill="#FFC001"/>
<path d="M141.551 357.672H91.2822" stroke="#3897E9" stroke-width="0.733" stroke-miterlimit="10" stroke-linecap="round" stroke-linejoin="round"/>
<path d="M130.475 346.534L127.659 350.256" stroke="#3897E9" stroke-width="0.733" stroke-miterlimit="10" stroke-linecap="round" stroke-linejoin="round"/>
<path d="M128.413 345.369L125.597 349.091" stroke="#3897E9" stroke-width="0.733" stroke-miterlimit="10" stroke-linecap="round" stroke-linejoin="round"/>
<path d="M126.257 344.29L123.441 348.011" stroke="#3897E9" stroke-width="0.733" stroke-miterlimit="10" stroke-linecap="round" stroke-linejoin="round"/>
<path d="M123.083 342.317C119.673 343.618 114.045 345.286 106.94 345.248C100.086 345.211 94.6442 343.6 91.2822 342.317" stroke="#3897E9" stroke-width="0.733" stroke-miterlimit="10" stroke-linecap="round" stroke-linejoin="round"/>
<path d="M101.361 176.245C101.361 176.245 118.667 231.206 121.329 238.813C123.991 246.42 126.464 257.07 125.893 266.388C125.322 275.707 116.384 333.139 116.384 333.139H90.33C90.33 333.139 88.49 272.473 87.603 267.719C86.716 262.965 79.109 236.072 79.109 236.072C79.109 236.072 76.637 267.529 74.545 275.896C72.453 284.264 55.718 334.09 55.718 334.09H31.376L41.646 176.245H101.361Z" fill="#3897E9"/>
<path d="M141.08 142.741C141.08 142.741 149.343 135.731 151.434 131.145C153.224 127.22 155.726 120.324 156.41 118.418C156.513 118.13 156.815 117.971 157.112 118.041L157.607 118.158C159.14 118.521 160.087 120.061 159.719 121.593L158.894 125.031L167.625 119.297C168.374 118.805 169.383 119.047 169.827 119.826C170.219 120.513 170.032 121.385 169.393 121.85L163.634 126.05L173.201 121.558C173.942 121.21 174.825 121.49 175.231 122.201L175.243 122.222C175.672 122.975 175.41 123.933 174.657 124.362L174.764 124.331C175.595 124.092 176.476 124.495 176.838 125.279C177.258 126.187 176.832 127.261 175.905 127.636L175.296 127.882C176.09 127.634 176.924 128.129 177.086 128.945C177.323 130.136 176.749 131.339 175.672 131.9C173.097 133.24 171.426 133.593 168.979 135.425C167.042 136.874 167.72 137.797 165.654 140.44C163.138 143.659 160.995 143.75 156.661 146.936C155.015 148.146 152.742 150.032 150.34 152.839L141.08 142.741Z" fill="#F7A99C"/>
<path d="M169.966 120.171C169.966 120.171 170.405 121.061 169.571 121.695C168.738 122.329 162.232 127.145 162.232 127.145" stroke="#262626" stroke-width="0.4147" stroke-miterlimit="10" stroke-linecap="round" stroke-linejoin="round"/>
<path d="M174.657 124.362L165.699 128.52" stroke="#262626" stroke-width="0.4147" stroke-miterlimit="10" stroke-linecap="round" stroke-linejoin="round"/>
<path d="M175.579 127.828L166.573 131.973" stroke="#262626" stroke-width="0.4147" stroke-miterlimit="10" stroke-linecap="round" stroke-linejoin="round"/>
<path d="M158.233 118.39C158.233 118.39 159.807 119.386 159.763 120.49C159.719 121.594 158.131 128.686 158.131 128.686" stroke="#262626" stroke-width="0.4147" stroke-miterlimit="10" stroke-linecap="round" stroke-linejoin="round"/>
<path d="M90.3312 333.14C90.3312 333.14 87.9732 270.936 87.7892 269.328C87.6052 267.72 78.7402 234.796 78.7402 234.796L80.3102 220.244C80.3102 220.244 98.1952 264.27 98.1952 267.174C98.1952 270.079 100.182 333.14 100.182 333.14H90.3312Z" fill="#1775AF"/>
<path d="M75.5605 272.089L81.9165 203.346" stroke="#262626" stroke-width="0.4147" stroke-miterlimit="10" stroke-linecap="round" stroke-linejoin="round"/>
<path d="M117.386 327.862H90.1299L90.3309 333.14H116.385L117.386 327.862Z" fill="#262626"/>
<path d="M57.298 329.376H31.683L31.376 334.091H55.719L57.298 329.376Z" fill="#262626"/>
<path d="M118.972 244.248C122.421 255.105 122.968 266.869 120.54 277.999" stroke="white" stroke-width="0.4147" stroke-miterlimit="10" stroke-linecap="round" stroke-linejoin="round"/>
<path d="M147.949 135.349C147.949 135.349 143.537 138.746 138.511 139.628C132.622 140.662 127.515 137.174 126.144 136.238C122.41 133.688 121.031 130.667 118.562 127.132C111.248 116.662 106.705 110.158 100.345 106.475C97.0579 104.571 91.5609 102.422 82.8949 103.087C80.9509 102.39 77.8519 102.942 75.7759 102.942C74.0499 102.942 72.3249 102.942 70.5989 102.942C67.1969 103.35 42.1409 106.261 37.8809 102.349C36.2019 100.807 36.1749 99.2879 36.1749 99.2879C36.1529 98.0319 36.9459 96.7249 39.0219 95.1439C44.0949 91.2809 53.4009 88.3969 56.5179 87.4779L54.6159 73.2739C54.6159 73.2739 54.6159 73.2739 50.4319 73.2739C46.2479 73.2739 31.4139 75.7459 23.4269 78.5369C12.2279 82.4499 6.22789 85.3059 3.26789 91.7929C-0.440108 99.9219 3.50989 108.659 4.53589 110.929C9.67789 122.302 21.0799 126.905 27.9669 129.685C34.0409 132.137 39.4469 133.122 43.2049 133.56L39.9719 185.288L99.4279 188.521H108.357C109.041 180.617 105.621 156.059 106.064 148.037C113.655 158.601 126.229 163.936 138.166 161.642C151.381 159.103 158.027 148.327 159.109 146.508C154.497 137.409 147.949 135.349 147.949 135.349Z" fill="#0078D7"/>
<path d="M74.0779 131.602H73.5049V106.914H77.2499V128.43C77.2499 130.182 75.8299 131.602 74.0779 131.602Z" fill="white"/>
<path d="M108.448 185.793C106.4 186.173 78.2567 190.892 58.3707 169.895C41.5907 152.178 43.5747 129.757 43.9247 126.441C42.8807 141.993 41.8357 157.545 40.7917 173.097H40.7347L39.9727 185.287L49.2927 185.794L49.2867 185.728C63.1867 186.828 77.5317 187.649 92.3007 188.133C97.7107 188.31 103.064 188.438 108.359 188.521C108.388 187.611 108.418 186.702 108.448 185.793Z" fill="#0071BC"/>
<path d="M92.6821 84.2538C93.7011 79.0238 93.5421 74.9358 93.2461 72.3228C93.0211 70.3348 92.6751 68.8298 91.6191 67.3988C91.3961 67.0968 89.6421 64.7908 86.6321 64.1888C83.0321 63.4678 82.1231 66.0828 77.0021 66.7168C72.5861 67.2628 71.7161 65.5098 68.7461 66.7688C65.5021 68.1438 63.9011 71.3548 63.4151 72.3298C63.2031 72.7558 62.1461 74.9338 62.0391 77.9858C61.9541 80.4028 62.5061 82.2208 62.7251 82.9648C63.6451 86.0958 64.7281 90.8578 66.0521 98.4708C66.7431 98.4448 67.4351 98.4198 68.1261 98.3938C76.3121 93.6788 84.4971 88.9658 92.6821 84.2538Z" fill="#262626"/>
<path d="M75.1729 109.976C71.3049 109.991 68.1579 106.867 68.1439 103L68.0869 87.9299L82.0929 87.877L82.1499 102.947C82.1639 106.814 79.0409 109.961 75.1729 109.976Z" fill="#F7A99C"/>
<path d="M82.1337 98.728L73.0127 94.042C73.1047 94.832 73.6237 98.531 76.8767 101.086C78.9537 102.717 81.1377 103.09 82.1457 103.196L82.1337 98.728Z" fill="#FF7769"/>
<path d="M67.7473 83.2609C67.7033 83.0329 67.1033 82.6889 66.9193 82.5719C66.6083 82.3729 66.2713 82.2139 65.9193 82.1009C65.2363 81.8809 64.4853 81.8299 63.7833 81.9909C62.3873 82.3109 61.1493 83.4839 60.9163 84.9209C60.7813 85.7559 60.9743 86.6189 61.3313 87.3849C61.8693 88.5369 62.7813 89.5049 63.8833 90.1389C64.7963 90.6649 65.8353 90.9629 66.8853 91.0249C67.0953 91.0369 69.2483 90.9879 69.2323 90.9049C68.7363 88.3569 68.2413 85.8089 67.7473 83.2609Z" fill="#F7A99C"/>
<path d="M65.8274 83.4069C65.9934 84.5309 66.9814 90.4619 72.3274 94.6519C73.3124 95.4239 79.8584 100.555 85.8484 98.0509C93.5454 94.8329 92.7054 82.1909 92.6514 81.5059C92.4684 79.1909 91.9274 72.3739 86.2824 68.7369C81.6754 65.7689 76.6824 66.8599 75.9744 67.0269C75.2284 67.2019 70.4754 68.4019 67.5664 73.0619C64.9254 77.2909 65.5564 81.5669 65.8274 83.4069Z" fill="#F7A99C"/>
<path d="M88.2818 81.5149C88.4058 82.5019 89.1668 83.2189 89.9818 83.1169C90.7968 83.0149 91.3568 82.1319 91.2328 81.1449C91.1088 80.1579 90.3478 79.4409 89.5328 79.5429C88.7178 79.6449 88.1578 80.5279 88.2818 81.5149Z" fill="#262626"/>
<path d="M79.3883 82.6318C79.5123 83.6188 80.2733 84.3358 81.0883 84.2338C81.9033 84.1318 82.4633 83.2488 82.3393 82.2618C82.2153 81.2748 81.4543 80.5578 80.6393 80.6598C79.8253 80.7618 79.2643 81.6448 79.3883 82.6318Z" fill="#262626"/>
<path d="M85.5969 82.9919L86.9599 84.834C87.2109 85.172 87.1169 85.6529 86.7569 85.8719L85.5049 86.6339" stroke="#262626" stroke-width="0.733" stroke-miterlimit="10" stroke-linecap="round" stroke-linejoin="round"/>
<path d="M76.4056 87.281C76.5446 88.388 77.5556 89.174 78.6626 89.034C79.7696 88.895 80.5556 87.884 80.4156 86.777C80.2766 85.67 79.2656 84.884 78.1586 85.024C77.0516 85.163 76.2666 86.174 76.4056 87.281Z" fill="#FF7769"/>
<path d="M66.8073 88.325C66.8143 88.103 66.8323 86.599 65.6263 85.514C64.6813 84.664 63.5813 84.608 63.2812 84.603" stroke="#262626" stroke-width="0.733" stroke-miterlimit="10" stroke-linecap="round" stroke-linejoin="round"/>
<path d="M65.7429 85.8118C65.6759 85.8008 64.8669 85.6888 64.3019 86.3008C63.8369 86.8038 63.8799 87.4258 63.8889 87.5288" stroke="#262626" stroke-width="0.733" stroke-miterlimit="10" stroke-linecap="round" stroke-linejoin="round"/>
<path d="M65.6508 82.0259C65.6508 82.0259 66.6458 82.1139 67.3958 82.8589C68.1458 83.6029 68.4118 84.8779 68.4118 84.8779C70.3288 84.6449 74.7198 83.8359 78.7028 80.3789C80.8618 78.5049 82.1798 76.4789 82.9568 75.0179C83.6828 75.6709 84.9218 76.6519 86.6748 77.4079C88.9618 78.3939 91.8188 78.8659 92.1978 78.0979C92.2678 77.9559 92.1908 77.5439 92.0348 76.7209C91.9788 76.4229 91.9198 75.9819 91.7748 75.5599C91.4918 74.7339 91.1238 73.9369 90.6848 73.1819C89.8048 71.6719 88.6338 70.3309 87.2558 69.2559C86.3598 68.5579 85.3768 67.9719 84.3308 67.5269C81.0108 66.1149 76.4008 66.1139 72.4328 68.2299C72.4328 68.2299 68.0028 70.5929 66.0498 75.2169C65.3788 76.8059 65.2098 78.3949 65.1678 78.9459C65.0838 80.0369 65.2068 80.7499 65.3728 81.2979C65.4668 81.6079 65.5718 81.8569 65.6508 82.0259Z" fill="#262626"/>
<path d="M91.602 84.0848C91.985 84.0368 92.354 84.1048 92.682 84.2538C92.643 85.3388 92.539 86.6548 92.3 88.0508C92.235 88.0658 92.173 88.0868 92.106 88.0958C90.999 88.2348 89.988 87.4498 89.849 86.3428C89.71 85.2358 90.494 84.2238 91.602 84.0848Z" fill="#FF7769"/>
<path d="M76.7724 67.2839C76.1144 67.0279 75.1504 66.6789 73.9634 66.3379C71.3614 65.5919 70.0604 65.2189 68.8764 65.3709C65.4104 65.8159 63.4194 70.3839 62.5844 72.2999C61.9524 73.7499 60.9184 76.2109 61.4664 79.2939C61.7104 80.6659 62.1934 81.7389 62.5774 82.4479" stroke="#262626" stroke-width="0.25" stroke-miterlimit="10" stroke-linecap="round" stroke-linejoin="round"/>
<path d="M76.7725 66.8719C77.9445 66.3599 79.1975 65.9449 80.3265 65.3579C81.5115 64.7419 82.5465 63.9409 83.8155 63.4679C85.1485 62.9709 86.6365 62.7719 87.9975 63.1849C89.1705 63.5409 90.1735 64.3249 91.0015 65.2289C92.1165 66.4469 92.9655 67.9169 93.4075 69.5079C94.2595 72.5739 93.4985 75.7689 92.9965 78.8249" stroke="#262626" stroke-width="0.25" stroke-miterlimit="10" stroke-linecap="round" stroke-linejoin="round"/>
<path d="M87.1016 90.8528C87.1016 91.8488 86.1316 92.6558 84.9356 92.6558C83.7386 92.6558 82.7686 91.8488 82.7686 90.8528C82.7686 89.8568 83.7386 89.0498 84.9356 89.0498C86.1316 89.0508 87.1016 89.8578 87.1016 90.8528Z" fill="white"/>
<path d="M54.9434 75.7108L58.9444 73.2738C58.9444 73.2738 59.7614 69.7488 60.8724 69.0038C61.9834 68.2588 67.8874 65.9658 67.8874 65.9658L68.7474 66.7688C68.7474 66.7688 64.1274 70.9888 63.1704 72.8628C62.2124 74.7368 62.0324 79.9538 62.0324 79.9538L57.5124 85.7978L56.4064 86.6348L54.9434 75.7108Z" fill="#F7A99C"/>
<path d="M43.9253 128.686L41.8213 155.719" stroke="#262626" stroke-width="0.4147" stroke-miterlimit="10" stroke-linecap="round" stroke-linejoin="round"/>
<path d="M105.033 130.896L106.646 160.723" stroke="#262626" stroke-width="0.4147" stroke-miterlimit="10" stroke-linecap="round" stroke-linejoin="round"/>
<path d="M12.6642 88.325C11.8282 88.99 7.50417 92.5669 6.80417 98.8859C6.04217 105.77 10.1822 110.482 10.8292 111.194" stroke="white" stroke-width="0.4147" stroke-miterlimit="10" stroke-linecap="round" stroke-linejoin="round"/>
<path d="M115.39 150.023C116.502 151.258 120.826 155.765 128.092 156.747C134.983 157.679 140.124 154.847 141.606 153.959" stroke="white" stroke-width="0.4147" stroke-miterlimit="10" stroke-linecap="round" stroke-linejoin="round"/>
<g filter="url(#filter1_d_2184_136)">
<path d="M304.314 173.706L313.589 168.748L327.347 171.27L334.226 163.932L350.506 168.289L359.564 155.907L375.738 165.821L370.235 130.858L348.893 115.915L299.841 123.635C298.004 123.924 296.75 125.647 297.039 127.484L304.314 173.706Z" fill="#F5F5F5"/>
<path d="M353.879 133.432L370.236 130.858L348.894 115.915L351.363 131.6C351.551 132.801 352.678 133.621 353.879 133.432Z" fill="#D6D6D6"/>
<path d="M348.894 115.914L351.363 131.599C351.552 132.8 352.679 133.62 353.88 133.431L370.237 130.857" stroke="#262626" stroke-width="0.274" stroke-miterlimit="10" stroke-linecap="round" stroke-linejoin="round"/>
<path d="M310.926 219.613C311.215 221.45 312.938 222.704 314.775 222.415L379.032 212.302C380.869 212.013 382.123 210.29 381.834 208.453L375.738 169.719L359.564 159.805L350.506 172.187L334.226 167.83L327.347 175.168L313.589 172.646L304.314 177.604L310.926 219.613Z" fill="#F5F5F5"/>
<path d="M304.327 173.706L313.602 168.748L327.36 171.27L334.239 163.932L350.519 168.289L359.577 155.907L375.751 165.821L370.248 130.858L348.906 115.915L299.854 123.635C298.017 123.924 296.763 125.647 297.052 127.484L304.327 173.706Z" stroke="#262626" stroke-width="0.274" stroke-miterlimit="10" stroke-linecap="round" stroke-linejoin="round"/>
<path d="M310.939 219.613C311.228 221.45 312.951 222.704 314.788 222.415L379.045 212.302C380.882 212.013 382.136 210.29 381.847 208.453L375.751 169.719L359.577 159.805L350.519 172.187L334.239 167.83L327.36 175.168L313.602 172.646L304.327 177.604L310.939 219.613Z" stroke="#262626" stroke-width="0.274" stroke-miterlimit="10" stroke-linecap="round" stroke-linejoin="round"/>
</g>
<path d="M55.7356 64.9581L54.1136 66.5061L39.7656 53.5511L43.8956 49.6121L55.7356 64.9581Z" fill="#FF7129"/>
<path d="M59.2813 62.302L57.0763 62.71L52.1553 44.016L57.7673 42.979L59.2813 62.302Z" fill="#FF7129"/>
<path d="M51.6351 68.484L51.4511 70.719L32.1201 70.573L32.5891 64.885L51.6351 68.484Z" fill="#FF7129"/>
<path d="M282.584 351.921C277.734 347.154 277.666 339.358 282.433 334.508L339.126 276.821L356.69 294.083L299.997 351.769C295.23 356.62 287.434 356.688 282.584 351.921Z" fill="#FF7129"/>
<path opacity="0.2" d="M383.742 298.897C411.24 298.833 433.48 276.49 433.417 248.992C433.354 221.494 411.011 199.253 383.513 199.317C356.014 199.38 333.774 221.723 333.837 249.221C333.9 276.719 356.243 298.96 383.742 298.897Z" fill="#DCF0FF"/>
<path opacity="0.5" d="M337.021 266.667C338.7 271.134 341.04 275.406 344.045 279.331L433.395 248.426C433.328 243.595 432.559 238.775 431.096 234.127L337.021 266.667Z" fill="white"/>
<path opacity="0.5" d="M333.943 252.41C334.129 255.235 334.556 258.045 335.222 260.81L428.895 228.41C427.727 225.855 426.336 223.38 424.714 221.014L333.943 252.41Z" fill="white"/>
<path d="M423.893 208.136C401.259 185.891 364.877 186.207 342.632 208.842C320.387 231.476 320.703 267.858 343.338 290.103C365.972 312.348 402.354 312.032 424.599 289.397C446.844 266.762 446.528 230.38 423.893 208.136ZM350.446 282.87C331.806 264.551 331.546 234.59 349.865 215.949C368.184 197.309 398.145 197.049 416.785 215.368C435.425 233.687 435.685 263.648 417.366 282.289C399.048 300.929 369.086 301.189 350.446 282.87Z" fill="#FF7129"/>
<path d="M343.105 299.39L298.277 345.003" stroke="white" stroke-miterlimit="10" stroke-linecap="round" stroke-linejoin="round"/>
<path d="M387.736 195.786C373.612 194.361 358.969 199.236 348.517 208.842C338.065 218.449 331.976 232.63 332.208 246.824" stroke="white" stroke-miterlimit="10" stroke-linecap="round" stroke-linejoin="round"/>
<defs>
<filter id="filter0_d_2184_136" x="159.737" y="67.855" width="163.171" height="139.156" filterUnits="userSpaceOnUse" color-interpolation-filters="sRGB">
<feFlood flood-opacity="0" result="BackgroundImageFix"/>
<feColorMatrix in="SourceAlpha" type="matrix" values="0 0 0 0 0 0 0 0 0 0 0 0 0 0 0 0 0 0 127 0" result="hardAlpha"/>
<feOffset/>
<feGaussianBlur stdDeviation="2"/>
<feComposite in2="hardAlpha" operator="out"/>
<feColorMatrix type="matrix" values="0 0 0 0 0 0 0 0 0 0 0 0 0 0 0 0 0 0 0.25 0"/>
<feBlend mode="normal" in2="BackgroundImageFix" result="effect1_dropShadow_2184_136"/>
<feBlend mode="normal" in="SourceGraphic" in2="effect1_dropShadow_2184_136" result="shape"/>
</filter>
<filter id="filter1_d_2184_136" x="292.874" y="111.777" width="93.1514" height="114.816" filterUnits="userSpaceOnUse" color-interpolation-filters="sRGB">
<feFlood flood-opacity="0" result="BackgroundImageFix"/>
<feColorMatrix in="SourceAlpha" type="matrix" values="0 0 0 0 0 0 0 0 0 0 0 0 0 0 0 0 0 0 127 0" result="hardAlpha"/>
<feOffset/>
<feGaussianBlur stdDeviation="2"/>
<feComposite in2="hardAlpha" operator="out"/>
<feColorMatrix type="matrix" values="0 0 0 0 0 0 0 0 0 0 0 0 0 0 0 0 0 0 0.25 0"/>
<feBlend mode="normal" in2="BackgroundImageFix" result="effect1_dropShadow_2184_136"/>
<feBlend mode="normal" in="SourceGraphic" in2="effect1_dropShadow_2184_136" result="shape"/>
</filter>
</defs>
</svg>
