<svg width="1921" height="1081" viewBox="0 0 1921 1081" fill="none" xmlns="http://www.w3.org/2000/svg">
<path d="M1920.34 0.269531H0.339844V1080.27H1920.34V0.269531Z" fill="#F9F3E6"/>
<mask id="mask0_1251_1639" style="mask-type:luminance" maskUnits="userSpaceOnUse" x="0" y="0" width="1921" height="1081">
<path d="M1920.34 0.269531H0.339844V1080.27H1920.34V0.269531Z" fill="white"/>
</mask>
<g mask="url(#mask0_1251_1639)">
<path d="M1369.92 430.4C1251.46 430.4 1155.43 526.43 1155.43 644.89C1155.43 763.35 1251.46 859.38 1369.92 859.38C1488.38 859.38 1584.41 763.35 1584.41 644.89C1584.41 526.43 1488.38 430.4 1369.92 430.4ZM1369.92 807.64C1280.03 807.64 1207.16 734.77 1207.16 644.88C1207.16 554.99 1280.03 482.12 1369.92 482.12C1459.81 482.12 1532.68 554.99 1532.68 644.88C1532.68 734.77 1459.81 807.64 1369.92 807.64Z" fill="#F5DC6F"/>
<path d="M1597.25 779.53L1622.55 747.78L1631.32 1102.8L1606.02 1134.56L1597.25 779.53Z" fill="#AA7F4A"/>
<path d="M1892.72 779.53L1918.02 747.78L1927.13 1102.8L1901.83 1134.56L1892.72 779.53Z" fill="#AA7F4A"/>
<path d="M1927.13 1102.8L1898.6 1010.46L1901.83 1134.56L1927.13 1102.8Z" fill="#9C6D3A"/>
<path d="M1918.02 747.78L1901.61 770.83L1885.19 747.78L1868.78 770.83L1852.36 747.78L1835.95 770.83L1819.53 747.78L1803.12 770.83L1786.7 747.78L1770.29 770.83L1753.87 747.78L1737.46 770.83L1721.04 747.78L1704.63 770.83L1688.21 747.78L1671.8 770.83L1655.38 747.78L1638.97 770.83L1622.55 747.78L1609.39 1102.8H1927.13L1918.02 747.78Z" fill="#C8A16D"/>
<path d="M1812.23 602C1803.63 594.53 1791.1 601.26 1795.68 610.84C1813.47 648.1 1816.17 689.32 1799.59 725.92C1783.01 762.52 1750.24 787.66 1710.49 798.86C1700.27 801.74 1703.47 815.59 1714.76 817.13C1775.31 825.4 1832.55 800.53 1854.98 751.02C1877.41 701.51 1858.38 642.08 1812.24 602H1812.23Z" fill="#DDBE32"/>
<path d="M1812.23 602C1808.69 598.92 1804.48 598.26 1801.07 599.21C1825.82 638.47 1843.05 679.05 1832.04 725.1C1820.95 776.85 1774.09 813.19 1723.85 818.1C1780.97 822.81 1833.67 798.03 1854.98 751.01C1877.41 701.5 1858.38 642.07 1812.24 601.99L1812.23 602Z" fill="#D0A127"/>
<path d="M1812.24 618.41C1815.88 616.29 1818.6 613.24 1820.49 609.66C1817.84 607.04 1815.09 604.48 1812.23 601.99C1803.63 594.52 1791.1 601.25 1795.68 610.83C1797.02 613.64 1798.26 616.47 1799.43 619.32C1803.3 621.37 1807.68 621.6 1812.24 618.4V618.41Z" fill="#8F411D"/>
<path d="M1808.74 629.401C1810.4 634.741 1811.98 640.121 1813.37 645.531C1814.05 648.161 1814.65 650.811 1815.24 653.471C1815.55 654.871 1815.92 656.261 1816.25 657.651C1816.58 659.041 1816.79 660.491 1817.29 661.821C1817.55 662.511 1818.57 662.381 1818.58 661.611C1818.63 658.981 1817.94 656.121 1817.45 653.541C1816.92 650.721 1816.2 647.911 1815.49 645.131C1814.08 639.611 1812.42 634.211 1810.43 628.881C1810.03 627.801 1808.37 628.281 1808.72 629.401H1808.74Z" fill="white"/>
<path d="M1819.01 671.82C1818.88 673.77 1818.66 675.74 1818.69 677.7C1818.69 677.89 1818.99 677.93 1819.03 677.74C1819.34 675.78 1819.42 673.79 1819.57 671.81C1819.6 671.45 1819.04 671.47 1819.02 671.82H1819.01Z" fill="white"/>
<path d="M1812.99 689.09H1736.17L1774.58 617.15L1812.99 689.09Z" fill="#89B9EF"/>
<mask id="mask1_1251_1639" style="mask-type:luminance" maskUnits="userSpaceOnUse" x="1736" y="689" width="77" height="237">
<path d="M1813 689.091H1736.17V925.111H1813V689.091Z" fill="white"/>
</mask>
<g mask="url(#mask1_1251_1639)">
<path d="M1813 689.091H1736.17V925.111H1813V689.091Z" fill="#6D9FD2"/>
<path d="M1763.3 943.35C1752.86 935.05 1748.22 920.13 1752.11 907.36C1753.31 903.43 1755.41 899.53 1758.97 897.48C1764.61 894.23 1772.86 896.11 1777.08 891.16C1780.12 887.59 1779.39 882.31 1779.74 877.64C1780.27 870.41 1783.93 863.46 1789.58 858.92C1793 856.18 1797.03 854.33 1800.69 851.93C1809.95 845.87 1816.74 836.14 1819.24 825.36L1823.21 937.69L1763.31 943.35H1763.3Z" fill="#DCE7F7"/>
<path d="M1802.27 668.721C1805.6 673.081 1809 677.551 1810.71 682.771C1812.42 687.991 1812.18 694.181 1808.69 698.421C1804.71 703.271 1797.86 704.341 1791.69 705.441C1785.51 706.541 1778.62 708.601 1775.87 714.241C1773.9 718.281 1774.66 723.041 1774.77 727.541C1774.88 732.041 1773.83 737.241 1769.87 739.371C1768.6 740.051 1767.13 740.351 1766.01 741.261C1762.99 743.721 1764.4 748.491 1765.64 752.181C1769.68 764.231 1768.63 778.271 1761.35 788.691C1754.07 799.111 1740.2 805.011 1727.99 801.491V681.461L1802.28 668.731L1802.27 668.721Z" fill="#DCE7F7"/>
</g>
<path d="M1797.31 689.09H1736.17L1766.74 631.83L1797.31 689.09Z" fill="#588FC2"/>
<path d="M1774.58 617.15L1736.17 689.09H1630.47L1668.88 617.15H1774.58Z" fill="#ACD6FC"/>
<mask id="mask2_1251_1639" style="mask-type:luminance" maskUnits="userSpaceOnUse" x="1630" y="617" width="145" height="73">
<path d="M1774.58 617.15L1736.17 689.09H1630.47L1668.88 617.15H1774.58Z" fill="white"/>
</mask>
<g mask="url(#mask2_1251_1639)">
<path d="M1632.26 655.56C1634.67 660.73 1640.1 664.351 1645.79 664.581C1651.49 664.811 1657.19 661.65 1660.01 656.69C1661.83 653.49 1662.51 649.68 1664.69 646.73C1667.93 642.34 1673.82 640.761 1679.27 640.711C1684.73 640.671 1690.14 641.87 1695.59 641.73C1708.9 641.4 1721.57 632.3 1726.14 619.79C1727.84 615.13 1728.15 609.14 1724.34 605.97L1658.03 601.521L1632.25 655.56H1632.26Z" fill="white"/>
</g>
<mask id="mask3_1251_1639" style="mask-type:luminance" maskUnits="userSpaceOnUse" x="1630" y="689" width="107" height="237">
<path d="M1736.17 689.091H1630.47V925.111H1736.17V689.091Z" fill="white"/>
</mask>
<g mask="url(#mask3_1251_1639)">
<path d="M1736.17 689.091H1630.47V925.111H1736.17V689.091Z" fill="#89B9EF"/>
<path d="M1687.06 674.23C1683.73 678.59 1680.33 683.061 1678.62 688.281C1676.91 693.501 1677.15 699.69 1680.64 703.93C1684.62 708.78 1691.47 709.851 1697.64 710.951C1703.82 712.051 1710.71 714.11 1713.46 719.75C1715.43 723.79 1714.67 728.55 1714.56 733.05C1714.45 737.55 1715.5 742.75 1719.46 744.88C1720.73 745.56 1722.21 745.861 1723.32 746.771C1726.34 749.231 1724.93 754 1723.69 757.69C1719.65 769.74 1720.7 783.781 1727.98 794.201C1735.26 804.621 1749.13 810.52 1761.34 807V686.97L1687.05 674.24L1687.06 674.23Z" fill="white"/>
<path d="M1615.83 865.821C1622.17 861.971 1630.86 863.831 1636.41 868.761C1641.96 873.691 1644.81 881.031 1646.11 888.331C1646.81 892.241 1647.13 896.241 1648.46 899.991C1649.78 903.731 1652.32 907.291 1656.05 908.661C1663.9 911.541 1673.37 903.821 1680.57 908.081C1685.11 910.761 1687.05 917.521 1692.27 918.221C1695.25 918.621 1698.06 916.741 1701.06 916.471C1705.49 916.071 1709.45 919.221 1712.28 922.651C1720.64 932.811 1723.01 948.821 1714.66 959.001H1619.36L1615.83 865.831V865.821Z" fill="white"/>
<path d="M1618.45 730.47C1622.87 724.4 1628.43 718.92 1635.32 715.93C1642.22 712.94 1650.6 712.77 1656.98 716.73C1666.3 722.52 1668.91 735.32 1666.65 746.06C1665.68 750.67 1663.79 755.4 1659.94 758.11C1657.17 760.06 1653.28 761.17 1652.28 764.41C1651.68 766.38 1652.41 768.47 1652.74 770.51C1653.83 777.37 1649.78 784.43 1643.84 788.04C1637.9 791.65 1630.46 792.17 1623.66 790.71C1616.87 789.25 1610.6 785.96 1604.67 782.35L1618.45 730.47Z" fill="white"/>
</g>
<mask id="mask4_1251_1639" style="mask-type:luminance" maskUnits="userSpaceOnUse" x="1668" y="598" width="107" height="20">
<path d="M1774.58 598.801H1668.88V617.151H1774.58V598.801Z" fill="white"/>
</mask>
<g mask="url(#mask4_1251_1639)">
<path d="M1774.58 598.801H1668.88V617.151H1774.58V598.801Z" fill="#89B9EF"/>
<path d="M1673.47 597.741C1672.85 602.021 1673.25 606.371 1673.56 610.661C1673.72 612.791 1673.98 614.921 1674.25 617.041C1674.49 618.951 1674.5 621.681 1675.99 623.081C1676.59 623.641 1677.53 623.481 1677.94 622.781C1678.95 621.031 1678.21 618.371 1677.99 616.481C1677.75 614.431 1677.56 612.381 1677.34 610.341C1676.89 606.121 1676.79 601.841 1675.91 597.691C1675.66 596.481 1673.65 596.521 1673.47 597.751V597.741Z" fill="white"/>
<path d="M1684.26 597.741C1683.64 602.021 1684.04 606.371 1684.35 610.661C1684.51 612.791 1684.77 614.921 1685.04 617.041C1685.28 618.951 1685.29 621.681 1686.78 623.081C1687.38 623.641 1688.32 623.481 1688.73 622.781C1689.74 621.031 1689 618.371 1688.78 616.481C1688.54 614.431 1688.35 612.381 1688.13 610.341C1687.68 606.121 1687.58 601.841 1686.7 597.691C1686.45 596.481 1684.44 596.521 1684.26 597.751V597.741Z" fill="white"/>
<path d="M1695.05 597.741C1694.43 602.021 1694.83 606.371 1695.14 610.661C1695.3 612.791 1695.56 614.921 1695.83 617.041C1696.07 618.951 1696.08 621.681 1697.57 623.081C1698.17 623.641 1699.11 623.481 1699.52 622.781C1700.53 621.031 1699.79 618.371 1699.57 616.481C1699.33 614.431 1699.14 612.381 1698.92 610.341C1698.47 606.121 1698.37 601.841 1697.49 597.691C1697.24 596.481 1695.23 596.521 1695.05 597.751V597.741Z" fill="white"/>
<path d="M1705.83 597.741C1705.21 602.021 1705.61 606.371 1705.92 610.661C1706.08 612.791 1706.34 614.921 1706.61 617.041C1706.85 618.951 1706.86 621.681 1708.35 623.081C1708.95 623.641 1709.89 623.481 1710.3 622.781C1711.31 621.031 1710.57 618.371 1710.35 616.481C1710.11 614.431 1709.92 612.381 1709.7 610.341C1709.25 606.121 1709.15 601.841 1708.27 597.691C1708.02 596.481 1706.01 596.521 1705.83 597.751V597.741Z" fill="white"/>
<path d="M1716.62 597.741C1716 602.021 1716.4 606.371 1716.71 610.661C1716.87 612.791 1717.13 614.921 1717.4 617.041C1717.64 618.951 1717.65 621.681 1719.14 623.081C1719.74 623.641 1720.68 623.481 1721.09 622.781C1722.1 621.031 1721.36 618.371 1721.14 616.481C1720.9 614.431 1720.71 612.381 1720.49 610.341C1720.04 606.121 1719.94 601.841 1719.06 597.691C1718.81 596.481 1716.8 596.521 1716.62 597.751V597.741Z" fill="white"/>
<path d="M1727.41 597.741C1726.79 602.021 1727.19 606.371 1727.5 610.661C1727.66 612.791 1727.92 614.921 1728.19 617.041C1728.43 618.951 1728.44 621.681 1729.93 623.081C1730.53 623.641 1731.47 623.481 1731.88 622.781C1732.89 621.031 1732.15 618.371 1731.93 616.481C1731.69 614.431 1731.5 612.381 1731.28 610.341C1730.83 606.121 1730.73 601.841 1729.85 597.691C1729.6 596.481 1727.59 596.521 1727.41 597.751V597.741Z" fill="white"/>
<path d="M1738.2 597.741C1737.58 602.021 1737.98 606.371 1738.29 610.661C1738.45 612.791 1738.71 614.921 1738.98 617.041C1739.22 618.951 1739.23 621.681 1740.72 623.081C1741.32 623.641 1742.26 623.481 1742.67 622.781C1743.68 621.031 1742.94 618.371 1742.72 616.481C1742.48 614.431 1742.29 612.381 1742.07 610.341C1741.62 606.121 1741.52 601.841 1740.64 597.691C1740.39 596.481 1738.38 596.521 1738.2 597.751V597.741Z" fill="white"/>
<path d="M1748.99 597.741C1748.37 602.021 1748.77 606.371 1749.08 610.661C1749.24 612.791 1749.5 614.921 1749.77 617.041C1750.01 618.951 1750.02 621.681 1751.51 623.081C1752.11 623.641 1753.05 623.481 1753.46 622.781C1754.47 621.031 1753.73 618.371 1753.51 616.481C1753.27 614.431 1753.08 612.381 1752.86 610.341C1752.41 606.121 1752.31 601.841 1751.43 597.691C1751.18 596.481 1749.17 596.521 1748.99 597.751V597.741Z" fill="white"/>
<path d="M1759.77 597.741C1759.15 602.021 1759.55 606.371 1759.86 610.661C1760.02 612.791 1760.28 614.921 1760.55 617.041C1760.79 618.951 1760.8 621.681 1762.29 623.081C1762.89 623.641 1763.83 623.481 1764.24 622.781C1765.25 621.031 1764.51 618.371 1764.29 616.481C1764.05 614.431 1763.86 612.381 1763.64 610.341C1763.19 606.121 1763.09 601.841 1762.21 597.691C1761.96 596.481 1759.95 596.521 1759.77 597.751V597.741Z" fill="white"/>
</g>
<path d="M1867.91 669.79L1861.92 652.98L1886.82 654.6L1878.61 670.521L1867.91 669.79Z" fill="#923D38"/>
<path d="M1861.88 652.791C1861.8 653.911 1867.33 655.201 1874.23 655.671C1881.13 656.141 1886.78 655.611 1886.85 654.491C1886.93 653.371 1881.4 652.081 1874.5 651.611C1867.6 651.141 1861.95 651.671 1861.88 652.791Z" fill="#782422"/>
<path d="M1765.82 877.1L1759.82 893.91L1741.57 876.901L1758 869.771L1765.82 877.1Z" fill="#923D38"/>
<path d="M1759.74 894.081C1760.51 893.261 1757.04 888.761 1752 884.041C1746.96 879.321 1742.24 876.151 1741.47 876.971C1740.7 877.791 1744.17 882.291 1749.21 887.011C1754.25 891.741 1758.97 894.901 1759.74 894.081Z" fill="#782422"/>
<path d="M1833.75 695.36C1826.42 726.5 1808.07 775.08 1762.18 817.12C1746.01 831.93 1743.86 856.64 1757.36 873.92C1772.21 892.93 1799.98 895.491 1818.11 879.571C1852.88 849.031 1900.7 791.35 1902.56 704.1C1902.93 686.69 1890.44 671.651 1873.25 668.881C1855.17 665.961 1837.95 677.54 1833.76 695.36H1833.75Z" fill="#A74D44"/>
<path opacity="0.88" d="M1873.25 668.871C1869.53 668.271 1865.85 668.291 1862.3 668.851C1920.87 680.051 1844.65 808.861 1806.33 835.831C1789.34 847.971 1764.07 844.531 1753.54 828.201C1745.83 842.491 1746.85 860.461 1757.37 873.921C1772.22 892.931 1799.99 895.491 1818.12 879.571C1852.89 849.031 1900.71 791.351 1902.57 704.101C1902.94 686.691 1890.45 671.651 1873.26 668.881L1873.25 668.871Z" fill="#923D38"/>
<path d="M1824.72 724.881C1817.22 744.721 1805.67 767.351 1787.9 789.601C1812.4 803.041 1834.49 821.921 1851.24 844.761C1868.62 822.841 1884.99 794.881 1894.4 760.621C1875.06 742.651 1850.35 730.031 1824.72 724.871V724.881Z" fill="#782422"/>
<path d="M1838.37 719.121C1839.87 713.091 1841.24 706.921 1843.27 701.031C1844.22 698.261 1845.3 695.481 1846.58 692.841C1847.86 690.201 1848.73 687.761 1850.92 685.911C1851.14 685.721 1850.85 685.391 1850.61 685.531C1848.46 686.791 1846.28 688.671 1845.05 690.861C1843.54 693.541 1842.44 696.491 1841.35 699.351C1840.17 702.421 1838.95 705.481 1838.04 708.641C1837.13 711.801 1836.42 715.141 1835.99 718.521C1835.79 720.071 1837.99 720.721 1838.39 719.121H1838.37Z" fill="white"/>
<path d="M1852.94 684.381C1853.03 684.331 1853.12 684.291 1853.22 684.241C1853.27 684.221 1853.31 684.201 1853.36 684.171C1853.47 684.121 1853.45 684.121 1853.31 684.171C1853.18 684.201 1853.16 684.211 1853.22 684.191C1853.5 684.161 1853.81 684.121 1854.06 684.011C1854.48 683.821 1854.87 683.501 1855.25 683.241C1855.68 682.951 1856.07 682.601 1856.47 682.271C1856.55 682.201 1856.63 682.141 1856.71 682.071C1856.85 681.941 1856.96 681.771 1857.06 681.601C1857.17 681.411 1857.27 681.211 1857.37 681.021C1857.58 680.621 1857.54 680.141 1857.25 679.791C1856.96 679.441 1856.51 679.281 1856.09 679.421C1855.9 679.491 1855.71 679.551 1855.52 679.621C1855.29 679.701 1855.07 679.801 1854.88 679.951C1854.75 680.051 1854.63 680.161 1854.51 680.271C1854.18 680.561 1853.85 680.851 1853.55 681.181C1853.25 681.511 1852.9 681.851 1852.62 682.221C1852.49 682.401 1852.42 682.601 1852.35 682.811C1852.33 682.881 1852.27 682.981 1852.27 683.051C1852.27 682.981 1852.33 682.941 1852.25 683.021C1852.21 683.061 1852.18 683.121 1852.14 683.171C1852.08 683.261 1852.01 683.351 1851.95 683.441C1851.78 683.681 1851.87 684.091 1852.08 684.281C1852.32 684.501 1852.63 684.511 1852.91 684.371L1852.94 684.381Z" fill="white"/>
<path d="M1892.72 779.53L1876.31 802.59L1859.89 779.53L1843.48 802.59L1827.06 779.53L1810.65 802.59L1794.23 779.53L1777.82 802.59L1761.4 779.53L1744.99 802.59L1728.57 779.53L1712.16 802.59L1695.74 779.53L1679.33 802.59L1662.91 779.53L1646.5 802.59L1630.08 779.53L1613.66 802.59L1597.25 779.53L1584.09 1134.56H1901.83L1892.72 779.53Z" fill="#E2CDA8"/>
<path d="M1765.85 1022.75C1712.58 1060.35 1649.31 1074.87 1587.37 1068.62L1584.1 1134.56H1901.84L1894.09 836.78C1875.01 910.37 1832.72 976.72 1765.86 1022.75H1765.85Z" fill="#DBBC8B"/>
<path d="M1609.65 823.151C1608.96 829.891 1608.09 836.601 1607.51 843.361C1607.23 846.641 1607.06 849.941 1606.95 853.231C1606.89 854.951 1606.78 856.691 1606.83 858.411C1606.88 860.131 1606.9 861.911 1607.43 863.491C1607.8 864.601 1609.69 865.091 1610.2 863.791C1611.43 860.671 1611.26 856.931 1611.42 853.621C1611.58 850.311 1611.72 846.881 1611.79 843.511C1611.93 836.711 1611.96 829.871 1612.34 823.091C1612.44 821.321 1609.82 821.461 1609.65 823.161V823.151Z" fill="white"/>
<path d="M1606.6 871.391C1606.38 873.761 1606.17 876.131 1605.95 878.491C1605.84 879.651 1605.77 880.811 1605.71 881.971C1605.64 883.341 1605.31 884.851 1606.2 886.011C1606.95 886.991 1608.29 887.301 1609.23 886.331C1609.6 885.951 1609.96 885.551 1610.07 885.011C1610.14 884.641 1610.15 884.241 1610.18 883.861C1610.22 883.241 1610.26 882.611 1610.3 881.981C1610.37 880.821 1610.44 879.661 1610.46 878.501C1610.51 876.091 1610.56 873.681 1610.61 871.271C1610.63 870.181 1609.61 869.271 1608.56 869.301C1607.36 869.331 1606.7 870.291 1606.61 871.371L1606.6 871.391Z" fill="white"/>
<path d="M1892.89 779.53L1918.19 747.78L1926.96 1102.8L1901.66 1134.56L1892.89 779.53Z" fill="#AA7F4A"/>
<path d="M1668.88 617.151C1660.34 635.681 1651.11 653.871 1641.72 671.981C1638.61 678.021 1635.39 684.011 1632.23 690.021L1632.47 689.081C1632.47 705.961 1632.28 726.411 1631.82 743.161C1631.51 753.611 1631.12 765.211 1630.47 775.611C1629.81 765.231 1629.44 753.621 1629.12 743.161C1628.64 726.261 1628.48 705.601 1628.47 688.571C1641.44 664.481 1654.63 640.501 1668.89 617.141L1668.88 617.151Z" fill="#7E312F"/>
<path d="M1603.31 402.49C1603.31 402.49 1611.43 378.54 1594.8 355.38C1578.17 332.22 1348.64 186.32 1282.57 378.94C1282.57 378.94 1487.26 465.21 1568.05 446.52L1603.31 402.5V402.49Z" fill="#3D1D18"/>
<path d="M1598.96 458.639L1532.52 450.899L1523.41 541.809C1523.41 541.809 1588.27 537.889 1598.96 458.639Z" fill="#3D1D18"/>
<path d="M1472.3 726.93L1660.58 765.05L1721.72 902.37C1721.72 902.37 1612.81 937.91 1497.59 867.66C1382.38 797.41 1472.3 726.94 1472.3 726.94V726.93Z" fill="white"/>
<path d="M1722.4 493.28L1660.58 765.05C1660.58 765.05 1640.54 862.91 1703.03 898.8C1714.51 905.39 1729.03 903.38 1738.43 894.06C1755.46 877.17 1779.48 842.7 1775.8 784.76C1770.18 696.24 1778.11 485.85 1778.11 485.85L1722.4 493.29V493.28Z" fill="#DA9A85"/>
<path d="M1262.62 745.79C1262.62 745.79 1198.49 727.14 1159.29 854.25C1120.09 981.36 1149.19 1134.56 1149.19 1134.56H1216.12L1262.61 745.79H1262.62Z" fill="white"/>
<path d="M1225.29 1057.94L1216.13 1134.55H1149.2C1149.2 1134.55 1142.02 1096.76 1139.6 1043.15C1166.5 1058.04 1196.4 1065.24 1225.29 1057.94Z" fill="#DA9A85"/>
<path d="M1462.45 710.71C1462.45 710.71 1395.6 689.61 1342.14 710.71C1342.14 710.71 1338.04 765.96 1405.41 774.86C1472.78 783.77 1462.44 710.71 1462.44 710.71H1462.45Z" fill="#DEDEDE"/>
<path d="M1320.18 734.51C1342.5 722.62 1363.69 706.92 1364.21 690C1365.32 653.99 1364.21 621.68 1364.21 621.68H1440.67C1440.67 621.68 1439.56 653.99 1440.67 690C1441.28 709.89 1470.44 728.08 1496.44 740.39C1471.39 769.5 1369.45 793.18 1320.18 734.51Z" fill="#DA9A85"/>
<path d="M1440.62 688.37C1439.59 653.02 1440.67 621.68 1440.67 621.68H1364.21C1364.21 621.68 1365.32 653.99 1364.21 690C1364.1 693.72 1362.97 697.39 1361.06 700.96C1386.48 715.07 1421.04 710.87 1440.62 688.36V688.37Z" fill="#BE7564"/>
<path d="M1289.99 525.82C1289.99 525.82 1278.15 467.79 1236.54 475.32C1194.92 482.85 1211.07 584.38 1286.77 575.41L1290 525.82H1289.99Z" fill="#DA9A85"/>
<path d="M1251.79 475.58C1277.43 566.92 1247.35 564.84 1245.19 567.31C1256.14 573.95 1269.98 577.4 1286.76 575.41L1289.99 525.82C1289.99 525.82 1281.11 482.43 1251.79 475.58Z" fill="#BE7564"/>
<path d="M1232.05 506.94C1247.44 506.42 1260.38 518.52 1263.97 533.04C1265.35 538.58 1265.8 544.39 1265.05 549.99C1264.02 545.08 1262.94 540.3 1261.34 535.76C1256.88 521.78 1246.34 510.98 1232.04 506.94H1232.05Z" fill="#7E312F"/>
<path d="M1258.54 523.95C1252.27 525.1 1248.02 528.25 1248.41 535.04C1248.47 536.97 1248.78 538.93 1249.06 540.97C1243.71 532.45 1247.47 522.19 1258.54 523.95Z" fill="#7E312F"/>
<path d="M1510.11 525.82C1510.11 525.82 1521.95 467.79 1563.56 475.32C1605.18 482.85 1589.03 584.38 1513.33 575.41L1510.1 525.82H1510.11Z" fill="#DA9A85"/>
<path d="M1548.31 475.58C1522.66 566.92 1552.75 564.84 1554.91 567.31C1543.96 573.95 1530.12 577.4 1513.34 575.41L1510.11 525.82C1510.11 525.82 1518.99 482.43 1548.31 475.58Z" fill="#BE7564"/>
<path d="M1568.05 506.94C1553.75 510.98 1543.22 521.78 1538.75 535.76C1537.15 540.3 1536.08 545.08 1535.04 549.99C1534.29 544.4 1534.74 538.59 1536.12 533.04C1539.71 518.52 1552.66 506.41 1568.04 506.94H1568.05Z" fill="#7E312F"/>
<path d="M1541.56 523.95C1552.64 522.19 1556.38 532.46 1551.04 540.97C1551.32 538.94 1551.63 536.97 1551.69 535.04C1552.08 528.24 1547.82 525.1 1541.56 523.95Z" fill="#7E312F"/>
<path d="M1526.67 481.05C1528.71 285.5 1266.31 285.61 1268.37 481.05C1268.77 611.13 1303.97 656.82 1368.36 669.13C1387.69 672.83 1407.61 672.82 1426.93 669.09C1491.15 656.7 1526.27 610.95 1526.67 481.05Z" fill="#DA9A85"/>
<path d="M1456.03 581.61C1471.58 581.61 1484.19 571.03 1484.19 557.98C1484.19 544.929 1471.58 534.35 1456.03 534.35C1440.48 534.35 1427.87 544.929 1427.87 557.98C1427.87 571.03 1440.48 581.61 1456.03 581.61Z" fill="#D97E6C"/>
<path d="M1324.73 581.61C1340.28 581.61 1352.89 571.03 1352.89 557.98C1352.89 544.929 1340.28 534.35 1324.73 534.35C1309.18 534.35 1296.57 544.929 1296.57 557.98C1296.57 571.03 1309.18 581.61 1324.73 581.61Z" fill="#D97E6C"/>
<path d="M1427.94 516.84C1427.94 524.26 1430.64 530.28 1433.97 530.28C1437.3 530.28 1440 524.26 1440 516.84C1440 509.42 1437.3 503.4 1433.97 503.4C1430.64 503.4 1427.94 509.42 1427.94 516.84Z" fill="#3D1D18"/>
<path d="M1341.48 516.84C1341.48 524.26 1344.18 530.28 1347.51 530.28C1350.84 530.28 1353.54 524.26 1353.54 516.84C1353.54 509.42 1350.84 503.4 1347.51 503.4C1344.18 503.4 1341.48 509.42 1341.48 516.84Z" fill="#3D1D18"/>
<path d="M1268.4 485.84C1270.66 536.38 1275.45 605.36 1314.56 641.73C1344.01 668.22 1387.86 674.02 1425.88 667.69C1453.34 663.18 1479.56 649.88 1495.65 626.61C1497.81 623.72 1500.3 619.66 1502.18 616.57C1494.96 630.82 1484.43 643.6 1471.15 652.87C1432.33 679 1372.99 680.12 1331.78 658.77C1273.03 627.75 1267.99 544.88 1268.4 485.83V485.84Z" fill="#7E312F"/>
<path d="M1462.24 496.36C1462.24 496.36 1450.2 478.66 1418.19 479.31C1418.19 479.31 1422.74 460.78 1443.7 468.36C1459.29 474 1465.67 489.39 1462.24 496.36Z" fill="#3D1D18"/>
<path d="M1306.56 496.36C1306.56 496.36 1318.6 478.66 1350.61 479.31C1350.61 479.31 1346.06 460.78 1325.1 468.36C1309.51 474 1303.13 489.39 1306.56 496.36Z" fill="#3D1D18"/>
<path d="M1378.6 490.52C1379.33 503.33 1379.82 517.4 1380.23 530.27L1380.25 530.81L1379.82 531.24C1374.52 536.49 1369.23 541.78 1364.15 547.24C1362.09 549.55 1359.82 551.76 1358.28 554.34C1358.27 554.34 1358.28 554.46 1358.32 554.1C1358.32 553.96 1358.3 553.82 1358.27 553.68C1358.19 553.31 1357.81 552.8 1357.45 552.66C1358.51 552.93 1359.82 553.04 1361.1 553.17C1369.16 553.87 1377.32 554.23 1385.42 554.56L1385.32 556.57C1384.85 566.46 1384.22 576.35 1383.68 586.23L1382.04 584.22C1401.66 586.48 1423.15 585.01 1440.23 574.22C1445.83 570.55 1450.72 565.71 1454.35 559.93C1451.3 566.02 1446.71 571.41 1441.15 575.53C1427.1 585.89 1408.99 588.88 1391.89 588.7C1387.88 588.65 1383.8 588.37 1379.74 587.82C1380.29 577.33 1380.74 566.84 1381.35 556.35L1383.25 558.44C1378.24 558.2 1373.25 557.92 1368.24 557.57C1364.34 557.25 1360.68 557.07 1356.75 556.26C1356.31 556.15 1355.72 555.95 1355.32 555.58C1354.86 555.16 1354.62 554.53 1354.66 553.94C1354.82 552.4 1355.74 551.59 1356.51 550.51C1363.18 542.74 1370.57 536.18 1378.02 529.3L1377.6 530.27C1377.8 517.39 1378.08 503.33 1378.6 490.49V490.52Z" fill="#7E312F"/>
<path d="M1379.55 608.24C1386.12 609.88 1392.74 609.65 1399.33 608.24C1393.59 612.07 1385.24 612.27 1379.55 608.24Z" fill="#7E312F"/>
<path d="M1342.14 710.71C1342.14 710.71 1343.07 766.24 1402.29 766.24C1461.51 766.24 1462.44 710.71 1462.44 710.71L1571.64 727.37V1134.56H1232.93V727.37L1342.13 710.71H1342.14Z" fill="white"/>
<path d="M1329.22 712.68C1317.85 801.17 1313.14 1071.2 1408.31 1071.2C1496.44 1071.2 1485.02 805.56 1462.46 710.71L1571.64 727.37V1134.56H1232.93V727.37L1329.2 712.68H1329.22Z" fill="#D6D6D6"/>
<path d="M1463.02 710.71C1463.02 710.71 1500.96 778.27 1500.96 936.51C1500.96 1094.75 1497.26 1134.55 1497.26 1134.55H1599.06C1599.06 1134.55 1630.52 794.92 1572.22 727.36C1544.16 710.52 1511.17 703.84 1478.77 708.46L1463.02 710.7V710.71Z" fill="#CA3131"/>
<path d="M1586.89 903.34H1512.77C1507.99 903.34 1504.11 899.46 1504.11 894.68V862.91C1504.11 858.13 1507.99 854.25 1512.77 854.25H1586.89C1591.67 854.25 1595.55 858.13 1595.55 862.91V894.68C1595.55 899.46 1591.67 903.34 1586.89 903.34Z" fill="white"/>
<path d="M1716.16 538.979C1709.1 538.029 1703.46 533.24 1699.04 527.82C1692.57 519.89 1687.84 510.78 1683.58 501.49C1679.48 492.53 1673.79 485.44 1665.92 479.45C1662.13 476.53 1658.06 473.949 1653.96 471.479C1650.89 469.649 1647.61 467.91 1645.38 465.02C1640.93 459.19 1643.63 452.84 1650.04 450.19C1656.92 447.33 1664.83 447.73 1671.9 449.63C1679.97 451.84 1686.33 456.64 1693.69 460.33C1694.01 460.49 1694.37 460.6 1694.72 460.75C1694.5 454.05 1694.63 447.34 1694.09 440.62C1693.59 434.04 1692.65 427.519 1691.49 421.039C1690.43 415.249 1689.15 409.53 1687.73 403.84C1686.12 397.34 1683.99 390.9 1683.28 384.21C1682.84 379.96 1682.73 373.83 1686.71 371C1690.42 368.39 1694.71 371.18 1697.5 373.81C1701.31 377.44 1703.91 382.08 1706.12 386.79C1708.92 392.73 1711.52 398.77 1714.18 404.79C1717.75 413.01 1721.27 421.29 1724.71 429.56C1724.23 424.77 1724.5 419.73 1724.5 415.09C1724.52 407.69 1724.8 400.26 1725.29 392.86C1726.07 381.34 1726.39 368.5 1730.85 357.72C1732.48 353.75 1735.94 351.32 1740 353.75C1743.75 356.04 1745.84 360.37 1747.37 364.3C1752.22 376.48 1758.58 426.38 1760.28 434.69C1761.44 430.04 1764.37 418.5 1765.57 413.87C1767.09 408.04 1768.49 402.16 1770.12 396.37C1771.55 391.16 1773.27 386.04 1775.4 381.07C1777 377.43 1779.18 371.84 1783.12 370.12C1786.67 368.57 1790.27 371.34 1792.14 374.19C1794.88 378.25 1795.95 383.6 1796.75 388.33C1798.59 399.23 1797.17 410.1 1795.54 420.9C1794.18 429.88 1793 438.93 1791.48 447.89C1793.59 445.56 1796.11 443.59 1798.62 441.65C1802.5 438.59 1806.56 435.79 1810.77 433.2C1816.38 429.74 1824.08 424.71 1830.25 429.84C1836.04 434.68 1834.38 442.75 1830.49 448.13C1825.97 454.42 1819.41 459.37 1813.91 464.75C1811.03 467.56 1808.24 470.43 1805.63 473.49C1803.05 476.48 1801.06 480.08 1798.4 482.95C1798.32 483.05 1798.23 483.059 1798.13 483.099C1796.83 491.549 1794.66 499.92 1791.24 507.78C1789.3 512.23 1787.06 516.55 1784.51 520.69C1782.14 524.54 1779.66 528.559 1775.97 531.219" fill="#DA9A85"/>
<path d="M1693.57 461.069C1699.02 462.959 1704.3 462.539 1709.99 463.009C1721.71 463.979 1732.6 472.649 1735.94 483.969C1737.67 489.539 1737.74 495.589 1735.91 500.919C1736.07 495.309 1735.07 489.919 1732.99 485.049C1728.8 475.309 1719.89 468.229 1709.52 466.099C1704.19 465.089 1698.12 464.449 1693.56 461.069H1693.57Z" fill="#7E312F"/>
<path d="M1711.67 435.239C1737.87 434.859 1765.21 443.039 1786.87 457.789C1774.57 453.069 1762.39 448.469 1749.8 444.749C1737.24 440.919 1724.54 438.059 1711.67 435.239Z" fill="#7E312F"/>
<path d="M1607.07 907.89C1646.11 911.65 1688.25 911.83 1725.08 899.63C1747.49 886.93 1761.71 863 1769.15 838.91C1772.62 827.62 1774.75 815.94 1775.99 804.15C1775.7 821.99 1772.5 840.03 1765.69 856.59C1757.7 875.47 1744.89 893.31 1726.61 903.33C1689.59 915.81 1645.2 914.9 1607.07 907.89Z" fill="#7E312F"/>
<path d="M1660.58 765.05C1657.83 799 1658.41 838.83 1674.8 869.44C1679.17 877.4 1684.8 884.58 1691.53 890.77C1686.84 887.61 1682.59 883.76 1678.8 879.48C1653.79 849.75 1652.38 801.43 1660.58 765.06V765.05Z" fill="#7E312F"/>
<path d="M1342.14 710.71C1342.14 710.71 1304.2 778.27 1304.2 936.51C1304.2 1094.75 1307.9 1134.55 1307.9 1134.55H1206.1C1206.1 1134.55 1174.64 794.92 1232.94 727.36C1261 710.52 1293.99 703.84 1326.39 708.46L1342.14 710.7V710.71Z" fill="#CA3131"/>
<path d="M1563.57 475.32C1563.57 475.32 1528.62 473.57 1523.41 540.97C1523.41 540.97 1447.42 512.17 1473.11 359.14C1473.11 359.14 1581.51 378.78 1563.57 475.31V475.32Z" fill="#3D1D18"/>
<path d="M1316.87 363.14C1316.87 363.14 1263.98 451.09 1270.13 525.77C1270.13 525.77 1245.37 522.53 1248.55 445.88C1251.73 369.23 1316.87 363.14 1316.87 363.14Z" fill="#3D1D18"/>
<path d="M1560.33 456.419L1598.96 458.639L1603.31 402.489L1484.19 397.619L1560.33 456.419Z" fill="#CA3131"/>
<path d="M1383.42 360.12C1383.42 360.12 1278.84 361.96 1248.56 466.54C1248.56 466.54 1186.61 398.15 1247.62 347.45C1306.15 298.82 1383.42 360.11 1383.42 360.11V360.12Z" fill="#9E1C1C"/>
<path d="M1560.33 456.419L1464.01 452.979C1464.01 452.979 1418.58 454.859 1405.39 413.579C1392.2 372.309 1290.6 310.869 1247.61 347.449C1247.61 347.449 1275.45 319.779 1359.47 315.559C1443.49 311.339 1558.37 354.639 1560.33 456.409V456.419Z" fill="#CA3131"/>
<path d="M1141.02 693.02H903.13V1036.55H1141.02V693.02Z" fill="#5F8CD9"/>
<path d="M1212.1 693.02H1141.02V1036.55H1212.1V693.02Z" fill="#4671B7"/>
<path d="M1113.78 715.119H932.689V928.009H1113.78V715.119Z" fill="white"/>
<path d="M1113.78 946.659H932.689V1004.31H1113.78V946.659Z" fill="#DDBE32"/>
<path d="M1204.09 715.119H1149.93V803.539H1204.09V715.119Z" fill="#DDBE32"/>
<path d="M1204.09 868.619H1149.93V957.039H1204.09V868.619Z" fill="#DDBE32"/>
<path d="M1204.09 820.31H1149.93V854.71H1204.09V820.31Z" fill="#DDBE32"/>
<path d="M1204.09 969.909H1149.93V1004.31H1204.09V969.909Z" fill="#DDBE32"/>
<path d="M903.13 887.33V693.02H1141.02L907.84 697.76L903.13 887.33Z" fill="#79ABF5"/>
<path d="M914.45 708.94C914.15 717.03 913.58 725.09 913.41 733.18C913.32 737.16 913.04 741.19 913.24 745.17C913.34 747.16 913.36 749.16 913.4 751.16C913.44 752.99 913.75 755.38 914.6 757.01C915.04 757.86 916.35 757.76 916.76 756.96C917.59 755.37 917.85 753.08 917.94 751.3C918.03 749.3 918 747.3 918.11 745.3C918.33 741.24 918.06 737.13 917.98 733.07C917.83 724.99 917.28 716.95 917.01 708.88C916.95 707.21 914.52 707.3 914.46 708.94H914.45Z" fill="white"/>
<path d="M913.51 762.859C912.93 765.499 912.47 768.249 912.51 770.959C912.53 772.269 912.62 773.579 912.74 774.879C912.88 776.329 912.96 777.739 913.61 779.059C914.16 780.179 915.91 779.779 916.17 778.659C916.47 777.379 916.29 776.099 916.26 774.799C916.23 773.499 916.26 772.179 916.32 770.869C916.42 768.319 916.4 765.759 916.58 763.209C916.71 761.429 913.89 761.159 913.51 762.869V762.859Z" fill="white"/>
<path d="M1096.28 1008.25L1065.16 1075.39C1062.44 1081.26 1080.6 1095.46 1105.72 1107.1C1130.84 1118.74 1153.41 1123.43 1156.13 1117.56L1187.25 1050.42L1096.28 1008.25Z" fill="#86B568"/>
<path d="M1170.99 847.089L1096.28 1008.25C1093.56 1014.12 1111.72 1028.32 1136.84 1039.96C1161.96 1051.6 1184.53 1056.29 1187.25 1050.42L1261.96 889.259L1170.99 847.089Z" fill="#547939"/>
<path d="M1239.1 878.659C1187.7 1009.87 1130.57 1004.47 1107.38 984.309L1096.28 1008.25C1093.56 1014.12 1111.72 1028.32 1136.84 1039.96C1161.96 1051.6 1184.53 1056.29 1187.25 1050.42L1261.96 889.259L1239.1 878.669V878.659Z" fill="#416028"/>
<path d="M1262.2 888.26C1275.97 865.41 1242.69 855.01 1262.88 811.45C1283.33 767.34 1285.87 761.86 1285.87 761.86L1252.49 746.39C1252.49 746.39 1249.95 751.86 1229.5 795.98C1209.05 840.09 1179.09 820.34 1170.99 847.1C1168.27 852.97 1186.43 867.17 1211.55 878.81C1236.67 890.45 1259.24 895.14 1261.96 889.27C1262.1 888.96 1262.18 888.62 1262.21 888.27L1262.2 888.26Z" fill="#86B568"/>
<path d="M1249.91 745.949C1248.67 748.629 1256.15 754.739 1266.62 759.589C1277.09 764.439 1286.58 766.199 1287.83 763.519C1289.07 760.839 1281.59 754.729 1271.12 749.879C1260.65 745.029 1251.16 743.269 1249.91 745.949Z" fill="#8F411D"/>
<path d="M1264.03 715.503L1249.91 745.951L1287.83 763.526L1301.94 733.079L1264.03 715.503Z" fill="#8F411D"/>
<path d="M1264.03 715.499C1262.79 718.179 1270.27 724.289 1280.74 729.139C1291.21 733.989 1300.7 735.749 1301.95 733.069C1303.19 730.389 1295.71 724.279 1285.24 719.429C1274.77 714.579 1265.28 712.819 1264.03 715.499Z" fill="#B46639"/>
<path d="M1096.28 1008.25L1170.39 848.369C1170.39 848.369 1120.78 999.609 1096.28 1008.25Z" fill="#416028"/>
<path d="M1180.68 848.61C1182.26 845.57 1185.07 843.29 1188.11 841.8C1189.86 840.94 1191.75 840.31 1193.63 839.77C1194.13 839.63 1194.65 839.52 1195.13 839.36C1195.58 839.21 1195.96 838.94 1196.4 838.75C1197.32 838.35 1198.48 838.15 1199.19 837.4C1199.71 836.85 1199.38 836.09 1198.74 835.85C1197.74 835.48 1196.48 835.91 1195.44 835.94C1194.27 835.98 1193.25 836.24 1192.13 836.58C1190 837.23 1187.92 838.05 1186 839.18C1182.59 841.18 1179.88 843.99 1178.55 847.75C1178.11 849 1180.08 849.76 1180.68 848.6V848.61Z" fill="white"/>
<path d="M1204.54 835.879C1205.55 835.329 1206.56 834.789 1207.58 834.239C1208.09 833.969 1208.6 833.709 1209.09 833.409C1209.34 833.259 1209.59 833.119 1209.83 832.969C1210.35 832.639 1210.59 832.199 1210.75 831.619C1210.93 830.969 1210.48 830.059 1209.76 829.959C1209.17 829.879 1208.66 829.849 1208.14 830.209C1207.9 830.369 1207.68 830.549 1207.44 830.719C1206.98 831.069 1206.53 831.439 1206.09 831.809C1205.19 832.539 1204.29 833.269 1203.39 833.999C1203.16 834.189 1202.98 834.369 1202.9 834.669C1202.83 834.939 1202.88 835.289 1203.03 835.519C1203.38 836.039 1204 836.169 1204.54 835.879Z" fill="white"/>
<path d="M982.7 740.569C906.3 740.569 884.48 790.879 890.6 810.579C896.58 829.809 915.09 826.289 915.09 826.289L918.27 903.969C918.58 911.429 924.72 917.329 932.19 917.329H1124.32V740.579H982.71L982.7 740.569Z" fill="#B46639"/>
<path d="M915.17 826.29L918.27 903.97C918.58 911.43 924.72 917.33 932.19 917.33H1124.32V809.6C1059.07 834.66 986.33 832.21 915.18 826.29H915.17Z" fill="#A55831"/>
<path d="M1124.31 740.569C1047.91 740.569 1026.09 790.879 1032.21 810.579C1038.19 829.809 1056.7 826.289 1056.7 826.289L1059.88 903.969C1060.19 911.429 1066.33 917.329 1073.8 917.329H1174.83C1182.3 917.329 1188.44 911.439 1188.75 903.969L1191.93 826.289C1191.93 826.289 1210.44 829.809 1216.42 810.579C1222.54 790.879 1200.71 740.569 1124.32 740.569H1124.31Z" fill="#DE9139"/>
<path d="M1182.25 753.68C1193.84 802.81 1168.58 857.18 1121.98 877.89C1104.1 885.25 1078.09 891.85 1059.05 883.66L1059.88 903.97C1060.19 911.43 1066.33 917.33 1073.8 917.33H1174.83C1182.3 917.33 1188.44 911.44 1188.75 903.97L1191.93 826.29C1191.93 826.29 1210.44 829.81 1216.42 810.58C1220.56 797.26 1211.89 769.97 1182.26 753.68H1182.25Z" fill="#CD8033"/>
<path d="M1073.78 758.48C1070.08 759.68 1067.49 762.58 1064.92 765.36C1062.21 768.29 1059.8 771.49 1057.54 774.77C1055.28 778.05 1053.32 781.31 1051.5 784.75C1050.59 786.47 1049.81 788.26 1049.07 790.07C1048.68 791.02 1048.31 791.98 1047.95 792.95C1047.59 793.92 1047.16 794.8 1047.52 795.84C1047.85 796.79 1048.83 797.13 1049.71 796.68C1050.66 796.18 1050.92 795.23 1051.36 794.31C1051.73 793.53 1052.1 792.75 1052.48 791.98C1053.3 790.3 1054.18 788.65 1055.04 786.98C1056.72 783.71 1058.58 780.54 1060.62 777.48C1062.66 774.42 1064.88 771.57 1067.17 768.72C1069.46 765.87 1071.77 762.73 1074.87 760.92C1076.16 760.16 1075.23 758.02 1073.79 758.49L1073.78 758.48Z" fill="white"/>
<path d="M1046.36 799.429C1046.15 800.339 1045.93 801.24 1045.73 802.15C1045.61 802.68 1045.59 803.249 1045.53 803.799C1045.48 804.279 1045.41 804.759 1045.38 805.239C1045.33 805.979 1046.03 806.619 1046.71 806.689C1047.43 806.769 1048.17 806.299 1048.33 805.569C1048.43 805.119 1048.5 804.649 1048.58 804.189C1048.68 803.629 1048.8 803.069 1048.83 802.489C1048.89 801.569 1048.93 800.639 1048.98 799.719C1049.02 799.059 1048.41 798.499 1047.8 798.429C1047.15 798.359 1046.52 798.779 1046.37 799.429H1046.36Z" fill="white"/>
<path d="M976.31 1004.21C976.31 1004.21 984.28 953.799 952.89 934.649C949.43 932.539 947.89 928.309 949.28 924.489C951.31 918.909 958.31 917.069 962.79 920.969C976.43 932.839 997.44 959.999 976.32 1004.21H976.31Z" fill="#8F411D"/>
<path d="M953.38 919.839C951.57 920.769 950.06 922.349 949.28 924.489C947.89 928.299 949.43 932.529 952.89 934.649C984.29 953.799 976.31 1004.21 976.31 1004.21C983.26 989.669 985.63 976.979 985.22 966.069C980.84 963.059 958.21 932.109 953.38 919.839Z" fill="#773116"/>
<path d="M1045.78 975.239C1015.87 954.599 988.86 978.959 981.1 987.129C973.34 978.959 946.33 954.599 916.42 975.239C881.25 999.509 899.42 1128.32 981.1 1108.18C1062.78 1128.32 1080.95 999.509 1045.78 975.239Z" fill="#82C140"/>
<path d="M1048.49 977.429C1048.75 1027.81 1023.41 1078.08 967.52 1081.98C947.52 1083.09 921.74 1078.41 906.77 1063.64C918.07 1093.92 942.479 1117.71 981.099 1108.18C1060.59 1127.78 1079.92 1006.33 1048.49 977.429Z" fill="#71A731"/>
<path d="M981.1 987.129C981.1 987.129 989.31 924.829 1034.29 916.039C1034.29 916.039 1050.79 985.519 981.1 987.129Z" fill="#416029"/>
<path d="M986.54 986.839C1044.14 982.269 1036.49 927.529 1034.62 917.589C1021 943.139 1006.24 966.859 986.54 986.839Z" fill="#334D1E"/>
<path d="M932.59 974.789C925.87 976.869 921.3 982.649 918.24 988.719C916.59 991.989 915.23 995.429 914.1 998.909C913.56 1000.59 913.09 1002.28 912.71 1004.01C912.33 1005.74 911.79 1007.86 912.52 1009.48C912.91 1010.33 914.09 1010.24 914.66 1009.71C915.74 1008.69 916.08 1006.6 916.48 1005.21C916.94 1003.59 917.45 1001.98 917.99 1000.38C919.05 997.249 920.34 994.199 921.86 991.259C924.7 985.779 928.57 980.949 933.88 977.699C935.41 976.759 934.33 974.259 932.58 974.799L932.59 974.789Z" fill="white"/>
<path d="M910.9 1014.52C910.71 1016.12 910.489 1017.76 910.479 1019.38C910.479 1020.13 910.49 1020.89 910.52 1021.64C910.55 1022.55 910.75 1023.38 911.05 1024.23C911.32 1024.99 912.06 1025.65 912.92 1025.59C913.72 1025.53 914.569 1024.98 914.719 1024.14C914.869 1023.3 915.009 1022.41 914.949 1021.54C914.899 1020.82 914.859 1020.09 914.829 1019.36C914.769 1017.88 914.61 1016.41 914.55 1014.93C914.52 1014 913.82 1013.24 912.9 1013.14C912.08 1013.05 911.01 1013.61 910.9 1014.53V1014.52Z" fill="white"/>
<path d="M928.449 822.32C928.449 822.32 936.419 771.91 905.029 752.76C901.569 750.65 900.029 746.42 901.419 742.6C903.449 737.02 910.449 735.18 914.929 739.08C928.569 750.95 949.579 778.11 928.459 822.32H928.449Z" fill="#8F411D"/>
<path d="M905.519 737.959C903.709 738.889 902.199 740.469 901.419 742.609C900.029 746.419 901.569 750.649 905.029 752.769C936.429 771.919 928.449 822.329 928.449 822.329C935.399 807.789 937.769 795.099 937.359 784.189C932.979 781.179 910.349 750.229 905.519 737.959Z" fill="#773116"/>
<path d="M997.92 793.349C968.01 772.709 940.999 797.069 933.239 805.239C925.479 797.069 898.47 772.709 868.56 793.349C833.39 817.619 851.559 946.429 933.239 926.289C1014.92 946.429 1033.09 817.619 997.92 793.349Z" fill="#82C140"/>
<path d="M1000.63 795.55C1000.89 845.93 975.549 896.2 919.659 900.1C899.659 901.21 873.879 896.53 858.909 881.76C870.209 912.04 894.619 935.83 933.239 926.3C1012.73 945.9 1032.06 824.45 1000.63 795.55Z" fill="#71A731"/>
<path d="M933.239 805.239C933.239 805.239 941.449 742.939 986.429 734.149C986.429 734.149 1002.93 803.629 933.239 805.239Z" fill="#416029"/>
<path d="M938.68 804.959C996.28 800.389 988.63 745.649 986.76 735.709C973.14 761.259 958.38 784.979 938.68 804.959Z" fill="#334D1E"/>
<path d="M884.719 792.9C877.999 794.98 873.429 800.76 870.369 806.83C868.719 810.1 867.359 813.54 866.229 817.02C865.689 818.7 865.219 820.39 864.839 822.12C864.459 823.85 863.919 825.97 864.649 827.59C865.039 828.44 866.219 828.35 866.789 827.82C867.869 826.8 868.209 824.71 868.609 823.32C869.079 821.7 869.579 820.09 870.119 818.49C871.179 815.36 872.469 812.31 873.989 809.37C876.829 803.89 880.699 799.06 886.009 795.81C887.539 794.87 886.459 792.37 884.709 792.91L884.719 792.9Z" fill="white"/>
<path d="M863.039 832.639C862.849 834.239 862.629 835.879 862.619 837.499C862.619 838.249 862.629 839.009 862.659 839.759C862.689 840.669 862.889 841.499 863.189 842.349C863.459 843.109 864.199 843.769 865.059 843.709C865.859 843.649 866.709 843.099 866.859 842.259C867.009 841.419 867.149 840.529 867.089 839.659C867.039 838.939 866.999 838.209 866.969 837.489C866.909 836.009 866.749 834.539 866.689 833.059C866.659 832.129 865.959 831.369 865.039 831.269C864.219 831.179 863.149 831.739 863.039 832.659V832.639Z" fill="white"/>
<path d="M958.02 1042.55L964.41 1117.79L1146.13 1100.05V1000.67L958.02 1042.55Z" fill="#E48A22"/>
<path d="M958.02 1042.55L1146.13 1000.67C1146.13 1000.67 1124.83 950.27 1025.46 953.82L958.03 1042.55H958.02Z" fill="#E9A728"/>
<path d="M958.02 1042.55L996.05 1034.08C992.79 1024.7 989.33 1015.41 985.62 1006.23L958.02 1042.54V1042.55Z" fill="#EFC53E"/>
<path d="M1041.62 953.73C1036.47 953.6 1031.1 953.62 1025.46 953.82L1010.89 972.99C1018.25 990.61 1025.17 1008.34 1030.7 1026.37L1063.45 1019.08C1057.39 996.91 1050.25 975.13 1041.62 953.73Z" fill="#EFC53E"/>
<path d="M1080.84 958.329C1089.34 975.099 1094.87 992.939 1099.35 1011.08L1146.13 1000.66C1146.13 1000.66 1133.25 970.219 1080.84 958.319V958.329Z" fill="#EFC53E"/>
<path d="M1064.81 985.25C1073.83 985.25 1081.14 981.471 1081.14 976.81C1081.14 972.149 1073.83 968.37 1064.81 968.37C1055.79 968.37 1048.48 972.149 1048.48 976.81C1048.48 981.471 1055.79 985.25 1064.81 985.25Z" fill="#CE6F1A"/>
<path d="M1006.68 1022.17C1015.7 1022.17 1023.01 1018.39 1023.01 1013.73C1023.01 1009.07 1015.7 1005.29 1006.68 1005.29C997.661 1005.29 990.35 1009.07 990.35 1013.73C990.35 1018.39 997.661 1022.17 1006.68 1022.17Z" fill="#CE6F1A"/>
<path d="M1023.01 988.99C1023.01 991.32 1026.67 993.209 1031.18 993.209C1035.69 993.209 1039.35 991.32 1039.35 988.99C1039.35 986.66 1035.69 984.77 1031.18 984.77C1026.67 984.77 1023.01 986.66 1023.01 988.99Z" fill="#CE6F1A"/>
<path d="M1093.24 993.21C1093.24 995.54 1096.9 997.43 1101.41 997.43C1105.92 997.43 1109.58 995.54 1109.58 993.21C1109.58 990.88 1105.92 988.99 1101.41 988.99C1096.9 988.99 1093.24 990.88 1093.24 993.21Z" fill="#CE6F1A"/>
<path d="M1116.05 1054.44C1123.64 1054.44 1129.8 1048.28 1129.8 1040.69C1129.8 1033.1 1123.64 1026.94 1116.05 1026.94C1108.46 1026.94 1102.3 1033.1 1102.3 1040.69C1102.3 1048.28 1108.46 1054.44 1116.05 1054.44Z" fill="#CB5E16"/>
<path d="M1023.01 1066.33C1030.6 1066.33 1036.76 1060.17 1036.76 1052.58C1036.76 1044.99 1030.6 1038.83 1023.01 1038.83C1015.42 1038.83 1009.26 1044.99 1009.26 1052.58C1009.26 1060.17 1015.42 1066.33 1023.01 1066.33Z" fill="#CB5E16"/>
<path d="M1071.85 1095.37C1078.05 1093.91 1081.89 1087.71 1080.44 1081.51C1078.98 1075.31 1072.77 1071.46 1066.57 1072.92C1060.37 1074.38 1056.53 1080.58 1057.99 1086.78C1059.44 1092.98 1065.65 1096.83 1071.85 1095.37Z" fill="#CB5E16"/>
<path d="M1120.16 1064.56C1118.1 1062 1114.36 1061.59 1111.8 1063.65C1109.24 1065.71 1108.83 1069.45 1110.89 1072.01C1112.95 1074.57 1116.69 1074.98 1119.25 1072.92C1121.81 1070.86 1122.22 1067.12 1120.16 1064.56Z" fill="#CB5E16"/>
<path d="M1006.68 1087.97C1009.96 1087.97 1012.62 1085.31 1012.62 1082.03C1012.62 1078.75 1009.96 1076.09 1006.68 1076.09C1003.4 1076.09 1000.74 1078.75 1000.74 1082.03C1000.74 1085.31 1003.4 1087.97 1006.68 1087.97Z" fill="#CB5E16"/>
<path d="M1146.13 1000.67L958.02 1042.55L964.41 1117.79L964.04 1047.68L1146.13 1000.67Z" fill="#EFC53E"/>
<path d="M1025.36 962.49C1022.18 965.67 1019.17 968.95 1016.38 972.48C1015.01 974.21 1013.65 975.96 1012.31 977.72C1011.61 978.63 1011 979.56 1010.43 980.55C1009.86 981.54 1009.05 982.49 1009.11 983.63C1009.15 984.44 1009.89 984.98 1010.67 984.77C1011.7 984.5 1012.35 983.49 1013.05 982.73C1013.81 981.91 1014.51 981.1 1015.17 980.2C1016.53 978.37 1017.9 976.55 1019.29 974.74C1022.03 971.18 1024.62 967.53 1027.2 963.86C1027.98 962.75 1026.26 961.59 1025.35 962.49H1025.36Z" fill="white"/>
<path d="M1005.3 988.56C1004.2 989.45 1003.17 990.399 1002.23 991.459C1001.73 992.019 1001.29 992.629 1000.88 993.259C1000.7 993.539 1000.52 993.829 1000.34 994.119C1000.22 994.329 1000.11 994.539 1000.04 994.769C999.97 994.999 999.979 995.279 999.989 995.529C999.989 996.469 1001.03 996.949 1001.8 996.519C1002.02 996.399 1002.21 996.299 1002.39 996.119C1002.56 995.949 1002.68 995.739 1002.81 995.539C1002.98 995.279 1003.15 994.969 1003.36 994.739C1003.25 994.859 1003.23 994.909 1003.35 994.759C1003.39 994.709 1003.43 994.649 1003.47 994.599C1003.57 994.469 1003.68 994.329 1003.78 994.199C1003.93 994.009 1004.07 993.809 1004.21 993.609C1004.24 993.569 1004.41 993.329 1004.28 993.509C1004.15 993.689 1004.34 993.43 1004.35 993.42C1005.12 992.39 1005.97 991.429 1006.9 990.529C1007.36 990.089 1007.34 989.319 1006.96 988.839C1006.6 988.399 1005.81 988.15 1005.31 988.55L1005.3 988.56Z" fill="white"/>
<path d="M843.57 891.789L893.36 1078.92C902.09 1111.72 931.79 1134.56 965.73 1134.56H1141.27C1175.22 1134.56 1204.92 1111.73 1213.65 1078.92L1263.44 891.789H843.57ZM953.69 1095.1C953.69 1099.45 950.17 1102.97 945.82 1102.97H943.99C939.64 1102.97 936.12 1099.45 936.12 1095.1V1023.7C936.12 1019.35 939.64 1015.83 943.99 1015.83H945.82C950.17 1015.83 953.69 1019.35 953.69 1023.7V1095.1ZM953.69 996.429C953.69 1000.78 950.17 1004.3 945.82 1004.3H943.99C939.64 1004.3 936.12 1000.78 936.12 996.429V925.029C936.12 920.679 939.64 917.159 943.99 917.159H945.82C950.17 917.159 953.69 920.679 953.69 925.029V996.429ZM989.89 1095.1C989.89 1099.45 986.37 1102.97 982.02 1102.97H980.19C975.84 1102.97 972.32 1099.45 972.32 1095.1V1023.7C972.32 1019.35 975.84 1015.83 980.19 1015.83H982.02C986.37 1015.83 989.89 1019.35 989.89 1023.7V1095.1ZM989.89 996.429C989.89 1000.78 986.37 1004.3 982.02 1004.3H980.19C975.84 1004.3 972.32 1000.78 972.32 996.429V925.029C972.32 920.679 975.84 917.159 980.19 917.159H982.02C986.37 917.159 989.89 920.679 989.89 925.029V996.429ZM1026.09 1095.1C1026.09 1099.45 1022.57 1102.97 1018.22 1102.97H1016.39C1012.04 1102.97 1008.52 1099.45 1008.52 1095.1V1023.7C1008.52 1019.35 1012.04 1015.83 1016.39 1015.83H1018.22C1022.57 1015.83 1026.09 1019.35 1026.09 1023.7V1095.1ZM1026.09 996.429C1026.09 1000.78 1022.57 1004.3 1018.22 1004.3H1016.39C1012.04 1004.3 1008.52 1000.78 1008.52 996.429V925.029C1008.52 920.679 1012.04 917.159 1016.39 917.159H1018.22C1022.57 917.159 1026.09 920.679 1026.09 925.029V996.429ZM1062.29 1095.1C1062.29 1099.45 1058.77 1102.97 1054.42 1102.97H1052.59C1048.24 1102.97 1044.72 1099.45 1044.72 1095.1V1023.7C1044.72 1019.35 1048.24 1015.83 1052.59 1015.83H1054.42C1058.77 1015.83 1062.29 1019.35 1062.29 1023.7V1095.1ZM1062.29 996.429C1062.29 1000.78 1058.77 1004.3 1054.42 1004.3H1052.59C1048.24 1004.3 1044.72 1000.78 1044.72 996.429V925.029C1044.72 920.679 1048.24 917.159 1052.59 917.159H1054.42C1058.77 917.159 1062.29 920.679 1062.29 925.029V996.429ZM1098.49 1095.1C1098.49 1099.45 1094.97 1102.97 1090.62 1102.97H1088.79C1084.44 1102.97 1080.92 1099.45 1080.92 1095.1V1023.7C1080.92 1019.35 1084.44 1015.83 1088.79 1015.83H1090.62C1094.97 1015.83 1098.49 1019.35 1098.49 1023.7V1095.1ZM1098.49 996.429C1098.49 1000.78 1094.97 1004.3 1090.62 1004.3H1088.79C1084.44 1004.3 1080.92 1000.78 1080.92 996.429V925.029C1080.92 920.679 1084.44 917.159 1088.79 917.159H1090.62C1094.97 917.159 1098.49 920.679 1098.49 925.029V996.429ZM1134.69 1095.1C1134.69 1099.45 1131.17 1102.97 1126.82 1102.97H1124.99C1120.64 1102.97 1117.12 1099.45 1117.12 1095.1V1023.7C1117.12 1019.35 1120.64 1015.83 1124.99 1015.83H1126.82C1131.17 1015.83 1134.69 1019.35 1134.69 1023.7V1095.1ZM1134.69 996.429C1134.69 1000.78 1131.17 1004.3 1126.82 1004.3H1124.99C1120.64 1004.3 1117.12 1000.78 1117.12 996.429V925.029C1117.12 920.679 1120.64 917.159 1124.99 917.159H1126.82C1131.17 917.159 1134.69 920.679 1134.69 925.029V996.429ZM1170.9 1095.1C1170.9 1099.45 1167.38 1102.97 1163.03 1102.97H1161.2C1156.85 1102.97 1153.33 1099.45 1153.33 1095.1V1023.7C1153.33 1019.35 1156.85 1015.83 1161.2 1015.83H1163.03C1167.38 1015.83 1170.9 1019.35 1170.9 1023.7V1095.1ZM1170.9 996.429C1170.9 1000.78 1167.38 1004.3 1163.03 1004.3H1161.2C1156.85 1004.3 1153.33 1000.78 1153.33 996.429V925.029C1153.33 920.679 1156.85 917.159 1161.2 917.159H1163.03C1167.38 917.159 1170.9 920.679 1170.9 925.029V996.429Z" fill="#4671B7"/>
<path d="M1257.45 914.319L1263.44 891.789H843.57L849.57 914.319H1257.45Z" fill="#385E92"/>
<path d="M1272.34 862.689H834.67C827.628 862.689 821.92 868.398 821.92 875.439V888.979C821.92 896.021 827.628 901.729 834.67 901.729H1272.34C1279.38 901.729 1285.09 896.021 1285.09 888.979V875.439C1285.09 868.398 1279.38 862.689 1272.34 862.689Z" fill="#5F8CD9"/>
<path d="M863.62 874.59C878.48 875.57 893.44 875.11 908.33 875.02C923.23 874.93 938.12 874.79 953.02 874.6C957.1 874.55 961.17 874.44 965.25 874.34C967.33 874.29 969.41 874.19 971.49 874.04C973.57 873.89 975.82 873.91 977.87 873.32C979.32 872.9 979.26 870.69 977.8 870.34C976.03 869.91 974.2 869.98 972.39 869.93C970.39 869.88 968.4 869.82 966.39 869.86C962.73 869.92 959.07 869.95 955.41 870.05C948.01 870.24 940.6 870.42 933.2 870.59C918.31 870.93 903.42 871.21 888.52 871.44C880.19 871.57 871.88 871.68 863.57 872.32C862.11 872.43 862.19 874.5 863.63 874.59H863.62Z" fill="white"/>
<path d="M854.2 870.88C853.07 870.73 851.94 870.56 850.8 870.57C849.81 870.57 848.81 870.54 847.82 870.52C845.58 870.46 843.35 870.58 841.15 871.06C838.84 871.57 839.03 875.24 841.26 875.7C843.49 876.16 845.8 876.21 848.07 876.12C849.1 876.08 850.13 876.06 851.16 875.96C852.5 875.83 853.61 875.45 854.81 874.87C855.58 874.5 855.91 873.43 855.79 872.67C855.67 871.91 855.04 871 854.19 870.89L854.2 870.88Z" fill="white"/>
<path d="M1009.2 867.729C1000.84 861.169 988.74 862.629 982.17 870.989L852.63 1044.95C848.16 1050.95 849.29 1059.42 855.18 1064.04C861.07 1068.66 869.56 1067.74 874.33 1061.97L1012.46 894.749C1019.02 886.389 1017.56 874.289 1009.2 867.719V867.729Z" fill="#39393B"/>
<path d="M1000.6 896.999C1008.23 895.208 1012.97 887.567 1011.18 879.931C1009.39 872.296 1001.75 867.558 994.114 869.349C986.479 871.14 981.741 878.781 983.532 886.417C985.322 894.052 992.964 898.79 1000.6 896.999Z" fill="#5F8CD9"/>
<path d="M999.137 891.512C1003.71 890.513 1006.6 885.999 1005.6 881.429C1004.6 876.859 1000.09 873.964 995.52 874.963C990.95 875.962 988.055 880.476 989.054 885.046C990.053 889.616 994.567 892.511 999.137 891.512Z" fill="#385E92"/>
<path d="M1097.81 867.729C1106.17 861.169 1118.27 862.629 1124.84 870.989L1254.38 1044.95C1258.85 1050.95 1257.72 1059.42 1251.83 1064.04C1245.94 1068.66 1237.45 1067.74 1232.68 1061.97L1094.55 894.749C1087.99 886.389 1089.45 874.289 1097.81 867.719V867.729Z" fill="#39393B"/>
<path d="M1119.69 893.2C1125.23 887.655 1125.23 878.664 1119.69 873.118C1114.14 867.573 1105.15 867.573 1099.61 873.118C1094.06 878.664 1094.06 887.655 1099.61 893.2C1105.15 898.746 1114.14 898.745 1119.69 893.2Z" fill="#5F8CD9"/>
<path d="M1115.64 889.148C1118.94 885.841 1118.94 880.478 1115.64 877.17C1112.33 873.862 1106.96 873.862 1103.66 877.17C1100.35 880.478 1100.35 885.841 1103.66 889.148C1106.96 892.456 1112.33 892.456 1115.64 889.148Z" fill="#385E92"/>
<path d="M2031.76 163.48H1810.88C1789.02 163.48 1771.3 181.201 1771.3 203.06C1771.3 224.92 1789.02 242.64 1810.88 242.64H2031.76C2053.62 242.64 2071.34 224.92 2071.34 203.06C2071.34 181.201 2053.62 163.48 2031.76 163.48Z" fill="#E39090"/>
<path d="M1950.15 123.9H1729.27C1707.41 123.9 1689.69 141.621 1689.69 163.48C1689.69 185.34 1707.41 203.06 1729.27 203.06H1950.15C1972.01 203.06 1989.73 185.34 1989.73 163.48C1989.73 141.621 1972.01 123.9 1950.15 123.9Z" fill="#97D9D5"/>
<path d="M118.32 1027.63H-85.94C-106.15 1027.63 -122.54 1011.24 -122.54 991.03C-122.54 970.82 -106.15 954.43 -85.94 954.43H118.31C138.52 954.43 154.91 970.82 154.91 991.03C154.91 1011.24 138.52 1027.63 118.31 1027.63H118.32Z" fill="#E39090"/>
<path d="M42.85 917.83H-161.4C-181.614 917.83 -198 934.216 -198 954.43C-198 974.644 -181.614 991.03 -161.4 991.03H42.85C63.0636 991.03 79.45 974.644 79.45 954.43C79.45 934.216 63.0636 917.83 42.85 917.83Z" fill="#97D9D5"/>
<path d="M88.2501 185.71C144.539 185.71 190.17 140.079 190.17 83.7901C190.17 27.5012 144.539 -18.1299 88.2501 -18.1299C31.9612 -18.1299 -13.6699 27.5012 -13.6699 83.7901C-13.6699 140.079 31.9612 185.71 88.2501 185.71Z" fill="#97D9D5"/>
<path d="M31.6499 86.04C84.128 86.04 126.67 43.4981 126.67 -8.98C126.67 -61.4581 84.128 -104 31.6499 -104C-20.8282 -104 -63.3701 -61.4581 -63.3701 -8.98C-63.3701 43.4981 -20.8282 86.04 31.6499 86.04Z" fill="#CA3131"/>
<path d="M-20.8296 229.89C31.6485 229.89 74.1904 187.348 74.1904 134.87C74.1904 82.3915 31.6485 39.8496 -20.8296 39.8496C-73.3077 39.8496 -115.85 82.3915 -115.85 134.87C-115.85 187.348 -73.3077 229.89 -20.8296 229.89Z" fill="#E39090"/>
</g>
</svg>
