<?xml version="1.0" encoding="UTF-8"?>
<svg version="1.1" xmlns="http://www.w3.org/2000/svg" width="512" height="512">
<path d="M0 0 C18.44662424 16.56216941 30.52585754 39.3143635 32.55322266 64.20385742 C32.88769741 71.44594839 32.88311723 78.69426126 32.86889648 85.94262695 C32.86572327 89.32820466 32.88930802 92.7129176 32.91455078 96.09838867 C32.91682321 98.28198134 32.91752753 100.46557631 32.91650391 102.64916992 C32.92571365 103.64530304 32.9349234 104.64143616 32.94441223 105.66775513 C32.86374334 118.07798243 29.35321621 128.67886467 21.05322266 138.01635742 C20.22822266 138.73823242 19.40322266 139.46010742 18.55322266 140.20385742 C18.03373047 140.66791992 17.51423828 141.13198242 16.97900391 141.61010742 C12.85617405 145.20385742 12.85617405 145.20385742 10.55322266 145.20385742 C10.61509766 146.40010742 10.67697266 147.59635742 10.74072266 148.82885742 C10.66539046 164.89972677 4.28840964 180.65822448 -5.44677734 193.20385742 C-4.82859131 193.29884521 -4.21040527 193.39383301 -3.57348633 193.49169922 C31.65840715 199.0012807 61.34023118 212.57258388 82.92822266 241.95385742 C90.09941293 252.17176726 95.88435094 263.99932946 98.55322266 276.20385742 C99.45041016 276.22963867 100.34759766 276.25541992 101.27197266 276.28198242 C122.99362063 277.26933006 141.74935137 284.25743071 158.55322266 298.20385742 C159.20419922 298.70401367 159.85517578 299.20416992 160.52587891 299.71948242 C177.47413028 313.15454274 188.58678723 335.74340723 191.33789062 357.02661133 C194.15715818 385.53253884 186.4407698 410.01785991 168.86572266 432.39135742 C152.16924156 451.74175449 128.76748653 462.17643643 103.55322266 464.20385742 C79.6497492 465.74074286 55.65233073 457.88078003 37.55322266 442.20385742 C36.75658203 441.5619043 35.95994141 440.91995117 35.13916016 440.25854492 C19.86706226 427.44511294 7.05396065 406.04170416 5.26695251 385.99198914 C5.18216141 384.82915909 5.0973703 383.66632904 5.01000977 382.46826172 C4.92343613 381.29571335 4.83686249 380.12316498 4.74766541 378.91508484 C4.6834993 378.02037979 4.61933319 377.12567474 4.55322266 376.20385742 C3.39438694 376.20938818 2.23555122 376.21491894 1.04159927 376.22061729 C-26.50198566 376.35072406 -54.04553968 376.44958014 -81.58936875 376.5102494 C-84.98373335 376.51775313 -88.3780973 376.52551911 -91.77246094 376.53344727 C-92.44818277 376.53502113 -93.12390459 376.53659499 -93.82010284 376.53821655 C-104.74376016 376.56428405 -115.66722692 376.61156896 -126.59077141 376.6667742 C-137.80957474 376.72299634 -149.02828333 376.75578515 -160.24723458 376.76838839 C-166.54452707 376.77619872 -172.84138818 376.7945074 -179.13854218 376.83823776 C-185.07130723 376.87910205 -191.00346507 376.89149826 -196.9363575 376.88250351 C-199.10830299 376.88414795 -201.28026975 376.89599978 -203.45209312 376.91909027 C-226.44910394 377.15150338 -226.44910394 377.15150338 -236.41523457 368.49384212 C-243.0053816 361.86736994 -244.89741829 352.99832106 -244.97691345 343.96885681 C-244.96006248 342.28887352 -244.96006248 342.28887352 -244.94287109 340.57495117 C-244.94432632 339.38644058 -244.94578156 338.19792999 -244.94728088 336.97340393 C-244.94562844 334.46808412 -244.93414115 331.96275345 -244.91333008 329.45751953 C-244.88454526 325.67654876 -244.89270414 321.89699872 -244.90576172 318.1159668 C-244.87567886 283.51113128 -235.915387 253.30268362 -211.97802734 227.63745117 C-191.08549777 207.55096054 -164.49581365 195.11163981 -135.44677734 194.20385742 C-135.96626953 193.40463867 -136.48576172 192.60541992 -137.02099609 191.78198242 C-146.18904198 177.34358114 -152.39035962 162.64265587 -151.44677734 145.20385742 C-152.57986328 144.78426758 -152.57986328 144.78426758 -153.73583984 144.35620117 C-161.68641143 140.97663544 -166.77708685 133.80665679 -170.44677734 126.20385742 C-173.13020955 118.45383374 -173.89230269 111.2582912 -173.84521484 103.09838867 C-173.84808502 101.97550949 -173.8509552 100.85263031 -173.85391235 99.69572449 C-173.8559415 97.33344007 -173.85049275 94.9711384 -173.83789062 92.60888672 C-173.82189749 89.04314429 -173.83774064 85.47854836 -173.85693359 81.9128418 C-173.8872298 50.78967067 -166.48132949 26.29201833 -144.82177734 3.20385742 C-107.05099674 -33.24163263 -39.44478725 -34.30058359 0 0 Z " fill="#020202" transform="translate(282.44677734375,35.796142578125)"/>
<path d="M0 0 C0.09796875 0.89460937 0.1959375 1.78921875 0.296875 2.7109375 C1.94662853 16.0511859 5.24948333 26.59192735 15.88671875 35.38671875 C31.10251276 46.80090371 47.40216342 49.43287213 65.9765625 47.7265625 C79.13595093 45.45474626 92.59817486 38.53243151 101 28 C106.88040688 18.94905116 109.0241377 10.63168882 110 0 C141.77420987 -0.6354842 166.50380133 9.1549849 189.625 31.25 C197.53331218 39.36080097 203.38762819 48.40133222 208.5 58.4375 C209.00793091 59.43076294 209.00793091 59.43076294 209.52612305 60.4440918 C211.4048393 64.28473084 212.52707633 67.75025533 213 72 C212.01902344 72.21914063 211.03804688 72.43828125 210.02734375 72.6640625 C183.23629653 78.86643763 159.95047047 91.74110407 144.78125 115.37890625 C140.00083253 123.18476563 136.70440801 131.26014486 134 140 C133.76539063 140.72574219 133.53078125 141.45148438 133.2890625 142.19921875 C132.09048759 146.34211898 131.76439465 150.4500359 131.453125 154.74609375 C131.36708008 155.91712646 131.28103516 157.08815918 131.19238281 158.29467773 C131.12889648 159.18743408 131.06541016 160.08019043 131 161 C102.43847893 161.06843968 73.87696817 161.12153 45.31538116 161.15319599 C41.94332689 161.1569481 38.57127278 161.16083107 35.19921875 161.16479492 C34.52790429 161.16558185 33.85658983 161.16636878 33.1649325 161.16717956 C22.29549638 161.18023302 11.42610786 161.20388653 0.55669998 161.23145839 C-10.59654493 161.25951425 -21.74977353 161.27595209 -32.90305412 161.28226548 C-39.16759593 161.28618006 -45.43202977 161.29539501 -51.69653702 161.31719017 C-57.591408 161.33753339 -63.48612638 161.34383812 -69.38102913 161.33932304 C-71.54579433 161.34014921 -73.71056458 161.34612763 -75.87529945 161.35761642 C-78.82925527 161.37252644 -81.7826338 161.36895883 -84.73660278 161.36076355 C-85.5945891 161.36950207 -86.45257542 161.3782406 -87.33656132 161.38724393 C-93.62216892 161.34005986 -97.65790642 159.89598052 -102.625 155.875 C-108.45971227 148.81192725 -109.60494466 141.84717397 -109.53125 132.88671875 C-109.5350769 131.8370845 -109.53890381 130.78745026 -109.54284668 129.70600891 C-109.54555704 127.48978717 -109.53825758 125.27353297 -109.52148438 123.05737305 C-109.50030124 119.73474981 -109.52119344 116.4143483 -109.546875 113.09179688 C-109.59027214 80.57171021 -100.44534374 52.5245825 -77.375 28.875 C-56.15215055 7.79887216 -29.55992505 -1.32357873 0 0 Z " fill="#2597D0" transform="translate(157,241)"/>
<path d="M0 0 C3.50647238 2.83641372 6.76472531 5.86087858 10 9 C10.92039062 9.81017578 10.92039062 9.81017578 11.859375 10.63671875 C26.11548562 23.61762681 33.78471623 44.16310154 35 63 C35.05414063 63.74636719 35.10828125 64.49273437 35.1640625 65.26171875 C35.93958192 86.0244886 28.14773133 106.81810006 14.5 122.25 C13.00612924 123.83911755 11.50660099 125.42294645 10 127 C9.17242187 127.93972656 9.17242187 127.93972656 8.328125 128.8984375 C-3.94450732 142.32542633 -24.35284561 150.01571078 -42.25878906 151.14208984 C-66.84503748 152.15494868 -86.82058857 144.98944346 -105.75 129.1875 C-122.49317539 113.60747025 -131.50484651 91.48200331 -132.33911133 68.88842773 C-132.72337664 45.99196599 -122.99872798 25.10636984 -107.52734375 8.4765625 C-78.3808924 -20.0842569 -33.40459754 -23.03603566 0 0 Z " fill="#66BC45" transform="translate(429,338)"/>
<path d="M0 0 C0.32871094 0.67804688 0.65742188 1.35609375 0.99609375 2.0546875 C4.27577339 8.47183844 7.97641502 13.59530902 12.94921875 18.80859375 C17.06907711 23.21095668 18.37564583 25.39543001 18.38818359 31.59765625 C18.39606903 32.57911369 18.39606903 32.57911369 18.40411377 33.58039856 C18.41730231 35.74134304 18.40857223 37.90154809 18.3984375 40.0625 C18.40046052 41.57503398 18.40337386 43.087567 18.40713501 44.60009766 C18.41155842 47.77434552 18.40513418 50.94834019 18.39111328 54.12255859 C18.37413808 58.15932238 18.38378737 62.19548255 18.40183067 66.23222351 C18.41276867 69.36041653 18.40917481 72.48847107 18.4014473 75.6166687 C18.39946669 77.10277378 18.40182801 78.58889205 18.40888596 80.07498169 C18.49113135 102.28573533 11.55542615 120.93167276 -3.6875 137.1875 C-13.39054829 146.50597625 -24.2628488 151.39397785 -37 155 C-37.61182129 155.17813232 -38.22364258 155.35626465 -38.85400391 155.53979492 C-57.05627079 159.44323896 -75.64732377 155.60410929 -91.22265625 145.9453125 C-95.88048719 142.68286551 -99.97375213 139.00577542 -104 135 C-104.69867188 134.33613281 -105.39734375 133.67226562 -106.1171875 132.98828125 C-110.37178331 128.64263378 -113.43286431 123.91004839 -116.25 118.5625 C-116.56727051 117.98556396 -116.88454102 117.40862793 -117.21142578 116.81420898 C-126.02258411 99.05530317 -124.52893375 78.77273623 -124.33294678 59.53326416 C-124.30546985 56.38096363 -124.29709295 53.22873671 -124.28938007 50.07633495 C-124.27941332 46.2943387 -124.25959518 42.51241566 -124.23828125 38.73046875 C-124.2348855 38.01810751 -124.23148975 37.30574627 -124.2279911 36.57179832 C-124.21637723 34.555884 -124.19686013 32.5400199 -124.17700195 30.52416992 C-124.16223564 28.810243 -124.16223564 28.810243 -124.14717102 27.06169128 C-124.01267852 24.26375913 -123.63625975 21.72265479 -123 19 C-122.32984863 18.98541748 -121.65969727 18.97083496 -120.96923828 18.95581055 C-94.62919169 18.32803278 -67.91790805 17.0065217 -42 12 C-40.92951416 11.80567383 -40.92951416 11.80567383 -39.83740234 11.60742188 C-27.36350808 9.31579009 -15.76661068 5.26040164 -3.9609375 0.67089844 C-2 0 -2 0 0 0 Z " fill="#FDD9AA" transform="translate(265,94)"/>
<path d="M0 0 C2.03382459 -0.00218196 4.06710118 -0.02038709 6.10083008 -0.03930664 C31.72441241 -0.07685952 53.60929329 8.25844222 71.9465332 26.36889648 C91.17516062 47.03414549 95.44013658 70.67680382 95.25708008 97.82373047 C95.23550098 101.63955222 95.25704041 105.45351992 95.2824707 109.26928711 C95.27982956 111.71916101 95.274709 114.16903378 95.2668457 116.61889648 C95.27494263 117.74718369 95.28303955 118.87547089 95.29138184 120.03794861 C95.19063589 128.5782195 93.46733101 135.81120496 87.5480957 142.24780273 C87.03891602 142.8162793 86.52973633 143.38475586 86.00512695 143.97045898 C84.7355957 145.18530273 84.7355957 145.18530273 83.7355957 145.18530273 C83.72750885 144.5722226 83.719422 143.95914246 83.71109009 143.32748413 C83.62490681 136.93564418 83.52539717 130.54410944 83.41821289 124.15258789 C83.37997457 121.76852553 83.34511277 119.38440648 83.3137207 117.00024414 C83.26795887 113.56953705 83.20998182 110.13921841 83.1496582 106.70874023 C83.13233139 105.11465836 83.13233139 105.11465836 83.11465454 103.4883728 C83.00680849 94.45601046 83.00680849 94.45601046 78.59887695 86.83374023 C77.75711914 86.08350586 76.91536133 85.33327148 76.0480957 84.56030273 C69.03275789 77.82923331 63.70393155 69.80827801 61.7355957 60.18530273 C56.14305576 59.81869665 52.29403279 60.94620608 47.3605957 63.37280273 C10.23619266 80.52815283 -33.21043323 80.09280059 -73.2644043 81.18530273 C-73.74548704 82.60131987 -74.2241857 84.0181471 -74.7019043 85.43530273 C-75.1021582 86.61866211 -75.1021582 86.61866211 -75.51049805 87.82592773 C-76.76669134 91.75722695 -77.39794073 95.17797704 -77.46972656 99.32104492 C-77.48967178 100.34180115 -77.509617 101.36255737 -77.53016663 102.41424561 C-77.55523537 104.05662201 -77.55523537 104.05662201 -77.58081055 105.73217773 C-77.60159164 106.85851624 -77.62237274 107.98485474 -77.64378357 109.14532471 C-77.70914762 112.74192223 -77.76810315 116.33859251 -77.8269043 119.93530273 C-77.870102 122.37411233 -77.91371669 124.81291458 -77.95776367 127.25170898 C-78.0648156 133.22949674 -78.16660647 139.20735681 -78.2644043 145.18530273 C-81.54764696 143.6577353 -83.02779309 142.51352099 -84.8894043 139.37280273 C-85.49655273 138.37313477 -85.49655273 138.37313477 -86.1159668 137.35327148 C-88.42498677 132.99440725 -89.51600664 129.5051591 -89.55493164 124.54736328 C-89.56769135 123.43818039 -89.58045105 122.3289975 -89.59359741 121.186203 C-89.59582306 119.9935231 -89.59804871 118.8008432 -89.6003418 117.57202148 C-89.6069986 116.32967239 -89.6136554 115.0873233 -89.62051392 113.80732727 C-89.63063943 111.17365226 -89.63619679 108.54038977 -89.63500977 105.90673828 C-89.63476904 101.92571323 -89.67557142 97.94544261 -89.71362305 93.96459961 C-89.7871726 77.70561109 -89.46050509 62.58322767 -81.5769043 47.93530273 C-81.2365918 47.28110352 -80.8962793 46.6269043 -80.5456543 45.95288086 C-68.95646099 24.35483879 -50.0325781 9.77352777 -26.8894043 2.31030273 C-18.19973839 -0.26079692 -8.97114104 -0.00107375 0 0 Z " fill="#716E6C" transform="translate(209.264404296875,22.814697265625)"/>
<path d="M0 0 C1.051875 0.00257813 2.10375 0.00515625 3.1875 0.0078125 C4.280625 0.03617187 5.37375 0.06453125 6.5 0.09375 C7.593125 0.09117187 8.68625 0.08859375 9.8125 0.0859375 C17.62078003 0.18162721 17.62078003 0.18162721 20.81933594 1.6809082 C23.3598101 4.57233979 22.95253055 6.87625353 22.890625 10.66796875 C22.88496521 11.3518013 22.87930542 12.03563385 22.87347412 12.7401886 C22.85110816 14.92125899 22.80091765 17.10067753 22.75 19.28125 C22.729935 20.76104395 22.71168422 22.2408637 22.6953125 23.72070312 C22.65124474 27.3455876 22.58221822 30.96950756 22.5 34.59375 C23.82390747 34.55447388 23.82390747 34.55447388 25.17456055 34.5144043 C28.4641158 34.42894725 31.75248422 34.36639255 35.04272461 34.3190918 C36.46381291 34.29401853 37.88477313 34.25995001 39.30541992 34.21655273 C41.35367462 34.15557142 43.40021883 34.12747238 45.44921875 34.10546875 C46.67987061 34.07928467 47.91052246 34.05310059 49.1784668 34.02612305 C53.47250435 34.75994424 54.9049107 36.14760411 57.5 39.59375 C58.14697266 42.1015625 58.14697266 42.1015625 58.1640625 44.71875 C58.17050781 45.67265625 58.17695313 46.6265625 58.18359375 47.609375 C58.15458984 49.08664062 58.15458984 49.08664062 58.125 50.59375 C58.14433594 51.57859375 58.16367187 52.5634375 58.18359375 53.578125 C58.17714844 54.53203125 58.17070312 55.4859375 58.1640625 56.46875 C58.15842285 57.33242188 58.1527832 58.19609375 58.14697266 59.0859375 C57.18951833 62.79724727 55.52044273 64.29109164 52.5 66.59375 C49.1784668 67.16137695 49.1784668 67.16137695 45.44921875 67.08203125 C44.46100883 67.07141914 44.46100883 67.07141914 43.45283508 67.06059265 C41.36319966 67.03275979 39.27631524 66.97005819 37.1875 66.90625 C35.76501286 66.88115205 34.34248341 66.85834148 32.91992188 66.83789062 C29.44573139 66.78297446 25.9731345 66.69678685 22.5 66.59375 C22.5314209 67.9255127 22.5314209 67.9255127 22.56347656 69.28417969 C22.63175677 72.58669455 22.6818487 75.8884567 22.71972656 79.19140625 C22.73980982 80.61926121 22.76708252 82.04703425 22.80175781 83.47460938 C22.85042669 85.53015368 22.87299967 87.58460855 22.890625 89.640625 C22.9220459 91.49445801 22.9220459 91.49445801 22.95410156 93.38574219 C22.5 96.59375 22.5 96.59375 20.81933594 98.99291992 C16.49782776 101.97567035 11.58289863 101.20719887 6.5 101.15625 C5.406875 101.18009766 4.31375 101.20394531 3.1875 101.22851562 C2.135625 101.22658203 1.08375 101.22464844 0 101.22265625 C-0.9590625 101.22338135 -1.918125 101.22410645 -2.90625 101.22485352 C-5.5 100.59375 -5.5 100.59375 -7.81933594 98.48144531 C-9.8697443 94.95846012 -9.96212216 92.81918281 -9.890625 88.76171875 C-9.87773437 87.46943359 -9.86484375 86.17714844 -9.8515625 84.84570312 C-9.81814634 83.49087454 -9.78428662 82.13605683 -9.75 80.78125 C-9.72992034 79.40692683 -9.71167213 78.03257561 -9.6953125 76.65820312 C-9.64821732 73.30267144 -9.58245135 69.94856873 -9.5 66.59375 C-10.3878418 66.61993408 -11.27568359 66.64611816 -12.19042969 66.6730957 C-15.49300405 66.7584475 -18.79440275 66.82105652 -22.09765625 66.8684082 C-23.52557901 66.89351347 -24.95337375 66.92760587 -26.38085938 66.97094727 C-28.43651918 67.03178678 -30.49047753 67.05999551 -32.546875 67.08203125 C-34.40070801 67.12130737 -34.40070801 67.12130737 -36.29199219 67.16137695 C-39.5 66.59375 -39.5 66.59375 -41.90136719 64.39941406 C-43.63340826 61.35961321 -44.01410338 59.68060347 -44.03125 56.21484375 C-44.03640625 55.21130859 -44.0415625 54.20777344 -44.046875 53.17382812 C-44.03140625 52.13677734 -44.0159375 51.09972656 -44 50.03125 C-44.01546875 48.99033203 -44.0309375 47.94941406 -44.046875 46.87695312 C-44.04171875 45.87470703 -44.0365625 44.87246094 -44.03125 43.83984375 C-44.02673828 42.92904053 -44.02222656 42.0182373 -44.01757812 41.07983398 C-43.31676235 37.71360424 -42.30162158 36.57305748 -39.5 34.59375 C-36.29199219 34.13964844 -36.29199219 34.13964844 -32.546875 34.203125 C-31.88665344 34.20878479 -31.22643188 34.21444458 -30.54620361 34.22027588 C-28.44671737 34.2425877 -26.3489663 34.29276686 -24.25 34.34375 C-22.8229414 34.36382206 -21.39585592 34.38207161 -19.96875 34.3984375 C-16.47860707 34.44243307 -12.98947301 34.51142124 -9.5 34.59375 C-9.52094727 33.74143799 -9.54189453 32.88912598 -9.56347656 32.01098633 C-9.63185244 28.83345567 -9.68189738 25.65630129 -9.71972656 22.47827148 C-9.7397799 21.10574977 -9.76703028 19.73331283 -9.80175781 18.36108398 C-9.85054552 16.38302956 -9.87088876 14.40433881 -9.890625 12.42578125 C-9.91157227 11.23702393 -9.93251953 10.0482666 -9.95410156 8.82348633 C-9.07770763 2.59025227 -6.21485126 -0.04594312 0 0 Z " fill="#FDFEFD" transform="translate(373.5,355.40625)"/>
<path d="M0 0 C0.77694214 0.3853894 0.77694214 0.3853894 1.56958008 0.77856445 C14.20292801 7.00761393 25.74122128 12.28597921 40 13 C41.35158203 13.07927734 41.35158203 13.07927734 42.73046875 13.16015625 C60.38175294 13.70803687 74.54545338 7.79860199 90 0 C88.36121999 10.32431405 83.65819252 17.39242159 75.6953125 24.140625 C62.94773158 32.93460836 47.15077924 34.90410618 32.05859375 32.5390625 C20.74999112 29.45324798 9.68933214 22.87184287 3.58984375 12.6328125 C1.62777031 8.45549486 0.68025096 4.57207135 0 0 Z " fill="#DEB990" transform="translate(167,247)"/>
</svg>
