<?xml version="1.0" encoding="UTF-8"?>
<svg version="1.1" xmlns="http://www.w3.org/2000/svg" width="512" height="512">
<path d="M0 0 C1.00546875 0.00332336 1.00546875 0.00332336 2.03125 0.00671387 C6.77116474 0.02494862 11.51037697 0.06950367 16.25 0.125 C17.41466797 0.13756836 18.57933594 0.15013672 19.77929688 0.16308594 C42.13916396 0.48742978 59.83864872 3.77163936 76.25 20.125 C77.09691406 20.93710937 77.09691406 20.93710937 77.9609375 21.765625 C85.06476612 29.20773117 88.89416386 39.30075668 91.25 49.125 C92.78782355 49.11946924 92.78782355 49.11946924 94.35671425 49.11382675 C119.29424567 49.02505668 144.23175661 48.95931036 169.16941261 48.91775131 C181.22904702 48.89711985 193.28857709 48.86898795 205.34814453 48.82324219 C215.85838972 48.78339248 226.36855936 48.75757144 236.878878 48.74864602 C242.44482549 48.74342815 248.01055683 48.73115185 253.57643509 48.70207977 C258.81472569 48.67494032 264.05271098 48.66655211 269.29106522 48.67256927 C271.21395527 48.67146839 273.13685548 48.66350585 275.05968475 48.6481781 C277.6853982 48.62827315 280.30995929 48.63306251 282.93569946 48.64398193 C283.69641207 48.63233057 284.45712468 48.6206792 285.24088919 48.60867476 C290.39377516 48.66658771 293.26750558 49.90393122 297.25 53.125 C300.87833663 56.94430172 301.56000458 60.00779006 301.75 65.125 C301.56000458 70.24220994 300.87833663 73.30569828 297.25 77.125 C292.53230851 80.9407012 288.84285055 81.69649426 282.93569946 81.60601807 C282.11386244 81.60943577 281.29202542 81.61285347 280.44528425 81.61637473 C277.69965551 81.62294774 274.95501087 81.6009875 272.20947266 81.57910156 C270.23816959 81.57797296 268.26686484 81.5786072 266.29556274 81.58087158 C260.94883365 81.58201915 255.60246356 81.55850272 250.25581789 81.53057575 C244.6664439 81.50556933 239.07706167 81.50322069 233.48764038 81.49847412 C222.9054698 81.48604214 212.32346453 81.45321741 201.74136674 81.41307616 C189.69311257 81.36836547 177.6448505 81.34637316 165.59653401 81.32629442 C140.81426436 81.28448508 116.03214144 81.21412858 91.25 81.125 C91.04839264 81.8827623 90.84678528 82.6405246 90.6390686 83.42124939 C90.37226288 84.4139534 90.10545715 85.40665741 89.83056641 86.42944336 C89.56708405 87.41408066 89.30360168 88.39871796 89.03213501 89.41319275 C86.28011338 98.95496256 80.14095924 106.20960473 73.25 113.125 C72.70859375 113.68960938 72.1671875 114.25421875 71.609375 114.8359375 C58.80225448 127.06091618 41.23549722 129.60357942 24.328125 129.59375 C22.81418588 129.60087655 21.30024937 129.60857903 19.78631592 129.61682129 C16.62960283 129.6301773 13.47313945 129.63187592 10.31640625 129.62597656 C6.31810409 129.62009641 2.32102288 129.65064277 -1.67704391 129.69109344 C-4.80025415 129.71724601 -7.92318131 129.71982317 -11.0464859 129.71620178 C-12.51815093 129.71786822 -13.98983274 129.7272646 -15.46138763 129.74534607 C-34.21435341 129.95042836 -49.72289285 124.332246 -63.5078125 111.3203125 C-64.24773437 110.59585938 -64.98765625 109.87140625 -65.75 109.125 C-66.30429688 108.60679687 -66.85859375 108.08859375 -67.4296875 107.5546875 C-73.97765785 100.79435055 -79.00260629 90.30515962 -80.75 81.125 C-81.4382486 81.13388245 -82.12649719 81.14276489 -82.83560181 81.1519165 C-90.00571377 81.24048295 -97.17567006 81.30077339 -104.34619141 81.34472656 C-107.02163375 81.36256825 -109.69622016 81.39211049 -112.37158203 81.42675781 C-116.21918571 81.47533506 -120.06620787 81.49798365 -123.9140625 81.515625 C-125.10802643 81.53627014 -126.30199036 81.55691528 -127.53213501 81.57818604 C-133.91781283 81.57990751 -137.9369917 81.49827664 -142.75 77.125 C-146.37833663 73.30569828 -147.06000458 70.24220994 -147.25 65.125 C-147.06000458 60.00779006 -146.37833663 56.94430172 -142.75 53.125 C-137.07008312 47.9640183 -131.30289025 48.60661285 -123.9140625 48.734375 C-122.06232925 48.74286469 -122.06232925 48.74286469 -120.17318726 48.75152588 C-116.24005958 48.77387125 -112.30785119 48.82406753 -108.375 48.875 C-105.7044404 48.89732341 -103.03388945 48.91331746 -100.36328125 48.9296875 C-93.82520851 48.97373028 -87.28766994 49.04062569 -80.75 49.125 C-80.54419312 47.74199707 -80.54419312 47.74199707 -80.33422852 46.33105469 C-77.80815704 32.46880203 -66.77451855 19.27050415 -55.75 11.125 C-39.10138418 0.48564788 -19.14967025 -0.07209966 0 0 Z " fill="#55ABDF" transform="translate(178.75,350.875)"/>
<path d="M0 0 C1.00546875 0.00332336 1.00546875 0.00332336 2.03125 0.00671387 C6.77116474 0.02494862 11.51037697 0.06950367 16.25 0.125 C17.41466797 0.13756836 18.57933594 0.15013672 19.77929688 0.16308594 C42.13916396 0.48742978 59.83864872 3.77163936 76.25 20.125 C76.81460937 20.66640625 77.37921875 21.2078125 77.9609375 21.765625 C85.06476612 29.20773117 88.89416386 39.30075668 91.25 49.125 C92.29306525 49.11946924 92.29306525 49.11946924 93.35720253 49.11382675 C110.28334083 49.0254594 127.20940599 48.95928253 144.13572121 48.91775131 C152.32119663 48.89713288 160.50651799 48.86902614 168.69189453 48.82324219 C175.82692645 48.78335227 182.9618468 48.75756196 190.09698713 48.74864602 C193.87445666 48.74343487 197.651607 48.73120215 201.42897415 48.70207977 C204.98635388 48.67487632 208.54328373 48.66656476 212.1007576 48.67256927 C214.02481074 48.67094869 215.94881517 48.6494516 217.8727417 48.62731934 C224.28961185 48.65793273 228.42211592 48.70758585 233.25 53.125 C236.87833663 56.94430172 237.56000458 60.00779006 237.75 65.125 C237.56000458 70.24220994 236.87833663 73.30569828 233.25 77.125 C227.52718116 82.36126096 221.54018055 81.66486977 214.08447266 81.57910156 C212.74370355 81.57797226 211.40293198 81.57860856 210.06216431 81.58087158 C206.43431771 81.58201647 202.80700308 81.55854442 199.1792798 81.53057575 C195.3836568 81.50552411 191.5880208 81.50321715 187.79232788 81.49847412 C180.61005226 81.48605534 173.42802099 81.45324879 166.24585283 81.41307616 C158.06694377 81.36832412 149.88802288 81.34636281 141.70902181 81.32629442 C124.88920497 81.28451503 108.0696337 81.21418457 91.25 81.125 C91.04839264 81.8827623 90.84678528 82.6405246 90.6390686 83.42124939 C90.37226288 84.4139534 90.10545715 85.40665741 89.83056641 86.42944336 C89.56708405 87.41408066 89.30360168 88.39871796 89.03213501 89.41319275 C86.28011338 98.95496256 80.14095924 106.20960473 73.25 113.125 C72.70859375 113.68960938 72.1671875 114.25421875 71.609375 114.8359375 C58.80225448 127.06091618 41.23549722 129.60357942 24.328125 129.59375 C22.81418588 129.60087655 21.30024937 129.60857903 19.78631592 129.61682129 C16.62960283 129.6301773 13.47313945 129.63187592 10.31640625 129.62597656 C6.31810409 129.62009641 2.32102288 129.65064277 -1.67704391 129.69109344 C-4.80025415 129.71724601 -7.92318131 129.71982317 -11.0464859 129.71620178 C-12.51815093 129.71786822 -13.98983274 129.7272646 -15.46138763 129.74534607 C-34.21435341 129.95042836 -49.72289285 124.332246 -63.5078125 111.3203125 C-64.61769531 110.23363281 -64.61769531 110.23363281 -65.75 109.125 C-66.30429688 108.60679687 -66.85859375 108.08859375 -67.4296875 107.5546875 C-73.97765785 100.79435055 -79.00260629 90.30515962 -80.75 81.125 C-81.36291712 81.12868717 -81.97583424 81.13237434 -82.6073246 81.13617325 C-97.53059189 81.22456449 -112.45383386 81.29072913 -127.37729836 81.33224869 C-134.59423863 81.3528617 -141.81100402 81.38095789 -149.02783203 81.42675781 C-155.3190607 81.46666455 -161.61016269 81.49244199 -167.90151441 81.50135398 C-171.2318931 81.50656238 -174.56182554 81.52088378 -177.89210892 81.54792023 C-181.6126994 81.57692602 -185.33253743 81.58095699 -189.05322266 81.57910156 C-190.15373962 81.59348267 -191.25425659 81.60786377 -192.38812256 81.62268066 C-198.51477377 81.58958624 -202.09217998 81.22497297 -206.75 77.125 C-210.37833663 73.30569828 -211.06000458 70.24220994 -211.25 65.125 C-211.06000458 60.00779006 -210.37833663 56.94430172 -206.75 53.125 C-201.23257355 48.26837196 -196.18857077 48.57765664 -189.05322266 48.67089844 C-187.29626572 48.67002228 -187.29626572 48.67002228 -185.5038147 48.66912842 C-181.64026036 48.6719105 -177.77748173 48.70301036 -173.9140625 48.734375 C-171.23219496 48.74183694 -168.55037014 48.74772689 -165.86849976 48.75152588 C-159.53619146 48.76393916 -153.20416066 48.79673809 -146.87197435 48.83692384 C-139.66040348 48.88169317 -132.44881908 48.9036415 -125.23714375 48.92370558 C-110.40795416 48.96547243 -95.57898193 49.03579217 -80.75 49.125 C-80.54419312 47.74199707 -80.54419312 47.74199707 -80.33422852 46.33105469 C-77.80815704 32.46880203 -66.77451855 19.27050415 -55.75 11.125 C-39.10138418 0.48564788 -19.14967025 -0.07209966 0 0 Z " fill="#EF715C" transform="translate(242.75,190.875)"/>
<path d="M0 0 C1.00546875 0.00332336 1.00546875 0.00332336 2.03125 0.00671387 C6.77116474 0.02494862 11.51037697 0.06950367 16.25 0.125 C17.41466797 0.13756836 18.57933594 0.15013672 19.77929688 0.16308594 C42.13916396 0.48742978 59.83864872 3.77163936 76.25 20.125 C76.81460937 20.66640625 77.37921875 21.2078125 77.9609375 21.765625 C85.06476612 29.20773117 88.89416386 39.30075668 91.25 49.125 C91.9382486 49.11611755 92.62649719 49.10723511 93.33560181 49.0980835 C100.50571377 49.00951705 107.67567006 48.94922661 114.84619141 48.90527344 C117.52163375 48.88743175 120.19622016 48.85788951 122.87158203 48.82324219 C126.71918571 48.77466494 130.56620787 48.75201635 134.4140625 48.734375 C135.60802643 48.71372986 136.80199036 48.69308472 138.03213501 48.67181396 C144.41781283 48.67009249 148.4369917 48.75172336 153.25 53.125 C156.87833663 56.94430172 157.56000458 60.00779006 157.75 65.125 C157.56000458 70.24220994 156.87833663 73.30569828 153.25 77.125 C147.57008312 82.2859817 141.80289025 81.64338715 134.4140625 81.515625 C133.17957367 81.50996521 131.94508484 81.50430542 130.67318726 81.49847412 C126.74005958 81.47612875 122.80785119 81.42593247 118.875 81.375 C116.2044404 81.35267659 113.53388945 81.33668254 110.86328125 81.3203125 C104.32520851 81.27626972 97.78766994 81.20937431 91.25 81.125 C91.04839264 81.8827623 90.84678528 82.6405246 90.6390686 83.42124939 C90.37226288 84.4139534 90.10545715 85.40665741 89.83056641 86.42944336 C89.56708405 87.41408066 89.30360168 88.39871796 89.03213501 89.41319275 C86.28011338 98.95496256 80.14095924 106.20960473 73.25 113.125 C72.70859375 113.68960938 72.1671875 114.25421875 71.609375 114.8359375 C58.80225448 127.06091618 41.23549722 129.60357942 24.328125 129.59375 C22.81418588 129.60087655 21.30024937 129.60857903 19.78631592 129.61682129 C16.62960283 129.6301773 13.47313945 129.63187592 10.31640625 129.62597656 C6.31810409 129.62009641 2.32102288 129.65064277 -1.67704391 129.69109344 C-4.80025415 129.71724601 -7.92318131 129.71982317 -11.0464859 129.71620178 C-12.51815093 129.71786822 -13.98983274 129.7272646 -15.46138763 129.74534607 C-34.21435341 129.95042836 -49.72289285 124.332246 -63.5078125 111.3203125 C-64.61769531 110.23363281 -64.61769531 110.23363281 -65.75 109.125 C-66.30429687 108.60679687 -66.85859375 108.08859375 -67.4296875 107.5546875 C-73.97765785 100.79435055 -79.00260629 90.30515962 -80.75 81.125 C-82.28782355 81.13053076 -82.28782355 81.13053076 -83.85671425 81.13617325 C-108.79424567 81.22494332 -133.73175661 81.29068964 -158.66941261 81.33224869 C-170.72904702 81.35288015 -182.78857709 81.38101205 -194.84814453 81.42675781 C-205.35838972 81.46660752 -215.86855936 81.49242856 -226.378878 81.50135398 C-231.94482549 81.50657185 -237.51055683 81.51884815 -243.07643509 81.54792023 C-248.31472569 81.57505968 -253.55271098 81.58344789 -258.79106522 81.57743073 C-260.71395527 81.57853161 -262.63685548 81.58649415 -264.55968475 81.6018219 C-267.1853982 81.62172685 -269.80995929 81.61693749 -272.43569946 81.60601807 C-273.57676838 81.62349512 -273.57676838 81.62349512 -274.74088919 81.64132524 C-279.89377516 81.58341229 -282.76750558 80.34606878 -286.75 77.125 C-290.37833663 73.30569828 -291.06000458 70.24220994 -291.25 65.125 C-291.06000458 60.00779006 -290.37833663 56.94430172 -286.75 53.125 C-282.03230851 49.3092988 -278.34285055 48.55350574 -272.43569946 48.64398193 C-271.61386244 48.64056423 -270.79202542 48.63714653 -269.94528425 48.63362527 C-267.19965551 48.62705226 -264.45501087 48.6490125 -261.70947266 48.67089844 C-259.73816959 48.67202704 -257.76686484 48.6713928 -255.79556274 48.66912842 C-250.44883365 48.66798085 -245.10246356 48.69149728 -239.75581789 48.71942425 C-234.1664439 48.74443067 -228.57706167 48.74677931 -222.98764038 48.75152588 C-212.4054698 48.76395786 -201.82346453 48.79678259 -191.24136674 48.83692384 C-179.19311257 48.88163453 -167.1448505 48.90362684 -155.09653401 48.92370558 C-130.31426436 48.96551492 -105.53214144 49.03587142 -80.75 49.125 C-80.54419312 47.74199707 -80.54419312 47.74199707 -80.33422852 46.33105469 C-77.80815704 32.46880203 -66.77451855 19.27050415 -55.75 11.125 C-39.10138418 0.48564788 -19.14967025 -0.07209966 0 0 Z " fill="#FEC00D" transform="translate(322.75,30.875)"/>
<path d="M0 0 C25.97310687 -0.09256731 51.94617404 -0.16396382 77.91941261 -0.20724869 C89.97904702 -0.22788015 102.03857709 -0.25601205 114.09814453 -0.30175781 C124.60838972 -0.34160752 135.11855936 -0.36742856 145.628878 -0.37635398 C151.19482549 -0.38157185 156.76055683 -0.39384815 162.32643509 -0.42292023 C167.56472569 -0.45005968 172.80271098 -0.45844789 178.04106522 -0.45243073 C179.96395527 -0.45353161 181.88685548 -0.46149415 183.80968475 -0.4768219 C186.4353982 -0.49672685 189.05995929 -0.49193749 191.68569946 -0.48101807 C192.44641207 -0.49266943 193.20712468 -0.5043208 193.99088919 -0.51632524 C199.14377516 -0.45841229 202.01750558 0.77893122 206 4 C209.62833663 7.81930172 210.31000458 10.88279006 210.5 16 C210.31000458 21.11720994 209.62833663 24.18069828 206 28 C201.28230851 31.8157012 197.59285055 32.57149426 191.68569946 32.48101807 C190.45294393 32.48614462 190.45294393 32.48614462 189.19528425 32.49137473 C186.44965551 32.49794774 183.70501087 32.4759875 180.95947266 32.45410156 C178.98816959 32.45297296 177.01686484 32.4536072 175.04556274 32.45587158 C169.69883365 32.45701915 164.35246356 32.43350272 159.00581789 32.40557575 C153.4164439 32.38056933 147.82706167 32.37822069 142.23764038 32.37347412 C131.6554698 32.36104214 121.07346453 32.32821741 110.49136674 32.28807616 C98.44311257 32.24336547 86.3948505 32.22137316 74.34653401 32.20129442 C49.56426125 32.15948507 24.78214686 32.08832277 0 32 C0 21.44 0 10.88 0 0 Z " fill="#396894" transform="translate(270,400)"/>
<path d="M0 0 C1.23275553 -0.00512655 1.23275553 -0.00512655 2.49041522 -0.01035666 C5.23604395 -0.01692968 7.98068859 0.00503057 10.72622681 0.0269165 C12.69752988 0.02804511 14.66883463 0.02741087 16.64013672 0.02514648 C21.98686581 0.02399892 27.3332359 0.04751535 32.67988157 0.07544231 C38.26925556 0.10044874 43.85863779 0.10279738 49.44805908 0.10754395 C60.03022966 0.11997592 70.61223493 0.15280066 81.19433272 0.1929419 C93.24258689 0.2376526 105.29084897 0.25964491 117.33916545 0.27972364 C142.12143821 0.321533 166.9035526 0.3926953 191.68569946 0.48101807 C191.68569946 11.04101807 191.68569946 21.60101807 191.68569946 32.48101807 C165.7125926 32.57358538 139.73952542 32.64498189 113.76628685 32.68826675 C101.70665245 32.70889822 89.64712237 32.73703012 77.58755493 32.78277588 C67.07730974 32.82262559 56.5671401 32.84844662 46.05682147 32.85737205 C40.49087397 32.86258992 34.92514264 32.87486622 29.35926437 32.90393829 C24.12097377 32.93107775 18.88298848 32.93946595 13.64463425 32.93344879 C11.72174419 32.93454968 9.79884399 32.94251222 7.87601471 32.95783997 C5.25030126 32.97774492 2.62574017 32.97295556 0 32.96203613 C-1.14106892 32.97951318 -1.14106892 32.97951318 -2.30518973 32.9973433 C-7.4580757 32.93943036 -10.33180612 31.70208684 -14.31430054 28.48101807 C-17.94263717 24.66171635 -18.62430512 21.59822801 -18.81430054 16.48101807 C-18.62430512 11.36380813 -17.94263717 8.30031979 -14.31430054 4.48101807 C-9.59660905 0.66531687 -5.90715109 -0.09047619 0 0 Z " fill="#396893" transform="translate(50.314300537109375,79.51898193359375)"/>
<path d="M0 0 C17.6285839 -0.09032105 35.25697011 -0.16399394 52.88572121 -0.20724869 C61.07119663 -0.22786712 69.25651799 -0.25597386 77.44189453 -0.30175781 C84.57692645 -0.34164773 91.7118468 -0.36743804 98.84698713 -0.37635398 C102.62445666 -0.38156513 106.401607 -0.39379785 110.17897415 -0.42292023 C113.73635388 -0.45012368 117.29328373 -0.45843524 120.8507576 -0.45243073 C122.77481074 -0.45405131 124.69881517 -0.4755484 126.6227417 -0.49768066 C133.03961185 -0.46706727 137.17211592 -0.41741415 142 4 C145.62833663 7.81930172 146.31000458 10.88279006 146.5 16 C146.31000458 21.11720994 145.62833663 24.18069828 142 28 C136.27718116 33.23626096 130.29018055 32.53986977 122.83447266 32.45410156 C121.49370355 32.45297226 120.15293198 32.45360856 118.81216431 32.45587158 C115.18431771 32.45701647 111.55700308 32.43354442 107.9292798 32.40557575 C104.1336568 32.38052411 100.3380208 32.37821715 96.54232788 32.37347412 C89.36005226 32.36105534 82.17802099 32.32824879 74.99585283 32.28807616 C66.81694377 32.24332412 58.63802288 32.22136281 50.45902181 32.20129442 C33.6391824 32.15951497 16.81967944 32.08617658 0 32 C0 21.44 0 10.88 0 0 Z " fill="#396893" transform="translate(334,240)"/>
<path d="M0 0 C1.75695694 -0.00087616 1.75695694 -0.00087616 3.54940796 -0.00177002 C7.4129623 0.00101206 11.27574092 0.03211192 15.13916016 0.06347656 C17.82102769 0.07093851 20.50285251 0.07682845 23.1847229 0.08062744 C29.5170312 0.09304073 35.84906199 0.12583965 42.18124831 0.1660254 C49.39281918 0.21079473 56.60440357 0.23274306 63.8160789 0.25280714 C78.64528795 0.29457405 93.47419928 0.36790558 108.30322266 0.45410156 C108.30322266 11.01410156 108.30322266 21.57410156 108.30322266 32.45410156 C92.76081039 32.54444422 77.21852834 32.61810814 61.6759243 32.66135025 C54.45898402 32.68196326 47.24221864 32.71005945 40.02539062 32.75585938 C33.73416196 32.79576612 27.44305997 32.82154355 21.15170825 32.83045554 C17.82132956 32.83566394 14.49139712 32.84998534 11.16111374 32.87702179 C7.44052326 32.90602758 3.72068522 32.91005856 0 32.90820312 C-1.65077545 32.92977478 -1.65077545 32.92977478 -3.3348999 32.95178223 C-9.46155111 32.9186878 -13.03895732 32.55407453 -17.69677734 28.45410156 C-21.32511398 24.63479984 -22.00678193 21.5713115 -22.19677734 16.45410156 C-22.00678193 11.33689162 -21.32511398 8.27340328 -17.69677734 4.45410156 C-12.17935089 -0.40252647 -7.13534812 -0.0932418 0 0 Z " fill="#396893" transform="translate(53.69677734375,239.5458984375)"/>
<path d="M0 0 C7.86598252 -0.09188039 15.73009961 -0.17150974 23.59619141 -0.21972656 C26.27163375 -0.23756825 28.94622016 -0.26711049 31.62158203 -0.30175781 C35.46918571 -0.35033506 39.31620787 -0.37298365 43.1640625 -0.390625 C44.35802643 -0.41127014 45.55199036 -0.43191528 46.78213501 -0.45318604 C53.16781283 -0.45490751 57.1869917 -0.37327664 62 4 C65.62833663 7.81930172 66.31000458 10.88279006 66.5 16 C66.31000458 21.11720994 65.62833663 24.18069828 62 28 C56.32008312 33.1609817 50.55289025 32.51838715 43.1640625 32.390625 C41.92957367 32.38496521 40.69508484 32.37930542 39.42318726 32.37347412 C35.49005958 32.35112875 31.55785119 32.30093247 27.625 32.25 C24.9544404 32.22767659 22.28388945 32.21168254 19.61328125 32.1953125 C13.0748839 32.1546761 6.53846789 32.07637406 0 32 C0 21.44 0 10.88 0 0 Z " fill="#396893" transform="translate(414,80)"/>
<path d="M0 0 C1.85173325 0.00848969 1.85173325 0.00848969 3.74087524 0.01715088 C7.67400292 0.03949625 11.60621131 0.08969253 15.5390625 0.140625 C18.2096221 0.16294841 20.88017305 0.17894246 23.55078125 0.1953125 C30.0891786 0.2359489 36.62559461 0.31425094 43.1640625 0.390625 C43.1640625 10.950625 43.1640625 21.510625 43.1640625 32.390625 C35.29807998 32.48250539 27.43396289 32.56213474 19.56787109 32.61035156 C16.89242875 32.62819325 14.21784234 32.65773549 11.54248047 32.69238281 C7.69487679 32.74096006 3.84785463 32.76360865 0 32.78125 C-1.19396393 32.80189514 -2.38792786 32.82254028 -3.61807251 32.84381104 C-10.00375033 32.84553251 -14.0229292 32.76390164 -18.8359375 28.390625 C-22.46427413 24.57132328 -23.14594208 21.50783494 -23.3359375 16.390625 C-23.14594208 11.27341506 -22.46427413 8.20992672 -18.8359375 4.390625 C-13.15602062 -0.7703567 -7.38882775 -0.12776215 0 0 Z " fill="#396894" transform="translate(54.8359375,399.609375)"/>
</svg>
