<?xml version="1.0" encoding="UTF-8"?>
<svg version="1.1" xmlns="http://www.w3.org/2000/svg" width="512" height="512">
<path d="M0 0 C4.71372937 2.63856166 6.99572627 6.2996788 8.6875 11.375 C8.77805683 13.16382258 8.80945548 14.95588155 8.80775452 16.74699402 C8.80912918 17.86178635 8.81050385 18.97657867 8.81192017 20.12515259 C8.80652725 21.96042007 8.80652725 21.96042007 8.80102539 23.83276367 C8.80117142 25.12067307 8.80131744 26.40858246 8.8014679 27.73551941 C8.80175513 31.26830086 8.79587032 34.80104844 8.78889394 38.33382201 C8.78264812 42.02538745 8.78205563 45.71695365 8.78086853 49.40852356 C8.77775884 56.39954309 8.76955033 63.39054701 8.75951904 70.38155967 C8.74834667 78.3403632 8.74284461 86.29916747 8.73782361 94.25797689 C8.72736742 110.63032851 8.70902643 127.00265862 8.6875 143.375 C22.2175 143.045 35.7475 142.715 49.6875 142.375 C47.7075 140.065 45.7275 137.755 43.6875 135.375 C41.37168282 130.46347517 41.39671727 125.77771941 41.4128418 120.45141602 C41.40773087 119.57420898 41.40261993 118.69700195 41.39735413 117.79321289 C41.38349956 114.9050405 41.38441171 112.01710784 41.38671875 109.12890625 C41.38282971 107.11400769 41.37849461 105.09910995 41.37373352 103.08421326 C41.36628032 98.86527852 41.3665562 94.64642749 41.37182617 90.42749023 C41.37762131 85.02946911 41.36068424 79.63179105 41.3374815 74.23382664 C41.32272805 70.07388822 41.32187463 65.91403214 41.32499123 61.75407219 C41.32447888 59.76422381 41.31925752 57.77437073 41.30917931 55.78454781 C41.29680027 52.9987998 41.30361528 50.21371642 41.31518555 47.42797852 C41.30754181 46.61165451 41.29989807 45.79533051 41.29202271 44.95426941 C41.35247139 38.34744108 42.69227248 33.6771856 47.125 28.5625 C50.60819346 25.58904217 53.19411027 24.13137241 57.79718018 24.10084534 C58.6072905 24.09087021 59.41740082 24.08089508 60.25205994 24.07061768 C61.13213211 24.069953 62.01220428 24.06928833 62.91894531 24.06860352 C64.31969048 24.05611824 64.31969048 24.05611824 65.74873352 24.04338074 C68.83773972 24.01927448 71.92653469 24.01050709 75.015625 24.00390625 C77.16550764 23.99493925 79.31538964 23.98581739 81.465271 23.97654724 C85.97442135 23.96005218 90.48349741 23.95235638 94.99267578 23.94946289 C100.76075348 23.94408364 106.52812935 23.90642415 112.29600906 23.86071873 C116.73822555 23.83092116 121.18027375 23.82373871 125.62258148 23.82273674 C127.74839232 23.81853857 129.87420385 23.80612054 131.99991608 23.78521919 C134.97995492 23.75825426 137.95837654 23.76314624 140.93847656 23.77563477 C141.81045181 23.76080048 142.68242706 23.74596619 143.58082581 23.73068237 C149.74778536 23.80398739 153.91789652 25.42264435 158.6875 29.375 C162.88979046 34.93286802 162.8426932 40.38870925 162.86450195 47.14746094 C162.87107315 48.03252319 162.87764435 48.91758545 162.88441467 49.82946777 C162.90411179 52.75610442 162.91580229 55.68268984 162.92578125 58.609375 C162.92985678 59.61071724 162.9339323 60.61205948 162.93813133 61.64374542 C162.95897676 66.94380994 162.97328511 72.24384869 162.98266602 77.54394531 C162.9937273 83.00923609 163.02812856 88.47411939 163.06783772 93.9392662 C163.09402059 98.14984885 163.10235935 102.36033463 163.10594749 106.57099152 C163.11080909 108.58515424 163.12241084 110.59931275 163.14098549 112.61339569 C163.16541236 115.43757666 163.1644054 118.260706 163.1574707 121.08496094 C163.17668579 122.32279327 163.17668579 122.32279327 163.19628906 123.58563232 C163.12343809 131.76184619 160.4354606 136.6270394 154.6875 142.375 C170.8575 142.375 187.0275 142.375 203.6875 142.375 C202.0375 140.725 200.3875 139.075 198.6875 137.375 C195.37036108 132.30005855 195.24745153 127.96637619 195.26757812 122.10009766 C195.25910858 121.18548264 195.25063904 120.27086761 195.24191284 119.32853699 C195.21857876 116.31523604 195.21751989 113.30244684 195.21875 110.2890625 C195.21164599 108.18687741 195.20394664 106.08469426 195.19567871 103.98251343 C195.18224193 99.57943328 195.18066145 95.1765324 195.18652344 90.7734375 C195.192417 85.14213634 195.16183786 79.51169807 195.12140656 73.88056374 C195.09550565 69.53955483 195.09265437 65.19875298 195.09629822 60.85767746 C195.09460905 58.78211678 195.08498618 56.70654632 195.06715393 54.63106155 C195.0449184 51.72302437 195.0546898 48.8167247 195.07226562 45.90869141 C195.05900238 45.05855972 195.04573914 44.20842804 195.03207397 43.33253479 C195.11728017 37.23845417 196.6040799 32.97108094 200.6875 28.375 C205.66873356 23.98534941 210.89729243 23.79808008 217.29125977 23.85742188 C218.69748093 23.84690796 218.69748093 23.84690796 220.1321106 23.83618164 C223.21468179 23.81865189 226.29632658 23.83020583 229.37890625 23.84375 C231.52929357 23.84105388 233.67967971 23.83717045 235.83006287 23.83215332 C240.3297795 23.82626525 244.82917787 23.83480001 249.32885742 23.85351562 C255.09139837 23.87631822 260.85319463 23.86316902 266.61570835 23.83922577 C271.05357967 23.82476099 275.49127486 23.82937673 279.92915154 23.83973694 C282.05379258 23.84240162 284.17844972 23.8391436 286.30307198 23.82981873 C289.273523 23.81964068 292.24277302 23.83517173 295.21313477 23.85742188 C296.08758743 23.84932495 296.9620401 23.84122803 297.86299133 23.83288574 C303.28924936 23.90804725 306.37824684 24.77597384 310.6875 28.375 C315.49312235 33.83003078 315.84297496 37.27938425 315.86450195 44.39526367 C315.87107315 45.33040802 315.87764435 46.26555237 315.88441467 47.22903442 C315.90417603 50.33367996 315.9158177 53.43827703 315.92578125 56.54296875 C315.92985678 57.6025561 315.9339323 58.66214344 315.93813133 59.75383949 C315.95900597 65.3639672 315.97330064 70.97407035 315.98266602 76.58422852 C315.99372247 82.37699803 316.02810983 88.16938256 316.06783772 93.96201611 C316.09399817 98.41704518 316.10235745 102.87198255 316.10594749 107.32708168 C316.11081632 109.46208605 316.1224387 111.59708625 316.14098549 113.73201561 C316.16536017 116.72424038 316.16441453 119.71546979 316.1574707 122.70776367 C316.17668579 124.0258326 316.17668579 124.0258326 316.19628906 125.37052917 C316.14705409 131.20531984 315.11893737 134.61051508 311.6875 139.375 C310.3675 140.365 309.0475 141.355 307.6875 142.375 C321.5475 142.705 335.4075 143.035 349.6875 143.375 C349.66655273 139.38269287 349.64560547 135.39038574 349.62402344 131.27709961 C349.55775778 118.08962119 349.51336243 104.90214533 349.48025131 91.71454525 C349.45964081 83.71854595 349.4315493 75.72270457 349.38574219 67.72680664 C349.34582791 60.75620417 349.32005619 53.78571608 349.31114602 46.8150025 C349.30593898 43.12524697 349.29373259 39.43581863 349.26457977 35.74616814 C349.23227105 31.62351953 349.23154352 27.50143696 349.23339844 23.37866211 C349.21901733 22.16018082 349.20463623 20.94169952 349.18981934 19.68629456 C349.22225468 13.02831607 349.59943414 8.73442216 353.6875 3.375 C358.51101689 -0.36568657 362.33420056 -1.99703296 368.49609375 -1.90625 C373.58403615 -1.25325205 377.48729758 1.17479758 381.0625 4.75 C384.6229864 10.50155495 384.98133597 15.76888072 384.9659729 22.33468628 C384.9717653 23.22594369 384.9775577 24.1172011 384.98352563 25.03546631 C385.00050278 28.01570584 385.00340019 30.99579028 385.00634766 33.97607422 C385.0156474 36.11486693 385.02581614 38.25365601 385.03678894 40.3924408 C385.06409772 46.19561173 385.07924102 51.99875837 385.09221697 57.80197668 C385.1078436 63.86786022 385.13463534 69.93369413 385.1602478 75.99954224 C385.20704381 87.48472196 385.24378399 98.96991101 385.27692068 110.45513737 C385.31513621 123.53123738 385.36454789 136.60728755 385.41490483 149.68334556 C385.51823694 176.58052678 385.60749323 203.47774 385.6875 230.375 C387.31884888 231.18142944 387.31884888 231.18142944 388.9831543 232.00415039 C390.43023297 232.72270385 391.87725126 233.44137893 393.32421875 234.16015625 C394.03864136 234.51291626 394.75306396 234.86567627 395.48913574 235.22912598 C405.91844687 240.41838791 414.82150427 246.83890363 423.6875 254.375 C424.3475 254.91125 425.0075 255.4475 425.6875 256 C430.20948437 259.71448716 433.98394969 263.85175042 437.6875 268.375 C438.84958984 269.78072266 438.84958984 269.78072266 440.03515625 271.21484375 C462.82904135 299.39872318 472.38175199 335.15191955 469.46923828 371.06640625 C467.67675482 387.7752503 463.32267952 403.38812535 455.6875 418.375 C455.18734375 419.40753906 454.6871875 420.44007813 454.171875 421.50390625 C440.123391 449.29398989 416.09325845 471.00202593 387.6875 483.375 C387.04490234 483.65569336 386.40230469 483.93638672 385.74023438 484.22558594 C352.44083144 498.43221563 314.19410477 497.76307445 280.63671875 484.84765625 C266.16615853 479.00043315 253.43685504 470.58410345 241.6875 460.375 C241.03394531 459.84261719 240.38039063 459.31023437 239.70703125 458.76171875 C235.1727812 455.04823803 231.39907563 450.90222431 227.6875 446.375 C226.5428125 445.00408203 226.5428125 445.00408203 225.375 443.60546875 C210.38710644 424.98769472 196.6875 398.87908604 196.6875 374.375 C134.6475 374.375 72.6075 374.375 8.6875 374.375 C8.6875 387.245 8.6875 400.115 8.6875 413.375 C5.54578797 419.65842406 3.13418307 422.68995494 -3.125 425.75 C-8.80695805 426.86410942 -13.4586591 426.31940951 -18.625 423.6875 C-22.40903441 420.43147039 -24.73467906 417.10846281 -26.3125 412.375 C-26.4082662 410.17166198 -26.44166285 407.96546785 -26.44392776 405.76005077 C-26.44700672 404.74199807 -26.44700672 404.74199807 -26.45014787 403.70337865 C-26.455835 401.41260127 -26.45435852 399.12188369 -26.45294189 396.83110046 C-26.45552455 395.1787418 -26.45853743 393.52638376 -26.4619453 391.8740266 C-26.47003024 387.3203541 -26.4718057 382.76669736 -26.47254276 378.21301854 C-26.47439071 373.30697589 -26.48193671 368.40094147 -26.48867798 363.49490356 C-26.50227218 352.7615507 -26.50828764 342.02820157 -26.51268864 331.29484153 C-26.51544908 324.59623176 -26.51968605 317.89762345 -26.52419281 311.19901466 C-26.53638662 292.66192942 -26.54668589 274.12484533 -26.5500679 255.58775616 C-26.55028747 254.40085878 -26.55050703 253.2139614 -26.55073325 251.99109744 C-26.55106067 250.20643181 -26.55106067 250.20643181 -26.5513947 248.38571233 C-26.55183817 245.97467085 -26.55228473 243.56362937 -26.55273438 241.15258789 C-26.5529558 239.95662173 -26.55317723 238.76065558 -26.55340537 237.52844802 C-26.55735469 218.1427952 -26.57481228 198.75717995 -26.5980939 179.37154164 C-26.62178967 159.48093792 -26.63426893 139.59035306 -26.63543582 119.69973499 C-26.63635355 108.52688573 -26.64213054 97.35408542 -26.66025543 86.18124962 C-26.67563245 76.66860921 -26.68079107 67.15603286 -26.67251733 57.64338239 C-26.66860238 52.78800607 -26.66958153 47.93275885 -26.68357468 43.0773983 C-26.69626296 38.63426287 -26.69516093 34.19135424 -26.68298396 29.74821935 C-26.68101814 28.13919327 -26.68414603 26.5301514 -26.69282833 24.92114755 C-26.70387324 22.73631262 -26.69646698 20.55228483 -26.6844368 18.36747265 C-26.68503389 17.15323437 -26.68563097 15.93899609 -26.68624616 14.68796271 C-26.08256531 9.33681171 -23.97195572 5.44661858 -19.8125 2.0625 C-19.2246875 1.57136719 -18.636875 1.08023437 -18.03125 0.57421875 C-12.76751013 -3.09843611 -5.62689971 -2.53948095 0 0 Z M8.6875 178.375 C8.6875 231.505 8.6875 284.635 8.6875 339.375 C22.8775 339.375 37.0675 339.375 51.6875 339.375 C50.6975 338.385 49.7075 337.395 48.6875 336.375 C48.0275 336.375 47.3675 336.375 46.6875 336.375 C43.27984776 330.04650298 42.39141038 324.53298869 42.4128418 317.46728516 C42.40773087 316.59168442 42.40261993 315.71608368 42.39735413 314.81394958 C42.38349824 311.9305836 42.38441199 309.04745774 42.38671875 306.1640625 C42.38282943 304.15155957 42.37849428 302.13905745 42.37373352 300.1265564 C42.36627977 295.9118178 42.36655634 291.69716299 42.37182617 287.48242188 C42.37761758 282.09346695 42.36069352 276.70485609 42.3374815 271.31595802 C42.32271645 267.16026825 42.32187627 263.00466079 42.32499123 258.84894943 C42.32447934 256.86271865 42.31926662 254.8764831 42.30917931 252.89027786 C42.29677943 250.10712889 42.30362799 247.32464306 42.31518555 244.54150391 C42.30371994 243.32241081 42.30371994 243.32241081 42.29202271 242.07868958 C42.34497271 236.28106361 43.04095632 230.29992269 47.1040144 225.8094883 C52.39323662 221.22671788 56.96702091 221.22247742 63.65356445 221.21386719 C64.57095398 221.20890228 65.48834351 221.20393738 66.43353271 221.19882202 C69.47262316 221.18420072 72.51166139 221.17739832 75.55078125 221.171875 C77.66204327 221.16612338 79.77330527 221.16036565 81.88456726 221.15460205 C86.31391646 221.14409206 90.74324751 221.13824942 95.17260742 221.13476562 C100.84543093 221.12928189 106.51801431 221.1052563 112.19076252 221.07679367 C116.55310261 221.05816026 120.91538494 221.0529613 125.27776146 221.05142975 C127.36892192 221.04840413 129.46008138 221.04037867 131.55120277 221.02724457 C134.47873775 221.01017013 137.40568724 221.01206788 140.33325195 221.01855469 C141.19528732 221.0093399 142.05732269 221.00012512 142.94548035 220.9906311 C147.94331372 221.02528215 151.35170647 221.61649635 155.6875 224.375 C161.2618216 230.25900614 161.98528808 235.51565183 161.9621582 243.27685547 C161.96726913 244.16367004 161.97238007 245.05048462 161.97764587 245.96417236 C161.99152431 248.89024643 161.99058629 251.81608447 161.98828125 254.7421875 C161.99216937 256.78093554 161.99650429 258.81968277 162.00126648 260.85842896 C162.00872511 265.13041815 162.00844015 269.40232471 162.00317383 273.67431641 C161.99738226 279.14074593 162.0143045 284.6068363 162.0375185 290.07320976 C162.05227256 294.28376229 162.05312521 298.49423348 162.05000877 302.70480728 C162.05052123 304.71977535 162.05574469 306.73474807 162.06582069 308.74969101 C162.07819892 311.57146791 162.07138483 314.39258856 162.05981445 317.21435547 C162.06745819 318.04160126 162.07510193 318.86884705 162.08297729 319.72116089 C162.02622814 326.00341072 160.93408041 330.85610681 156.625 335.6875 C155.985625 336.244375 155.34625 336.80125 154.6875 337.375 C154.0275 338.035 153.3675 338.695 152.6875 339.375 C167.2075 339.375 181.7275 339.375 196.6875 339.375 C198.3375 332.445 199.9875 325.515 201.6875 318.375 C213.98310826 281.72016782 237.05124192 252.12478414 272.0402832 234.56640625 C297.42396878 222.40655687 321.9196774 220.99806123 349.6875 221.375 C349.6875 207.185 349.6875 192.995 349.6875 178.375 C237.1575 178.375 124.6275 178.375 8.6875 178.375 Z " fill="#3B97D3" transform="translate(34.3125,9.625)"/>
<path d="M0 0 C4.71372937 2.63856166 6.99572627 6.2996788 8.6875 11.375 C8.78328348 13.58354694 8.81666317 15.79494475 8.81892776 18.0055666 C8.8209804 18.68595677 8.82303303 19.36634695 8.82514787 20.06735501 C8.83083509 22.36387574 8.8293585 24.66033683 8.82794189 26.9568634 C8.83052454 28.61334686 8.83353742 30.2698297 8.8369453 31.92631167 C8.8450303 36.49138573 8.8468057 41.05644408 8.84754276 45.62152445 C8.8493907 50.53983714 8.85693669 55.45814162 8.86367798 60.37644958 C8.87727222 71.1366611 8.88328764 81.89686889 8.88768864 92.65708756 C8.89044907 99.3724483 8.89468605 106.08780759 8.89919281 112.80316734 C8.91138663 131.38657573 8.9216859 149.96998297 8.9250679 168.55339527 C8.92539725 170.33819275 8.92539725 170.33819275 8.92573325 172.15904675 C8.92606067 173.9481748 8.92606067 173.9481748 8.9263947 175.77344686 C8.92683817 178.19051731 8.92728473 180.60758776 8.92773438 183.0246582 C8.9279558 184.22361497 8.92817723 185.42257175 8.92840537 186.65786054 C8.93235469 206.09201226 8.9498123 225.52612652 8.9730939 244.96026377 C8.99678961 264.90058803 9.00926893 284.84089348 9.01043582 304.78123206 C9.01135355 315.98202694 9.01713064 327.182773 9.03525543 338.38355446 C9.05063237 347.91998339 9.05579112 357.45634843 9.04751733 366.9927874 C9.04360235 371.8603152 9.04458167 376.72771422 9.05857468 381.59522629 C9.07126277 386.04946407 9.0701611 390.50347561 9.05798396 394.95771285 C9.05601811 396.57077658 9.05914617 398.18385606 9.06782833 399.79689763 C9.07887288 401.98717771 9.07146723 404.1766526 9.0594368 406.36690998 C9.06003389 407.58418602 9.06063097 408.80146206 9.06124616 410.05562526 C8.46942143 415.31183465 6.62449221 418.45882984 2.875 422.125 C-2.52554577 425.93714996 -6.68376515 426.85369737 -13.13671875 425.91015625 C-17.98405071 424.71790404 -20.6796907 422.21304475 -23.625 418.3125 C-26.16612729 413.8890562 -26.43875656 410.79540239 -26.44392776 405.76005077 C-26.44700672 404.74199807 -26.44700672 404.74199807 -26.45014787 403.70337865 C-26.455835 401.41260127 -26.45435852 399.12188369 -26.45294189 396.83110046 C-26.45552455 395.1787418 -26.45853743 393.52638376 -26.4619453 391.8740266 C-26.47003024 387.3203541 -26.4718057 382.76669736 -26.47254276 378.21301854 C-26.47439071 373.30697589 -26.48193671 368.40094147 -26.48867798 363.49490356 C-26.50227218 352.7615507 -26.50828764 342.02820157 -26.51268864 331.29484153 C-26.51544908 324.59623176 -26.51968605 317.89762345 -26.52419281 311.19901466 C-26.53638662 292.66192942 -26.54668589 274.12484533 -26.5500679 255.58775616 C-26.55028747 254.40085878 -26.55050703 253.2139614 -26.55073325 251.99109744 C-26.55106067 250.20643181 -26.55106067 250.20643181 -26.5513947 248.38571233 C-26.55183817 245.97467085 -26.55228473 243.56362937 -26.55273438 241.15258789 C-26.5529558 239.95662173 -26.55317723 238.76065558 -26.55340537 237.52844802 C-26.55735469 218.1427952 -26.57481228 198.75717995 -26.5980939 179.37154164 C-26.62178967 159.48093792 -26.63426893 139.59035306 -26.63543582 119.69973499 C-26.63635355 108.52688573 -26.64213054 97.35408542 -26.66025543 86.18124962 C-26.67563245 76.66860921 -26.68079107 67.15603286 -26.67251733 57.64338239 C-26.66860238 52.78800607 -26.66958153 47.93275885 -26.68357468 43.0773983 C-26.69626296 38.63426287 -26.69516093 34.19135424 -26.68298396 29.74821935 C-26.68101814 28.13919327 -26.68414603 26.5301514 -26.69282833 24.92114755 C-26.70387324 22.73631262 -26.69646698 20.55228483 -26.6844368 18.36747265 C-26.68503389 17.15323437 -26.68563097 15.93899609 -26.68624616 14.68796271 C-26.08256531 9.33681171 -23.97195572 5.44661858 -19.8125 2.0625 C-19.2246875 1.57136719 -18.636875 1.08023437 -18.03125 0.57421875 C-12.76751013 -3.09843611 -5.62689971 -2.53948095 0 0 Z " fill="#8596CA" transform="translate(34.3125,9.625)"/>
<path d="M0 0 C0.91738953 -0.0049649 1.83477905 -0.00992981 2.77996826 -0.01504517 C5.8190587 -0.02966647 8.85809694 -0.03646886 11.8972168 -0.04199219 C14.00847882 -0.0477438 16.11974082 -0.05350154 18.23100281 -0.05926514 C22.66035201 -0.06977513 27.08968305 -0.07561777 31.51904297 -0.07910156 C37.19186648 -0.0845853 42.86444985 -0.10861088 48.53719807 -0.13707352 C52.89953815 -0.15570693 57.26182049 -0.16090588 61.62419701 -0.16243744 C63.71535746 -0.16546306 65.80651692 -0.17348851 67.89763832 -0.18662262 C70.8251733 -0.20369705 73.75212279 -0.20179931 76.6796875 -0.1953125 C77.54172287 -0.20452728 78.40375824 -0.21374207 79.29191589 -0.22323608 C84.28903027 -0.18859003 87.70722449 0.38939614 92.03393555 3.16113281 C98.18519413 9.59199406 99.33407551 14.51261541 99.30859375 23.06298828 C99.31370468 23.94980286 99.31881561 24.83661743 99.32408142 25.75030518 C99.33795986 28.67637924 99.33702184 31.60221728 99.3347168 34.52832031 C99.33860492 36.56706835 99.34293983 38.60581558 99.34770203 40.64456177 C99.35516066 44.91655097 99.3548757 49.18845752 99.34960938 53.46044922 C99.3438178 58.92687874 99.36074005 64.39296911 99.38395405 69.85934258 C99.3987081 74.0698951 99.39956076 78.28036629 99.39644432 82.49094009 C99.39695677 84.50590816 99.40218024 86.52088088 99.41225624 88.53582382 C99.42463447 91.35760072 99.41782037 94.17872137 99.40625 97.00048828 C99.41389374 97.82773407 99.42153748 98.65497986 99.42941284 99.5072937 C99.36955073 106.13415372 98.03447751 110.79206996 93.65893555 115.97363281 C88.33676758 120.40877279 83.51858486 120.45868271 76.87255859 120.45166016 C75.9580896 120.45837738 75.04362061 120.4650946 74.10144043 120.47201538 C71.08278954 120.49098977 68.06436109 120.49491941 65.0456543 120.49707031 C62.94204111 120.50349897 60.83842882 120.51022739 58.7348175 120.51724243 C54.32579476 120.52921405 49.91685035 120.5329234 45.5078125 120.53173828 C39.86877083 120.53153518 34.23023364 120.55882881 28.59131145 120.5932827 C24.24603485 120.61556328 19.9008794 120.61957545 15.55555153 120.61851883 C13.47720413 120.62087336 11.39885333 120.62968852 9.32056236 120.64518356 C6.40785178 120.66486519 3.49622559 120.6589966 0.58349609 120.64697266 C-0.26820663 120.65821167 -1.11990936 120.66945068 -1.99742126 120.68103027 C-7.6709957 120.62176676 -12.31353016 119.5564509 -16.96606445 116.16113281 C-21.50975746 110.3993766 -22.11762968 104.676981 -22.12719727 97.59399414 C-22.13216217 96.71883148 -22.13712708 95.84366882 -22.14224243 94.94198608 C-22.15686413 92.04237077 -22.16366708 89.14281021 -22.16918945 86.24316406 C-22.17494215 84.22637429 -22.18069987 82.20958454 -22.1864624 80.1927948 C-22.19697327 75.96015162 -22.20281497 71.72752744 -22.20629883 67.49487305 C-22.21177507 62.08231391 -22.23578421 56.67000741 -22.26427078 51.25752735 C-22.28293684 47.08897683 -22.28810494 42.92048659 -22.2896347 38.75189781 C-22.29265423 36.75728669 -22.30065904 34.76267645 -22.31381989 32.76810646 C-22.33095866 29.97029315 -22.32898072 27.17308928 -22.32250977 24.37524414 C-22.33172455 23.55780228 -22.34093933 22.74036041 -22.35043335 21.89814758 C-22.30592148 15.72508431 -21.33163598 9.99444234 -17.24731445 5.10253906 C-16.65950195 4.6475 -16.07168945 4.19246094 -15.46606445 3.72363281 C-14.5843457 3.01400391 -14.5843457 3.01400391 -13.68481445 2.29003906 C-9.44974517 -0.49163145 -4.86193785 0.0062607 0 0 Z " fill="#F19B1F" transform="translate(97.966064453125,229.8388671875)"/>
<path d="M0 0 C0.81011032 -0.00997513 1.62022064 -0.01995026 2.45487976 -0.03022766 C3.33495193 -0.03089233 4.21502411 -0.03155701 5.12176514 -0.03224182 C6.5225103 -0.0447271 6.5225103 -0.0447271 7.95155334 -0.0574646 C11.04055955 -0.08157086 14.12935451 -0.09033825 17.21844482 -0.09693909 C19.36832747 -0.10590609 21.51820947 -0.11502795 23.66809082 -0.1242981 C28.17724117 -0.14079316 32.68631724 -0.14848896 37.19549561 -0.15138245 C42.9635733 -0.1567617 48.73094917 -0.19442118 54.49882889 -0.24012661 C58.94104538 -0.26992418 63.38309358 -0.27710663 67.82540131 -0.2781086 C69.95121214 -0.28230677 72.07702367 -0.2947248 74.2027359 -0.31562614 C77.18277474 -0.34259107 80.16119636 -0.3376991 83.14129639 -0.32521057 C84.01327164 -0.34004486 84.88524689 -0.35487915 85.78364563 -0.37016296 C91.95060519 -0.29685795 96.12071635 1.32179902 100.89031982 5.27415466 C105.09261028 10.83202269 105.04551303 16.28786392 105.06732178 23.0466156 C105.07389297 23.93167786 105.08046417 24.81674011 105.0872345 25.72862244 C105.10693161 28.65525909 105.11862212 31.58184451 105.12860107 34.50852966 C105.1326766 35.5098719 105.13675213 36.51121414 105.14095116 37.54290009 C105.16179659 42.84296461 105.17610493 48.14300335 105.18548584 53.44309998 C105.19654713 58.90839075 105.23094838 64.37327405 105.27065754 69.83842087 C105.29684041 74.04900351 105.30517917 78.25948929 105.30876732 82.47014618 C105.31362891 84.4843089 105.32523066 86.49846742 105.34380531 88.51255035 C105.36823219 91.33673132 105.36722522 94.15986067 105.36029053 96.9841156 C105.37310059 97.80933716 105.38591064 98.63455872 105.39910889 99.48478699 C105.34296768 105.78562927 103.80163852 111.12619809 99.4429369 115.83918381 C93.9824587 120.66609658 89.00257639 120.42602886 82.01019287 120.43528748 C80.66555969 120.44273483 80.66555969 120.44273483 79.29376221 120.45033264 C76.3298465 120.46493079 73.36598432 120.47175235 70.40203857 120.47727966 C68.33944192 120.48303302 66.27684528 120.48879074 64.21424866 120.49455261 C59.88922883 120.50505591 55.56422756 120.51090298 51.23919678 120.51438904 C45.7043813 120.51987247 40.16981197 120.54390024 34.63507366 120.57236099 C30.37391957 120.5910086 26.11282452 120.59619411 21.85163307 120.59772491 C19.81153836 120.60074714 17.77144458 120.60876112 15.73139 120.6219101 C12.8736143 120.63901489 10.01643687 120.63707947 7.15863037 120.63059998 C6.3204628 120.63981476 5.48229523 120.64902954 4.61872864 120.65852356 C-2.17231321 120.61042799 -6.96173459 119.42210025 -11.92218018 114.46165466 C-15.98110461 108.54722191 -16.40535206 103.29187786 -16.38433838 96.35057068 C-16.38944931 95.47336365 -16.39456024 94.59615662 -16.39982605 93.69236755 C-16.41368062 90.80419517 -16.41276847 87.9162625 -16.41046143 85.02806091 C-16.41435046 83.01316235 -16.41868556 80.99826461 -16.42344666 78.98336792 C-16.43089985 74.76443318 -16.43062398 70.54558215 -16.425354 66.3266449 C-16.41955886 60.92862378 -16.43649594 55.53094571 -16.45969868 50.1329813 C-16.47445212 45.97304288 -16.47530554 41.8131868 -16.47218895 37.65322685 C-16.47270129 35.66337848 -16.47792266 33.67352539 -16.48800087 31.68370247 C-16.5003799 28.89795446 -16.4935649 26.11287108 -16.48199463 23.32713318 C-16.49346024 22.10264717 -16.49346024 22.10264717 -16.50515747 20.85342407 C-16.44470879 14.24659574 -15.1049077 9.57634027 -10.67218018 4.46165466 C-7.18898672 1.48819683 -4.60306991 0.03052707 0 0 Z " fill="#F19B1F" transform="translate(92.10968017578125,33.72584533691406)"/>
<path d="M0 0 C1.40622116 -0.01051392 1.40622116 -0.01051392 2.84085083 -0.02124023 C5.92342202 -0.03876998 9.00506682 -0.02721604 12.08764648 -0.01367188 C14.23803381 -0.016368 16.38841994 -0.02025142 18.5388031 -0.02526855 C23.03851973 -0.03115662 27.5379181 -0.02262186 32.03759766 -0.00390625 C37.80013861 0.01889634 43.56193486 0.00574714 49.32444859 -0.01819611 C53.76231991 -0.03266088 58.2000151 -0.02804514 62.63789177 -0.01768494 C64.76253282 -0.01502026 66.88718995 -0.01827828 69.01181221 -0.02760315 C71.98226324 -0.0377812 74.95151325 -0.02225014 77.921875 0 C79.233554 -0.01214539 79.233554 -0.01214539 80.57173157 -0.02453613 C85.9979896 0.05062537 89.08698708 0.91855196 93.39624023 4.51757812 C98.20186259 9.9726089 98.5517152 13.42196237 98.57324219 20.5378418 C98.57981339 21.47298615 98.58638458 22.40813049 98.59315491 23.37161255 C98.61291626 26.47625809 98.62455794 29.58085515 98.63452148 32.68554688 C98.63859701 33.74513422 98.64267254 34.80472157 98.64687157 35.89641762 C98.6677462 41.50654532 98.68204087 47.11664848 98.69140625 52.72680664 C98.7024627 58.51957615 98.73685007 64.31196069 98.77657795 70.10459423 C98.8027384 74.5596233 98.81109769 79.01456068 98.81468773 83.46965981 C98.81955656 85.60466418 98.83117893 87.73966437 98.84972572 89.87459373 C98.87410041 92.8668185 98.87315476 95.85804792 98.86621094 98.8503418 C98.879021 99.72905441 98.89183105 100.60776703 98.9050293 101.5131073 C98.8558239 107.34439288 97.78622446 110.7356954 94.39624023 115.51757812 C88.20224368 120.42115873 83.28970239 120.66842555 75.60791016 120.67871094 C74.72124161 120.68367584 73.83457306 120.68864075 72.92103577 120.6937561 C69.98958559 120.70835335 67.05818953 120.71517567 64.12670898 120.72070312 C62.08653258 120.72645657 60.04635619 120.73221428 58.00617981 120.73797607 C53.72823841 120.74847912 49.45031576 120.75432635 45.17236328 120.7578125 C39.69808076 120.76329582 34.22404714 120.78732344 28.74984264 120.81578445 C24.53501161 120.83443308 20.32024027 120.83961762 16.10537148 120.84114838 C14.0876053 120.84417038 12.06984007 120.85218363 10.05211449 120.86533356 C7.22546976 120.88244046 4.39942979 120.88050243 1.57275391 120.87402344 C0.74393707 120.88323822 -0.08487976 120.892453 -0.93881226 120.90194702 C-7.57480753 120.85444121 -12.22732536 119.52434495 -17.41625977 115.14257812 C-21.84794046 109.82456129 -21.90500962 104.99804151 -21.91015625 98.35620117 C-21.91847977 97.44173218 -21.92680328 96.52726318 -21.93537903 95.58508301 C-21.95944478 92.56644412 -21.96824712 89.54802148 -21.97485352 86.52929688 C-21.98382264 84.42568396 -21.99294453 82.3220717 -22.00221252 80.21846008 C-22.0186959 75.80944266 -22.02640143 71.40050111 -22.02929688 66.99145508 C-22.03467909 61.35231501 -22.07235581 55.71389178 -22.11804104 50.07495403 C-22.14783937 45.72967448 -22.15502105 41.38456694 -22.15602303 37.03919411 C-22.16021999 34.960831 -22.17263317 32.88246713 -22.19354057 30.80420494 C-22.22051121 27.89131911 -22.21561235 24.98008719 -22.203125 22.06713867 C-22.21795929 21.21543594 -22.23279358 20.36373322 -22.24807739 19.48622131 C-22.17389591 13.38436374 -20.69418461 9.11835108 -16.60375977 4.51757812 C-11.62227023 0.12807659 -6.39415491 -0.05934353 0 0 Z " fill="#F19B1F" transform="translate(251.603759765625,33.482421875)"/>
<path d="M0 0 C112.53 0 225.06 0 341 0 C341 11.55 341 23.1 341 35 C228.47 35 115.94 35 0 35 C0 23.45 0 11.9 0 0 Z " fill="#555F7F" transform="translate(43,153)"/>
<path d="M0 0 C4.38678024 2.45143602 6.88809836 5.24678509 8.83653069 9.91658211 C9.9695474 14.12869046 10.02108494 17.93244571 9.99050903 22.27218628 C9.99221788 23.16344369 9.99392673 24.0547011 9.99568737 24.97296631 C9.99897621 27.95325127 9.98798848 30.93331007 9.97705078 33.91357422 C9.97648654 36.05236302 9.97680349 38.19115222 9.97793579 40.3299408 C9.97850979 46.13315337 9.9667478 51.93628332 9.95278788 57.73947668 C9.94028839 63.80532761 9.93911063 69.87118042 9.93673706 75.93704224 C9.93052 87.42225889 9.91410609 98.90743748 9.89403808 110.39263737 C9.87168614 123.46870138 9.86068742 136.5447672 9.85064721 149.62084556 C9.82974009 176.51808481 9.79455969 203.41529027 9.75 230.3125 C8.33261686 230.01247966 6.91612104 229.70826587 5.5 229.40234375 C4.31664062 229.14892212 4.31664062 229.14892212 3.109375 228.89038086 C0.91294227 228.35240939 -1.13803929 227.67687764 -3.25 226.875 C-7.77185171 225.28923961 -12.35255914 224.51110209 -17.0625 223.71484375 C-17.85076172 223.57880737 -18.63902344 223.442771 -19.45117188 223.3026123 C-21.38359768 222.96956165 -23.31673048 222.64061762 -25.25 222.3125 C-25.34342507 194.79206176 -25.41397034 167.27164728 -25.45724869 139.75108242 C-25.47787733 126.97291705 -25.50600389 114.19485019 -25.55175781 101.41674805 C-25.5916161 90.27986669 -25.61743061 79.14305666 -25.62635398 68.00610596 C-25.63157038 62.10869616 -25.64383747 56.21149046 -25.67292023 50.31414604 C-25.70007318 44.76314127 -25.70844512 39.21242466 -25.70243073 33.66135979 C-25.703531 31.62439915 -25.71148544 29.58742886 -25.7268219 27.55052567 C-25.74674773 24.76753764 -25.74192958 21.98563504 -25.73101807 19.20262146 C-25.74266943 18.39813031 -25.7543208 17.59363916 -25.76632524 16.76476949 C-25.70710499 11.16993674 -24.46776027 7.91700123 -21.25 3.3125 C-14.61639422 -1.83192897 -7.7777577 -3.60539049 0 0 Z " fill="#8596CA" transform="translate(409.25,9.6875)"/>
<path d="M0 0 C62.04 0 124.08 0 188 0 C188 11.55 188 23.1 188 35 C125.96 35 63.92 35 0 35 C0 23.45 0 11.9 0 0 Z " fill="#546080" transform="translate(43,349)"/>
<path d="M0 0 C3.06495745 1.91307234 5.46439185 4.44370989 8 7 C9.12012959 8.09733922 10.24130364 9.19361287 11.36328125 10.2890625 C21.8440371 20.59633388 21.8440371 20.59633388 22.3125 24.8125 C21.91645896 28.85211856 21.01158942 30.29729155 18 33 C14.4375 33.9375 14.4375 33.9375 11 34 C10.01 33.34 9.02 32.68 8 32 C9.59511627 48.58920918 20.8264361 65.27580976 33.1640625 75.8671875 C41.25520773 81.95226366 50.38677725 86.81137767 60 90 C60.97324219 90.35449219 61.94648438 90.70898438 62.94921875 91.07421875 C81.3150673 96.18445888 102.32138692 92.07248299 118.9375 83.6875 C131.45115659 76.4632818 140.55019833 67.06751371 148.45703125 55.06640625 C150.60912562 52.18423429 152.31780729 51.10381193 155.875 50.5625 C159 51 159 51 161.875 53.0625 C164 56 164 56 164.75 59.125 C162.0149374 73.25615675 146.4569325 87.12513573 135 95 C109.60124766 110.42112213 84.55492726 114.28384732 55.5625 107.3125 C32.44706145 100.86112632 12.73998381 84.47360761 0.25 64.1875 C-5.69999224 53.53797578 -8.8158379 41.70490874 -12 30 C-12.91523438 30.65871094 -13.83046875 31.31742187 -14.7734375 31.99609375 C-18 34 -18 34 -21.625 34.0625 C-25.6884319 32.78327144 -26.94170825 31.70492515 -29 28 C-29.4250082 24.39964319 -29.41862191 22.6269217 -27.3828125 19.578125 C-26.63773437 18.80984375 -25.89265625 18.0415625 -25.125 17.25 C-24.3103125 16.39921875 -23.495625 15.5484375 -22.65625 14.671875 C-21.7796875 13.79015625 -20.903125 12.9084375 -20 12 C-19.1028125 11.07703125 -18.205625 10.1540625 -17.28125 9.203125 C-7.19462261 -1.0615017 -7.19462261 -1.0615017 0 0 Z " fill="#FBFDFE" transform="translate(285,350)"/>
<path d="M0 0 C20.41906712 16.31445536 31.32395085 36.80387937 37 62 C37.70125 61.34 38.4025 60.68 39.125 60 C42 58 42 58 44.9375 57.4375 C49.186453 58.21791994 51.10822083 59.8328133 54 63 C54.8125 65.8125 54.8125 65.8125 54 69 C52.03019781 72.01471517 49.53184735 74.452204 47 77 C45.82938606 78.19657445 44.65881683 79.39319264 43.48828125 80.58984375 C41.00523707 83.10945045 38.51824528 85.62483146 36.01171875 88.12109375 C35.48022217 88.6514624 34.94872559 89.18183105 34.40112305 89.72827148 C32.28568238 91.64834997 31.04533457 91.99518516 28.16796875 92.30078125 C24.24843189 91.92864273 23.11122286 90.90069313 20.3125 88.1875 C19.46429688 87.37539063 18.61609375 86.56328125 17.7421875 85.7265625 C16.83726562 84.82679688 15.93234375 83.92703125 15 83 C13.98228565 82.00728445 12.96404565 81.01510753 11.9453125 80.0234375 C3.15816293 71.39710589 3.15816293 71.39710589 2.625 66.6875 C3 63 3 63 5.125 60.0625 C8.47888959 57.65644877 9.96378195 57.38579291 14 58 C14.99 58.66 15.98 59.32 17 60 C15.86681195 43.37990861 4.66310079 28.16024109 -7 17 C-23.5435502 2.7967569 -45.62683593 -2.54499467 -67 -1 C-82.66737863 0.96378787 -97.42043641 8.41420493 -109 19 C-109.6084375 19.52851563 -110.216875 20.05703125 -110.84375 20.6015625 C-115.29832661 24.71192183 -118.58863462 29.51250462 -121.89282227 34.55737305 C-123.77731834 37.40540256 -125.11120754 39.07413836 -128 41 C-131.99800164 41.60839155 -133.52201252 41.33251303 -136.875 39 C-138.98198163 36.0254377 -139.99219312 34.10163937 -139.72265625 30.41796875 C-135.29102641 15.58997486 -118.17089148 1.18746089 -105.17431641 -6.01123047 C-97.40346259 -10.20517527 -89.66882547 -14.09056708 -81 -16 C-79.23462891 -16.41378906 -79.23462891 -16.41378906 -77.43359375 -16.8359375 C-50.24302395 -22.83012215 -22.27190453 -16.8839629 0 0 Z " fill="#FCFDFE" transform="translate(424,292)"/>
<path d="M0 0 C16.83 0 33.66 0 51 0 C51.11471984 7.90292255 51.21428871 15.80296318 51.2746582 23.70605469 C51.29699963 26.39515032 51.33180593 29.08365794 51.37719727 31.77246094 C51.43777116 35.63493744 51.46619417 39.49651062 51.48828125 43.359375 C51.51408768 44.5636615 51.5398941 45.767948 51.56648254 47.00872803 C51.56928099 55.31436654 51.56928099 55.31436654 48.68383789 58.78955078 C44.94903657 60.47399952 42.92112616 60.10683867 39 59 C35.77659617 57.06274234 32.87310475 54.87357733 29.8671875 52.6171875 C27.18628358 50.79476308 27.18628358 50.79476308 24.50390625 51.00390625 C20.20764017 52.71302926 16.74098222 55.56436273 13.03515625 58.28515625 C9.58455262 60.23472509 7.88893873 60.75662345 4 60 C1.26458919 57.7756 0.12462996 55.92835239 -0.34632874 52.42024231 C-0.46417288 49.09976691 -0.44888354 45.8025552 -0.390625 42.48046875 C-0.38496521 41.26676102 -0.37930542 40.05305328 -0.37347412 38.80256653 C-0.35110442 34.93047456 -0.30090382 31.05931176 -0.25 27.1875 C-0.22993591 24.56056025 -0.21168499 21.93360598 -0.1953125 19.30664062 C-0.15464146 12.87044878 -0.07634447 6.43626302 0 0 Z " fill="#D25626" transform="translate(111,230)"/>
<path d="M0 0 C16.83 0 33.66 0 51 0 C51.11479402 7.74221871 51.21434041 15.4814852 51.2746582 23.22387695 C51.29980157 25.85744227 51.33392084 28.49093782 51.37719727 31.12426758 C51.4378521 34.90984309 51.4662127 38.69449598 51.48828125 42.48046875 C51.51408768 43.65772018 51.5398941 44.83497162 51.56648254 46.04789734 C51.56960764 55.15673128 51.56960764 55.15673128 48.68066406 58.27636719 C46 60 46 60 42.62109375 60.09765625 C38.42837067 58.82672293 35.53354479 57.03978731 32.0625 54.4375 C31.47404297 54.01275391 30.88558594 53.58800781 30.27929688 53.15039062 C28.84426911 52.1120372 27.42087191 51.0576415 26 50 C21.70509872 51.99518641 17.79990826 54.63682742 13.86523438 57.25390625 C10.47613026 59.41312544 8.02752577 60.8471924 4 60 C1.37176793 57.91379014 0.13584475 56.7362437 -0.48101807 53.39300537 C-0.4676944 51.91407806 -0.4676944 51.91407806 -0.45410156 50.40527344 C-0.45379944 49.28441345 -0.45349731 48.16355347 -0.45318604 47.00872803 C-0.43254089 45.80444153 -0.41189575 44.60015503 -0.390625 43.359375 C-0.38496521 42.12205627 -0.37930542 40.88473755 -0.37347412 39.60992432 C-0.35488251 36.32822064 -0.31897498 33.04730719 -0.2746582 29.76586914 C-0.23366165 26.41429933 -0.21579501 23.06269556 -0.1953125 19.7109375 C-0.15460035 13.13999569 -0.07630851 6.57101098 0 0 Z " fill="#D25626" transform="translate(265,34)"/>
<path d="M0 0 C16.83 0 33.66 0 51 0 C51.11479402 7.74221871 51.21434041 15.4814852 51.2746582 23.22387695 C51.29980157 25.85744227 51.33392084 28.49093782 51.37719727 31.12426758 C51.4378521 34.90984309 51.4662127 38.69449598 51.48828125 42.48046875 C51.51408768 43.65772018 51.5398941 44.83497162 51.56648254 46.04789734 C51.56960689 55.15453818 51.56960689 55.15453818 48.61474609 58.2434082 C46 60 46 60 43.67578125 60.625 C39.58659361 59.66986128 36.5825374 57.40414132 33.1875 55 C32.14819336 54.28457031 32.14819336 54.28457031 31.08789062 53.5546875 C29.38476096 52.38011532 27.69138807 51.19141801 26 50 C21.54636222 52.37325369 17.29918846 54.68380346 13.375 57.875 C10 60 10 60 6.25 60.0625 C2.59731401 58.86835266 1.87758697 58.24410653 0 55 C-0.36076355 52.43096924 -0.36076355 52.43096924 -0.34057617 49.49707031 C-0.34034958 48.39623108 -0.34012299 47.29539185 -0.33988953 46.16119385 C-0.32440567 44.97878113 -0.30892181 43.79636841 -0.29296875 42.578125 C-0.28872391 41.36300232 -0.28447906 40.14787964 -0.28010559 38.89593506 C-0.26330876 35.01373161 -0.22565338 31.13204664 -0.1875 27.25 C-0.17245452 24.61849708 -0.15876588 21.98698602 -0.14648438 19.35546875 C-0.11595354 12.90328522 -0.05723063 6.4522232 0 0 Z " fill="#D25626" transform="translate(111,34)"/>
</svg>
